<svg xmlns="http://www.w3.org/2000/svg" xmlns:xlink="http://www.w3.org/1999/xlink" width="34" height="32"><defs><path id="a" d="M0 0h33.985v22.936H0z"/></defs><g fill="none" fill-rule="evenodd" transform="translate(0 5)"><mask id="b" fill="#fff"><use xlink:href="#a"/></mask><path fill="#F8A532" d="M33.374.065L19.936 8.62c-.232.148-.42.353-.544.594L17.344 13.2a.398.398 0 01-.703 0l-2.05-3.985a1.54 1.54 0 00-.543-.594L.611.065C.274-.15-.138.208.045.556L5.616 11.16c.133.254-.056.554-.35.554H1.932c-.382 0-.54.475-.229.69l15.06 10.462c.137.095.321.095.458 0l15.06-10.461c.311-.216.154-.69-.228-.69h-3.334c-.294 0-.484-.301-.35-.555L33.938.556c.184-.348-.228-.706-.565-.491" mask="url(#b)"/></g></svg>