<svg width="18" height="18" fill="none" xmlns="http://www.w3.org/2000/svg"><path d="M3.5 12.5h-2a.5.5 0 00-.5.5v2a.5.5 0 00.5.5h2A.5.5 0 004 15v-2a.5.5 0 00-.5-.5zm0-10h-2A.5.5 0 001 3v2a.5.5 0 00.5.5h2A.5.5 0 004 5V3a.5.5 0 00-.5-.5zm0 5h-2A.5.5 0 001 8v2a.5.5 0 00.5.5h2A.5.5 0 004 10V8a.5.5 0 00-.5-.5zm13 5.5h-10a.5.5 0 00-.5.5v1a.5.5 0 00.5.5h10a.5.5 0 00.5-.5v-1a.5.5 0 00-.5-.5zm0-10h-10a.5.5 0 00-.5.5v1a.5.5 0 00.5.5h10a.5.5 0 00.5-.5v-1a.5.5 0 00-.5-.5zm0 5h-10a.5.5 0 00-.5.5v1a.5.5 0 00.5.5h10a.5.5 0 00.5-.5v-1a.5.5 0 00-.5-.5z" fill="#fff"/><path fill-rule="evenodd" clip-rule="evenodd" d="M3.5 12.5h-2a.5.5 0 00-.5.5v2a.5.5 0 00.5.5h2A.5.5 0 004 15v-2a.5.5 0 00-.5-.5zm0-10h-2A.5.5 0 001 3v2a.5.5 0 00.5.5h2A.5.5 0 004 5V3a.5.5 0 00-.5-.5zm0 5h-2A.5.5 0 001 8v2a.5.5 0 00.5.5h2A.5.5 0 004 10V8a.5.5 0 00-.5-.5zm13 5.5h-10a.5.5 0 00-.5.5v1a.5.5 0 00.5.5h10a.5.5 0 00.5-.5v-1a.5.5 0 00-.5-.5zm0-10h-10a.5.5 0 00-.5.5v1a.5.5 0 00.5.5h10a.5.5 0 00.5-.5v-1a.5.5 0 00-.5-.5zm0 5h-10a.5.5 0 00-.5.5v1a.5.5 0 00.5.5h10a.5.5 0 00.5-.5v-1a.5.5 0 00-.5-.5z" fill="#fff"/></svg>