<svg width="18" height="18" viewBox="0 0 18 18" fill="none" xmlns="http://www.w3.org/2000/svg">
<path d="M0 7.53456L4.2252 11.3439L4.2503 7.702L4.26703 4.06014H5.68101C7.17866 4.06014 7.63883 4.13549 8.11573 4.47875C8.90221 5.03968 8.91894 6.37084 8.1492 6.96526C7.6723 7.32526 7.32089 7.40061 6.17465 7.40898H5.10371V10.5904H6.14118C7.58026 10.5904 8.18267 10.8248 8.54244 11.5364C8.93567 12.2983 8.66794 13.1774 7.91493 13.6462L7.50496 13.8974L0 13.9476V17.3718H3.6228C5.61408 17.3718 7.56353 17.3299 7.9484 17.288C10.4835 16.9783 12.0732 15.8564 12.6505 13.9811C12.8848 13.236 12.9015 11.7457 12.6923 10.9504C12.5417 10.3643 12.2238 9.68619 11.9059 9.26758L11.7051 8.99968L11.9059 8.7234C12.9601 7.32526 13.1609 4.98944 12.3744 3.33177C11.9979 2.52805 11.2616 1.82479 10.358 1.38944C8.94404 0.711305 8.1994 0.627584 3.58096 0.627584H0V7.53456ZM11.3537 0.962468C12.4079 1.66572 13.1776 2.72898 13.529 3.97642C13.6629 4.47037 13.6796 4.9141 13.6796 8.99968C13.6796 13.035 13.6629 13.529 13.529 14.0146C13.186 15.262 12.3911 16.3671 11.3369 17.062L10.8349 17.3885L11.8808 17.3467C15.1522 17.196 17.3359 15.6387 17.8546 13.0853C17.9244 12.7541 17.9689 11.7285 17.9885 10.5095C18.0039 9.54993 18.0038 8.47053 17.9885 7.5159C17.9696 6.34146 17.9277 5.35588 17.863 5.01456C17.6287 3.79224 16.9761 2.70386 16.0307 1.99224C14.9346 1.1634 13.6127 0.736421 11.8808 0.661072L10.8349 0.61084L11.3537 0.962468Z" fill="white"/>
<path fill-rule="evenodd" clip-rule="evenodd" d="M17.9885 7.5159V10.5095C17.9689 11.7285 17.9244 12.7541 17.8546 13.0853C17.3359 15.6387 15.1522 17.196 11.8808 17.3467L10.8349 17.3885L11.3369 17.062C12.3911 16.3671 13.186 15.262 13.529 14.0146C13.6629 13.529 13.6796 13.035 13.6796 8.99968C13.6796 4.9141 13.6629 4.47037 13.529 3.97642C13.1776 2.72898 12.4079 1.66572 11.3537 0.962468L10.8349 0.61084L11.8808 0.661072C13.6127 0.736421 14.9346 1.1634 16.0307 1.99224C16.9761 2.70386 17.6287 3.79224 17.863 5.01456C17.9277 5.35588 17.9696 6.34146 17.9885 7.5159ZM0 13.9476V17.3718H3.6228C5.61408 17.3718 7.56353 17.3299 7.9484 17.288C10.4835 16.9783 12.0732 15.8564 12.6505 13.9811C12.8848 13.236 12.9015 11.7457 12.6923 10.9504C12.5417 10.3643 12.2238 9.68619 11.9059 9.26758L11.7051 8.99968L11.9059 8.7234C12.9601 7.32526 13.1609 4.98944 12.3744 3.33177C11.9979 2.52805 11.2616 1.82479 10.358 1.38944C8.94404 0.711305 8.1994 0.627584 3.58096 0.627584H0V7.53456L4.2252 11.3439L4.2503 7.702L4.26703 4.06014H5.68101C7.17866 4.06014 7.63883 4.13549 8.11573 4.47875C8.90221 5.03968 8.91894 6.37084 8.1492 6.96526C7.6723 7.32526 7.32089 7.40061 6.17465 7.40898H5.10371V10.5904H6.14118C7.58026 10.5904 8.18267 10.8248 8.54244 11.5364C8.93567 12.2983 8.66794 13.1774 7.91493 13.6462L7.50496 13.8974L0 13.9476Z" fill="white"/>
</svg>
