<svg width="18" height="18" fill="none" xmlns="http://www.w3.org/2000/svg"><path d="M1.5 7.77l3.521 3.174.02-3.035.015-3.035h1.178c1.248 0 1.632.063 2.03.35.655.467.668 1.576.027 2.071-.397.3-.69.363-1.645.37h-.893v2.651h.865c1.199 0 1.7.196 2 .789.328.634.105 1.367-.522 1.758l-.342.21-6.254.041v2.853h3.019c1.66 0 3.284-.034 3.605-.07 2.112-.258 3.437-1.192 3.918-2.755.195-.621.21-1.863.035-2.526-.126-.488-.39-1.053-.655-1.402l-.168-.223.168-.23c.878-1.166 1.045-3.112.39-4.494-.314-.67-.927-1.255-1.68-1.618-1.179-.565-1.8-.635-5.648-.635H1.5V7.77zm9.461-5.477a4.46 4.46 0 011.813 2.512c.112.411.126.781.126 4.186 0 3.363-.014 3.774-.126 4.179a4.49 4.49 0 01-1.827 2.54l-.418.271.872-.034c2.726-.126 4.546-1.424 4.978-3.552.058-.276.095-1.13.111-2.146.013-.8.013-1.7 0-2.495-.015-.978-.05-1.8-.104-2.084-.195-1.019-.74-1.926-1.527-2.519-.914-.69-2.015-1.046-3.458-1.11L10.529 2l.432.293z" fill="#fff"/><path fill-rule="evenodd" clip-rule="evenodd" d="M16.49 7.754v2.495c-.016 1.016-.053 1.87-.111 2.146-.432 2.128-2.252 3.426-4.978 3.552l-.872.034.418-.272a4.49 4.49 0 001.827-2.54c.112-.404.126-.816.126-4.178 0-3.405-.014-3.775-.126-4.186a4.46 4.46 0 00-1.813-2.512L10.53 2l.872.042c1.443.063 2.544.418 3.458 1.11.788.592 1.332 1.5 1.527 2.518.054.284.089 1.106.104 2.084zM1.5 13.114v2.853h3.019c1.66 0 3.284-.034 3.605-.07 2.112-.258 3.437-1.192 3.918-2.755.195-.621.21-1.863.035-2.526-.126-.488-.39-1.053-.655-1.402l-.168-.223.168-.23c.878-1.166 1.045-3.112.39-4.494-.314-.67-.927-1.255-1.68-1.618-1.179-.565-1.8-.635-5.648-.635H1.5V7.77l3.521 3.174.02-3.035.015-3.035h1.178c1.248 0 1.632.063 2.03.35.655.467.668 1.576.027 2.071-.397.3-.69.363-1.645.37h-.893v2.651h.865c1.199 0 1.7.196 2 .789.328.634.105 1.367-.522 1.758l-.342.21-6.254.041z" fill="#fff"/><path fill-rule="evenodd" clip-rule="evenodd" d="M5.021 10.944l.02-3.035.015-3.035h1.178c1.248 0 1.632.063 2.03.35.655.467.668 1.576.027 2.071-.397.3-.69.363-1.645.37h-.893v2.651h.865c1.199 0 1.7.196 2 .789.328.634.105 1.367-.522 1.758l-.342.21-6.254.041v2.853h3.019c1.66 0 3.284-.034 3.605-.07 2.112-.258 3.437-1.192 3.918-2.755.195-.621.21-1.863.035-2.526-.126-.488-.39-1.053-.655-1.402l-.168-.223.168-.23c.878-1.166 1.045-3.112.39-4.494-.314-.67-.927-1.255-1.68-1.618-1.179-.565-1.8-.635-5.648-.635H1.5V7.77l3.521 3.174zm5.94-8.651a4.46 4.46 0 011.813 2.512c.112.411.126.781.126 4.186 0 3.363-.014 3.774-.126 4.179a4.49 4.49 0 01-1.827 2.54l-.418.271.872-.034c2.726-.126 4.546-1.424 4.978-3.552.058-.276.095-1.13.111-2.146.013-.8.013-1.7 0-2.495-.015-.978-.05-1.8-.104-2.084-.195-1.019-.74-1.926-1.527-2.519-.914-.69-2.015-1.046-3.458-1.11L10.529 2l.432.293z" fill="#fff"/></svg>
