<svg width="18" height="18" fill="none" xmlns="http://www.w3.org/2000/svg"><path d="M9.708 5.604V1.708h-4.25v3.896L7.583 7.73l2.125-2.125zM4.396 6.667H.5v4.25h3.896L6.52 8.792 4.396 6.667zm1.062 5.312v3.896h4.25v-3.896L7.583 9.854 5.458 11.98z" fill="#fff"/><path fill-rule="evenodd" clip-rule="evenodd" d="M13.958 1a3.542 3.542 0 00-3.541 3.542v8.5a3.542 3.542 0 107.083 0v-8.5A3.542 3.542 0 0013.958 1zm0 6.198a2.48 2.48 0 100-4.958 2.48 2.48 0 000 4.958z" fill="#fff"/><path fill-rule="evenodd" clip-rule="evenodd" d="M9.708 1.708v3.896L7.583 7.73 5.458 5.604V1.708h4.25zM.5 6.667h3.896L6.52 8.792l-2.125 2.125H.5v-4.25zm4.958 9.208v-3.896l2.125-2.125 2.125 2.125v3.896h-4.25zM17.5 4.542a3.542 3.542 0 00-7.083 0v8.5a3.542 3.542 0 107.083 0v-8.5zm-3.542 2.656a2.48 2.48 0 100-4.958 2.48 2.48 0 000 4.958z" fill="#fff"/></svg>