<svg width="18" height="18" fill="none" xmlns="http://www.w3.org/2000/svg"><path d="M11.408 7.107c0 1.524-.895 2.22-2.199 2.22-1.178 0-1.86-.608-2.209-1.346l1.199-.723c.23.409.44.755.947.755.483 0 .79-.19.79-.927V2.084h1.472v5.023zm3.482 2.22c-1.367 0-2.251-.65-2.681-1.503l1.199-.692c.314.514.727.895 1.45.895.609 0 1-.304 1-.727 0-.504-.398-.682-1.073-.98l-.367-.157c-1.063-.45-1.765-1.02-1.765-2.22 0-1.104.842-1.943 2.153-1.943.937 0 1.608.325 2.09 1.178l-1.146.734c-.252-.45-.524-.63-.947-.63-.43 0-.703.274-.703.63 0 .44.273.619.905.895l.367.157c1.252.535 1.954 1.084 1.954 2.315 0 1.321-1.041 2.048-2.436 2.048z" fill="#fff"/><path fill-rule="evenodd" clip-rule="evenodd" d="M11.408 7.107c0 1.524-.895 2.22-2.199 2.22-1.178 0-1.86-.608-2.209-1.346l1.199-.723c.23.409.44.755.947.755.483 0 .79-.19.79-.927V2.084h1.472v5.023zm3.482 2.22c-1.367 0-2.251-.65-2.681-1.503l1.199-.692c.314.514.727.895 1.45.895.609 0 1-.304 1-.727 0-.504-.398-.682-1.073-.98l-.367-.157c-1.063-.45-1.765-1.02-1.765-2.22 0-1.104.842-1.943 2.153-1.943.937 0 1.608.325 2.09 1.178l-1.146.734c-.252-.45-.524-.63-.947-.63-.43 0-.703.274-.703.63 0 .44.273.619.905.895l.367.157c1.252.535 1.954 1.084 1.954 2.315 0 1.321-1.041 2.048-2.436 2.048z" fill="#fff"/><path d="M6.164 10.836V6.235A.234.234 0 005.929 6c-.907 0-1.642.735-1.642 1.642v3.194h-.688a1.877 1.877 0 10-.223 1.877h.91v.91a1.877 1.877 0 101.877-.223v-.687h3.195c.907 0 1.642-.735 1.642-1.642a.234.234 0 00-.235-.235H6.164zm-3.845 1.19a.627.627 0 01-.884-.885.627.627 0 01.884.885zm3.54 3.54a.626.626 0 11-.885-.888.626.626 0 01.885.887z" fill="#fff"/><path fill-rule="evenodd" clip-rule="evenodd" d="M.55 10.257c-.367.366-.55.846-.55 1.327a1.877 1.877 0 003.376 1.13h.91v.91a1.877 1.877 0 101.877-.223v-.688h3.195c.907 0 1.642-.735 1.642-1.642a.234.234 0 00-.235-.235H6.164V6.235A.234.234 0 005.929 6c-.907 0-1.642.735-1.642 1.642v3.194h-.688a1.877 1.877 0 00-3.05-.58zm10.858-3.15c0 1.524-.895 2.22-2.199 2.22-1.178 0-1.86-.608-2.209-1.346l1.199-.723c.23.409.44.755.947.755.483 0 .79-.19.79-.927V2.084h1.472v5.023zm3.482 2.22c-1.367 0-2.251-.65-2.681-1.503l1.199-.692c.314.514.727.895 1.45.895.609 0 1-.304 1-.727 0-.504-.398-.682-1.073-.98l-.367-.157c-1.063-.45-1.765-1.02-1.765-2.22 0-1.104.842-1.943 2.153-1.943.937 0 1.608.325 2.09 1.178l-1.146.734c-.252-.45-.524-.63-.947-.63-.43 0-.703.274-.703.63 0 .44.273.619.905.895l.367.157c1.252.535 1.954 1.084 1.954 2.315 0 1.321-1.041 2.048-2.436 2.048zm-12.57 2.7a.627.627 0 01-.885-.886.627.627 0 01.884.885zm2.654 3.538a.626.626 0 10.885-.887.626.626 0 00-.885.887z" fill="#fff"/></svg>