<svg width="18" height="18" fill="none" xmlns="http://www.w3.org/2000/svg"><path d="M16.781 14.834l-3.115-3.115a.749.749 0 00-.532-.219h-.509A6.468 6.468 0 0014 7.5C14 3.91 11.09 1 7.5 1S1 3.91 1 7.5 3.91 14 7.5 14c1.51 0 2.897-.512 4-1.375v.51c0 .2.078.39.219.53l3.115 3.116a.747.747 0 001.06 0l.884-.884a.753.753 0 00.003-1.063zM7.5 11.5c-2.21 0-4-1.787-4-4 0-2.21 1.787-4 4-4 2.21 0 4 1.787 4 4 0 2.21-1.787 4-4 4z" fill="#fff"/><path fill-rule="evenodd" clip-rule="evenodd" d="M7.5 11.5c-2.21 0-4-1.787-4-4 0-2.21 1.787-4 4-4 2.21 0 4 1.787 4 4 0 2.21-1.787 4-4 4zm9.281 3.334l-3.115-3.115a.749.749 0 00-.532-.219h-.509A6.468 6.468 0 0014 7.5C14 3.91 11.09 1 7.5 1S1 3.91 1 7.5 3.91 14 7.5 14c1.51 0 2.897-.512 4-1.375v.51c0 .2.078.39.219.53l3.115 3.116a.747.747 0 001.06 0l.884-.884a.753.753 0 00.003-1.063z" fill="#fff"/></svg>