<svg width="18" height="18" fill="none" xmlns="http://www.w3.org/2000/svg"><path d="M15.093 5.797a1 1 0 00-.965 1.752c.537.296.872.852.872 1.451 0 .599-.335 1.155-.872 1.45a1 1 0 00.965 1.753A3.664 3.664 0 0017 9c0-1.328-.73-2.555-1.907-3.203zM10.659 1a.977.977 0 00-.7.294L6.252 5H2a1 1 0 00-1 1v6a1 1 0 001 1h4.252l3.707 3.706A.998.998 0 0011.666 16V2.001c0-.605-.494-1.001-1.008-1.001zm-.993 12.585L7.081 11H3V7h4.08l2.586-2.585v9.17z" fill="#fff"/><path fill-rule="evenodd" clip-rule="evenodd" d="M13.734 6.19a1.004 1.004 0 011.359-.393A3.663 3.663 0 0117 9c0 1.328-.73 2.555-1.907 3.203a1.001 1.001 0 01-.965-1.753C14.665 10.155 15 9.6 15 9s-.335-1.155-.872-1.45a1 1 0 01-.394-1.36zM9.959 1.295A.998.998 0 0111.666 2v13.998a.998.998 0 01-1.707.707L6.252 13H2a1 1 0 01-1-1V6a1 1 0 011-1h4.252L9.96 1.294zM7.081 11l2.585 2.585v-9.17L7.081 7H3v4h4.08z" fill="#fff"/></svg>