<svg xmlns="http://www.w3.org/2000/svg" width="24" height="24" viewBox="0 0 24 24">
  <g fill="none" fill-rule="evenodd">
    <rect width="24" height="24"/>
    <g fill="#80A6FF" transform="translate(0 2)">
      <path fill-rule="nonzero" d="M14,3 C10.1340068,3 7,6.13400675 7,10 C7,13.8659932 10.1340068,17 14,17 C17.8659932,17 21,13.8659932 21,10 C21,6.13400675 17.8659932,3 14,3 Z M3,9 L4,9 C4.55228475,9 5,8.55228475 5,8 C5,7.44771525 4.55228475,7 4,7 L1,7 C0.44771525,7 0,6.55228475 0,6 C0,5.44771525 0.44771525,5 1,5 L6,5 C6.55228475,5 7,4.55228475 7,4 C7,3.44771525 6.55228475,3 6,3 L3.5,3 C2.67157288,3 2,2.32842712 2,1.5 C2,0.671572875 2.67157288,0 3.5,0 L14,0 C19.5228475,0 24,4.4771525 24,10 C24,15.5228475 19.5228475,20 14,20 C8.8146519,20 4.55109967,16.0533227 4.04937524,11 L3,11 C2.44771525,11 2,10.5522847 2,10 C2,9.44771525 2.44771525,9 3,9 Z"/>
      <path d="M14,15 C11.2385763,15 9,12.7614237 9,10 C9,7.23857625 11.2385763,5 14,5 C16.7614237,5 19,7.23857625 19,10 C19,12.7614237 16.7614237,15 14,15 Z M15.826989,7.45045379 C15.6420424,7.16928349 15.3280698,7 14.9915257,7 L13.0655484,7 C12.7290042,7 12.4150316,7.16928349 12.2300851,7.45045379 L10.9145367,9.45045379 C10.6951544,9.7839759 10.6951544,10.2160241 10.9145367,10.5495462 L12.2300851,12.5495462 C12.4150316,12.8307165 12.7290042,13 13.0655484,13 L14.9915257,13 C15.3280698,13 15.6420424,12.8307165 15.826989,12.5495462 L17.1425374,10.5495462 C17.3619196,10.2160241 17.3619196,9.7839759 17.1425374,9.45045379 L15.826989,7.45045379 Z"/>
    </g>
  </g>
</svg>