<svg width="18" height="18" fill="none" xmlns="http://www.w3.org/2000/svg"><path fill-rule="evenodd" clip-rule="evenodd" d="M13.683 1.472c-1.832 0-3.317 1.496-3.317 3.34v8.02c0 1.845 1.485 3.34 3.317 3.34S17 14.677 17 12.832v-8.02c0-1.844-1.485-3.34-3.317-3.34zm0 5.847a2.33 2.33 0 002.322-2.34 2.33 2.33 0 00-2.322-2.338A2.33 2.33 0 0011.36 4.98a2.33 2.33 0 002.322 2.339z" fill="#fff"/><path d="M2.755 11.96a2.197 2.197 0 00-1.053 2.915c.402.868-.15 1.683-.702 1.943.98.524 2.251.556 3.244.09a2.932 2.932 0 001.404-3.887 2.168 2.168 0 00-2.893-1.06zM8.9 1.519l-1.293-.474a.721.721 0 00-.927.436l-3.145 8.704 2.652.972 3.145-8.704a.73.73 0 00-.432-.934z" fill="#fff"/><path fill-rule="evenodd" clip-rule="evenodd" d="M17 12.831V4.813c0-1.845-1.485-3.341-3.317-3.341s-3.317 1.496-3.317 3.34v8.02c0 1.845 1.485 3.34 3.317 3.34S17 14.677 17 12.832zM1.702 14.875a2.197 2.197 0 011.053-2.914 2.168 2.168 0 012.893 1.06 2.932 2.932 0 01-1.404 3.886c-.993.467-2.265.435-3.244-.09.552-.259 1.104-1.074.702-1.942zm5.904-13.83l1.293.473a.73.73 0 01.432.934l-3.145 8.704-2.652-.972L6.679 1.48a.721.721 0 01.927-.436zm6.077 6.274a2.33 2.33 0 002.322-2.34 2.33 2.33 0 00-2.322-2.338A2.33 2.33 0 0011.36 4.98a2.33 2.33 0 002.322 2.339z" fill="#fff"/></svg>