<svg width="18" height="18" fill="none" xmlns="http://www.w3.org/2000/svg"><path d="M17.251 11.693l-2.398-2.396a1.7 1.7 0 00-1.204-.497h-2.106a.85.85 0 00-.85.85v2.104c0 .452.178.882.496 1.201l2.4 2.396a.851.851 0 001.202 0l2.458-2.457a.846.846 0 00.002-1.2zm-4.856-.558a.636.636 0 01-.637-.637c0-.353.284-.638.637-.638a.638.638 0 110 1.275zM6.45 8.798a3.4 3.4 0 100-6.8 3.4 3.4 0 000 6.8zm3.395 2.954V9.81a3.574 3.574 0 00-1.015-.165h-.443a4.63 4.63 0 01-3.873 0H4.07A3.575 3.575 0 00.5 13.218v1.105c0 .704.571 1.275 1.275 1.275h9.35c.412 0 .774-.2 1.007-.502l-1.54-1.54a2.534 2.534 0 01-.747-1.804z" fill="#fff"/><path fill-rule="evenodd" clip-rule="evenodd" d="M14.853 9.297l2.398 2.396a.846.846 0 01-.002 1.2l-2.457 2.458a.851.851 0 01-1.204 0l-2.399-2.396a1.694 1.694 0 01-.496-1.2V9.65c0-.47.38-.85.85-.85h2.106a1.7 1.7 0 011.204.497zm-5.002-3.9a3.4 3.4 0 11-6.8.001 3.4 3.4 0 016.8 0zM9.845 9.81v1.942c0 .682.266 1.323.747 1.803l1.54 1.541a1.27 1.27 0 01-1.006.502h-9.35A1.275 1.275 0 01.5 14.323v-1.105c0-1.971 1.6-3.57 3.57-3.573h.444a4.63 4.63 0 003.873 0h.443c.354 0 .691.07 1.015.165zm1.913.688a.638.638 0 101.275 0 .638.638 0 00-1.275 0z" fill="#fff"/></svg>
