<svg width="18" height="18" fill="none" xmlns="http://www.w3.org/2000/svg"><path d="M15.667 3H2.333C1.597 3 1 3.597 1 4.333v9.778c0 .736.597 1.333 1.333 1.333h13.334c.736 0 1.333-.597 1.333-1.333V4.333C17 3.597 16.403 3 15.667 3zM5.889 5.667c.98 0 1.778.797 1.778 1.777a1.78 1.78 0 01-1.778 1.778A1.78 1.78 0 014.11 7.444c0-.98.797-1.777 1.778-1.777zM9 12.244c0 .295-.278.534-.622.534H3.4c-.344 0-.622-.24-.622-.534v-.533c0-.883.836-1.6 1.866-1.6h.14a2.876 2.876 0 002.21 0h.14c1.03 0 1.866.717 1.866 1.6v.533zm6.222-1.466c0 .122-.1.222-.222.222h-4a.223.223 0 01-.222-.222v-.445c0-.122.1-.222.222-.222h4c.122 0 .222.1.222.222v.445zm0-1.778c0 .122-.1.222-.222.222h-4A.223.223 0 0110.778 9v-.444c0-.123.1-.223.222-.223h4c.122 0 .222.1.222.223V9zm0-1.778c0 .122-.1.222-.222.222h-4a.223.223 0 01-.222-.222v-.444c0-.122.1-.222.222-.222h4c.122 0 .222.1.222.222v.444z" fill="#fff"/><path fill-rule="evenodd" clip-rule="evenodd" d="M2.333 3h13.334C16.403 3 17 3.597 17 4.333v9.778c0 .736-.597 1.333-1.333 1.333H2.333A1.334 1.334 0 011 14.111V4.333C1 3.597 1.597 3 2.333 3zM15 7.444c.122 0 .222-.1.222-.222v-.444c0-.122-.1-.222-.222-.222h-4c-.122 0-.222.1-.222.222v.444c0 .122.1.222.222.222h4zM15.222 9c0 .122-.1.222-.222.222h-4A.223.223 0 0110.778 9v-.444c0-.123.1-.223.222-.223h4c.122 0 .222.1.222.223V9zM15 11c.122 0 .222-.1.222-.222v-.445c0-.122-.1-.222-.222-.222h-4c-.122 0-.222.1-.222.222v.445c0 .122.1.222.222.222h4zM5.889 5.667c.98 0 1.778.797 1.778 1.777a1.78 1.78 0 01-1.778 1.778A1.78 1.78 0 014.11 7.444c0-.98.797-1.777 1.778-1.777zm2.489 7.11c.344 0 .622-.238.622-.533v-.533c0-.883-.836-1.6-1.867-1.6h-.139a2.866 2.866 0 01-2.21 0h-.14c-1.03 0-1.866.717-1.866 1.6v.533c0 .295.278.534.622.534h4.978z" fill="#fff"/></svg>