<svg width="18" height="18" viewBox="0 0 18 18" fill="none" xmlns="http://www.w3.org/2000/svg">
<path fill-rule="evenodd" clip-rule="evenodd" d="M1 13.74H3.10736C4.26568 13.74 5.39966 13.7156 5.62354 13.6913C7.0982 13.5111 8.02291 12.8585 8.35873 11.7677C8.495 11.3342 8.50473 10.4674 8.38306 10.0047C8.29546 9.66381 8.11052 9.26934 7.92557 9.02584L7.80877 8.87L7.92557 8.70929C8.5388 7.896 8.65561 6.53727 8.19812 5.57301C7.97911 5.10549 7.55082 4.69641 7.0252 4.44317C6.2027 4.0487 5.76955 4 3.08303 4H1V13.74ZM3.48211 5.9967L3.47238 8.11515L3.48211 11.7316L5.36559 11.719L5.60407 11.5729C6.04209 11.3001 6.19783 10.7888 5.96909 10.3456C5.75981 9.93166 5.4094 9.7953 4.57229 9.7953H3.9688V7.9447H4.59176C5.25852 7.93983 5.46293 7.896 5.74034 7.68659C6.1881 7.34082 6.17836 6.56649 5.72088 6.2402C5.44346 6.04053 5.17579 5.9967 4.30461 5.9967H3.48211Z" fill="white"/>
<path d="M14.8293 3.39286V4.71875H16.2146C16.4305 4.71875 16.6049 4.89431 16.6049 5.11161V8.97879L17.9732 10.4189C17.9902 10.4372 17.9998 10.4613 18 10.4864V13.6071C18 13.8244 17.8256 14 17.6098 14H10.3902C10.1744 14 10 13.8244 10 13.6071V5.03795C10 4.87835 10.0963 4.73348 10.2439 4.67333L14.2927 3.02824C14.339 3.00982 14.389 3 14.439 3C14.6549 3 14.8293 3.17556 14.8293 3.39286ZM17.122 13.1161V10.8019L15.7268 9.33359V5.60268H14.8293V11.8638C14.8293 12.0234 14.7329 12.1683 14.5854 12.2285L12.4 13.1161H17.122ZM10.878 5.31663V12.8337L14 11.5655V4.04721L10.878 5.31663Z" fill="white"/>
</svg>
