<svg width="18" height="18" viewBox="0 0 18 18" fill="none" xmlns="http://www.w3.org/2000/svg">
<path d="M7.30035 2.02544C7.47768 1.98949 7.6599 1.99507 7.83828 2.0209C7.86669 2.02359 7.89511 2.02627 7.92354 2.02895C8.50037 2.08332 9.07977 2.13793 9.643 2.28131C9.82994 2.33123 10.0177 2.37944 10.2057 2.42769C11.0783 2.65172 11.9543 2.87662 12.7648 3.27758C13.1728 3.50064 13.5236 3.8047 13.8738 4.10813C14.0014 4.21876 14.129 4.3293 14.2592 4.43581C15.1469 5.31059 16.0339 6.20528 16.694 7.2717C17.0232 7.86024 17.2141 8.5193 17.294 9.18708C17.3928 9.52744 17.4341 9.87757 17.4754 10.2281C17.4835 10.2964 17.4915 10.3647 17.5 10.4329V10.5984C17.449 11.344 17.2323 12.1064 16.7313 12.6789C16.3494 13.1543 15.7763 13.4172 15.2083 13.5984C14.6376 13.7463 14.1208 14.0226 13.604 14.2989C13.3126 14.4547 13.0212 14.6105 12.7201 14.7433C11.9738 15.0959 11.1671 15.2977 10.3509 15.4027H9.18501C8.58704 15.3294 7.99257 15.2076 7.43893 14.9629C7.91856 15.0997 8.47185 14.7939 8.58739 14.3042C8.68793 13.9432 8.55179 13.5683 8.29173 13.3118C8.9923 13.3262 9.69099 13.2699 10.3896 13.2136C10.7349 13.1857 11.0802 13.1579 11.4257 13.1386C11.9019 13.1131 12.3155 12.6737 12.2827 12.1912C12.3026 11.6254 11.7273 11.1772 11.1814 11.2753C10.0794 11.3987 8.97328 11.432 7.86712 11.4654C7.17739 11.4862 6.48767 11.507 5.79897 11.5496C5.74417 10.9908 5.60628 10.4403 5.39474 9.91979C5.30084 9.68417 5.15947 9.45517 4.9378 9.32078C4.55417 9.05897 3.98343 9.16753 3.71115 9.53895C3.49647 9.81018 3.46016 10.2029 3.60503 10.5143C3.73384 10.7893 3.8609 11.0784 3.87556 11.3856C3.85235 11.513 3.78176 11.6196 3.71099 11.7264C3.66257 11.7995 3.61406 11.8727 3.5806 11.9528C3.40231 11.7307 3.2352 11.4998 3.06812 11.2688C2.79029 10.8848 2.51253 10.5009 2.18359 10.1582C1.47567 9.38012 0.729343 8.55072 0.5 7.49127V6.98022C0.533929 6.81843 0.560283 6.65471 0.586643 6.49095C0.641101 6.15263 0.695588 5.81413 0.816961 5.49211C0.868503 5.33342 0.945728 5.18639 1.02303 5.03923C1.07189 4.94619 1.12079 4.85309 1.16324 4.75696C1.38212 4.21834 1.7661 3.76419 2.18604 3.37008C2.81996 2.8154 3.55337 2.33786 4.38242 2.14378C4.53002 2.10518 4.68273 2.10606 4.83413 2.10694C4.84566 2.10701 4.85718 2.10707 4.86869 2.10712C4.62018 2.22856 4.36354 2.33133 4.10691 2.4341C3.8538 2.53545 3.60071 2.6368 3.35544 2.75606C3.0678 2.90372 2.84858 3.18472 2.80844 3.50936C2.75224 3.93593 3.0514 4.37158 3.46959 4.47421C3.73698 4.56776 4.01694 4.47316 4.26513 4.36739C4.90674 4.09895 5.55043 3.83505 6.19413 3.5715C6.58788 3.89404 6.9785 4.24347 7.23682 4.68784C7.36737 4.88507 7.58834 5.00376 7.81454 5.05542C8.35002 5.16363 8.93682 4.68505 8.87852 4.12653C8.87887 3.70554 8.60135 3.36275 8.33012 3.06953C8.17552 2.87645 7.99396 2.71017 7.81235 2.54384C7.6331 2.37968 7.4538 2.21548 7.30035 2.02544ZM5.78501 3.99842C5.36368 4.05287 5.00797 4.43162 5.00273 4.85959C4.96224 5.27778 5.2586 5.70295 5.66947 5.7986C6.20914 5.98745 6.85039 5.50259 6.81723 4.93115C6.86016 4.38973 6.31979 3.89823 5.78501 3.99842ZM12.0687 5.11965C10.995 5.32107 9.91248 5.41741 8.82651 5.50608C8.35142 5.57589 8.00094 6.06285 8.07914 6.53585C8.12347 7.06889 8.68374 7.41727 9.18955 7.34117C9.3144 7.32267 9.43955 7.31067 9.56461 7.29868C9.7392 7.28195 9.91359 7.26523 10.0867 7.23086C10.0238 7.81451 10.5754 8.37583 11.1622 8.26657C11.7109 8.18139 12.1218 7.5349 11.867 7.01688C12.0527 6.95156 12.2481 6.94048 12.4438 6.92939C12.6015 6.92045 12.7594 6.9115 12.9124 6.8741C13.3226 6.77357 13.6054 6.35887 13.5973 5.94591C13.5492 5.62965 13.3764 5.30082 13.0671 5.17341C12.766 5.03163 12.4393 5.07289 12.1222 5.11293C12.1043 5.11519 12.0865 5.11744 12.0687 5.11965ZM5.40207 7.35094C4.97166 7.42913 4.62224 7.8393 4.65226 8.28228C4.63411 8.75981 5.06277 9.16858 5.52949 9.18603C6.25023 9.36252 6.95427 9.60012 7.65814 9.83766C7.96641 9.9417 8.27465 10.0457 8.58425 10.1446C10.7545 10.9604 12.9631 11.6694 15.1804 12.3452C15.3787 12.4059 15.5937 12.4227 15.7955 12.371C16.2095 12.2436 16.5355 11.8045 16.4461 11.3636C16.3896 11.0089 16.1191 10.6996 15.7728 10.6026C15.3858 10.4798 14.9981 10.3595 14.6104 10.2392C13.6715 9.94786 12.7327 9.65652 11.8045 9.3309C11.2892 9.17093 10.783 8.98446 10.2768 8.79799C9.91916 8.66626 9.56155 8.53453 9.20072 8.41213C8.15908 8.05224 7.11255 7.70421 6.05031 7.41063C6.01783 7.40366 5.98512 7.39608 5.95222 7.38847C5.77119 7.34656 5.58463 7.30338 5.40207 7.35094Z" fill="white"/>
<path fill-rule="evenodd" clip-rule="evenodd" d="M7.83828 2.0209C7.6599 1.99507 7.47768 1.98949 7.30035 2.02544C7.4538 2.21548 7.6331 2.37968 7.81235 2.54384C7.99396 2.71017 8.17552 2.87645 8.33012 3.06953C8.60135 3.36275 8.87887 3.70554 8.87852 4.12653C8.93682 4.68505 8.35002 5.16363 7.81454 5.05542C7.58834 5.00376 7.36737 4.88507 7.23682 4.68784C6.9785 4.24347 6.58788 3.89404 6.19413 3.5715C5.55043 3.83505 4.90674 4.09895 4.26513 4.36739C4.01694 4.47316 3.73698 4.56776 3.46959 4.47421C3.0514 4.37158 2.75224 3.93593 2.80844 3.50936C2.84858 3.18472 3.0678 2.90372 3.35544 2.75606C3.60071 2.6368 3.8538 2.53545 4.10691 2.4341C4.36354 2.33133 4.62018 2.22856 4.86869 2.10712L4.83413 2.10694C4.68273 2.10606 4.53002 2.10518 4.38242 2.14378C3.55337 2.33786 2.81996 2.8154 2.18604 3.37008C1.7661 3.76419 1.38212 4.21834 1.16324 4.75696C1.12079 4.85309 1.07189 4.94619 1.02303 5.03923C0.945728 5.18639 0.868503 5.33342 0.816961 5.49211C0.695588 5.81413 0.641101 6.15263 0.586643 6.49095C0.560283 6.65471 0.533929 6.81843 0.5 6.98022V7.49127C0.729343 8.55072 1.47567 9.38012 2.18359 10.1582C2.51253 10.5009 2.79029 10.8848 3.06812 11.2688C3.2352 11.4998 3.40231 11.7307 3.5806 11.9528C3.61406 11.8727 3.66257 11.7995 3.71099 11.7264C3.78176 11.6196 3.85235 11.513 3.87556 11.3856C3.8609 11.0784 3.73384 10.7893 3.60503 10.5143C3.46016 10.2029 3.49647 9.81018 3.71115 9.53895C3.98343 9.16753 4.55417 9.05897 4.9378 9.32078C5.15947 9.45517 5.30084 9.68417 5.39474 9.91979C5.60628 10.4403 5.74417 10.9908 5.79897 11.5496C6.48767 11.507 7.17739 11.4862 7.86712 11.4654C8.97328 11.432 10.0794 11.3987 11.1814 11.2753C11.7273 11.1772 12.3026 11.6254 12.2827 12.1912C12.3155 12.6737 11.9019 13.1131 11.4257 13.1386C11.0802 13.1579 10.7349 13.1857 10.3896 13.2136C9.69099 13.2699 8.9923 13.3262 8.29173 13.3118C8.55179 13.5683 8.68793 13.9432 8.58739 14.3042C8.47185 14.7939 7.91856 15.0997 7.43893 14.9629C7.99257 15.2076 8.58704 15.3294 9.18501 15.4027H10.3509C11.1671 15.2977 11.9738 15.0959 12.7201 14.7433C13.0212 14.6105 13.3126 14.4547 13.604 14.2989C14.1208 14.0226 14.6376 13.7463 15.2083 13.5984C15.7763 13.4172 16.3494 13.1543 16.7313 12.6789C17.2323 12.1064 17.449 11.344 17.5 10.5984V10.4329C17.4915 10.3647 17.4835 10.2964 17.4754 10.2281C17.4341 9.87757 17.3928 9.52744 17.294 9.18708C17.2141 8.5193 17.0232 7.86024 16.694 7.2717C16.0339 6.20528 15.1469 5.31059 14.2592 4.43581C14.129 4.3293 14.0014 4.21876 13.8738 4.10813C13.5236 3.8047 13.1728 3.50064 12.7648 3.27758C11.9543 2.87662 11.0783 2.65172 10.2057 2.42769C10.0177 2.37944 9.82994 2.33123 9.643 2.28131C9.07977 2.13793 8.50037 2.08332 7.92354 2.02895L7.83828 2.0209ZM8.82651 5.50608C9.91248 5.41741 10.995 5.32107 12.0687 5.11965L12.1222 5.11293C12.4393 5.07289 12.766 5.03163 13.0671 5.17341C13.3764 5.30082 13.5492 5.62965 13.5973 5.94591C13.6054 6.35887 13.3226 6.77357 12.9124 6.8741C12.7594 6.9115 12.6015 6.92045 12.4438 6.92939C12.2481 6.94048 12.0527 6.95156 11.867 7.01688C12.1218 7.5349 11.7109 8.18139 11.1622 8.26657C10.5754 8.37583 10.0238 7.81451 10.0867 7.23086C9.91359 7.26523 9.7392 7.28195 9.56461 7.29868C9.43955 7.31067 9.3144 7.32267 9.18955 7.34117C8.68374 7.41727 8.12347 7.06889 8.07914 6.53585C8.00094 6.06285 8.35142 5.57589 8.82651 5.50608ZM5.78501 3.99842C5.36368 4.05287 5.00797 4.43162 5.00273 4.85959C4.96224 5.27778 5.2586 5.70295 5.66947 5.7986C6.20914 5.98745 6.85039 5.50259 6.81723 4.93115C6.86016 4.38973 6.31979 3.89823 5.78501 3.99842ZM4.65226 8.28228C4.62224 7.8393 4.97166 7.42913 5.40207 7.35094C5.58463 7.30338 5.77119 7.34656 5.95222 7.38847C5.98512 7.39608 6.01783 7.40366 6.05031 7.41063C7.11255 7.70421 8.15908 8.05224 9.20072 8.41213C9.56155 8.53453 9.91916 8.66626 10.2768 8.79799C10.783 8.98446 11.2892 9.17093 11.8045 9.3309C12.7327 9.65652 13.6715 9.94786 14.6104 10.2392C14.9981 10.3595 15.3858 10.4798 15.7728 10.6026C16.1191 10.6996 16.3896 11.0089 16.4461 11.3636C16.5355 11.8045 16.2095 12.2436 15.7955 12.371C15.5937 12.4227 15.3787 12.4059 15.1804 12.3452C12.9631 11.6694 10.7545 10.9604 8.58425 10.1446C8.27465 10.0457 7.96641 9.9417 7.65814 9.83766C6.95427 9.60012 6.25023 9.36252 5.52949 9.18603C5.06277 9.16858 4.63411 8.75981 4.65226 8.28228Z" fill="white"/>
</svg>
