<svg width="18" height="18" fill="none" xmlns="http://www.w3.org/2000/svg"><path d="M4.887 5A4.385 4.385 0 00.5 9.387a4.385 4.385 0 006.782 3.676.425.425 0 00.099-.626l-.18-.22a.423.423 0 00-.555-.09 3.259 3.259 0 01-5.013-2.74 3.259 3.259 0 013.254-3.255c1.772 0 3.255 1.02 3.255 2.83 0 .687-.373 1.411-1.029 1.481-.307-.008-.3-.227-.238-.531l.414-2.142a.425.425 0 00-.417-.506h-.795a.24.24 0 00-.238.212v.002c-.26-.317-.716-.385-1.061-.385-1.32 0-2.438 1.1-2.438 2.68 0 1.154.65 1.872 1.698 1.872.477 0 1.015-.277 1.327-.678.168.603.718.603 1.25.603 1.927 0 2.66-1.267 2.66-2.607C9.274 6.55 7.328 5 4.886 5zm-.383 5.385c-.394 0-.638-.276-.638-.72 0-.797.544-1.287 1.037-1.287.394 0 .63.27.63.72 0 .798-.6 1.287-1.03 1.287zM17.374 7.572l.123-.685a.206.206 0 00-.203-.242h-1.282l.25-1.403A.206.206 0 0016.06 5h-.696a.206.206 0 00-.202.17l-.264 1.475h-1.69l.25-1.403A.206.206 0 0013.256 5h-.696a.206.206 0 00-.203.17l-.263 1.475h-1.356a.206.206 0 00-.202.17l-.123.685a.206.206 0 00.203.242h1.282l-.392 2.193h-1.355a.206.206 0 00-.203.17l-.122.685a.206.206 0 00.202.242h1.282l-.25 1.404a.206.206 0 00.202.241h.697a.206.206 0 00.202-.17l.263-1.475h1.69l-.25 1.404a.206.206 0 00.203.241h.696a.205.205 0 00.202-.17l.264-1.475h1.355a.205.205 0 00.203-.17l.122-.685a.206.206 0 00-.202-.242h-1.282l.391-2.193h1.356a.206.206 0 00.202-.17zm-3.063 2.363h-1.69l.391-2.193h1.69l-.391 2.193z" fill="#fff"/><path fill-rule="evenodd" clip-rule="evenodd" d="M4.887 5A4.385 4.385 0 00.5 9.387a4.385 4.385 0 006.782 3.676.425.425 0 00.099-.626l-.18-.22a.423.423 0 00-.555-.09 3.259 3.259 0 01-5.013-2.74 3.259 3.259 0 013.254-3.255c1.772 0 3.255 1.02 3.255 2.83 0 .687-.373 1.411-1.029 1.481-.307-.008-.3-.227-.238-.531l.414-2.142a.425.425 0 00-.417-.506h-.795a.24.24 0 00-.238.212v.002c-.26-.317-.716-.385-1.061-.385-1.32 0-2.438 1.1-2.438 2.68 0 1.154.65 1.872 1.698 1.872.477 0 1.015-.277 1.327-.678.168.603.718.603 1.25.603 1.927 0 2.66-1.267 2.66-2.607C9.274 6.55 7.328 5 4.886 5zm12.487 2.572l.123-.685a.206.206 0 00-.203-.242h-1.282l.25-1.403A.206.206 0 0016.06 5h-.696a.206.206 0 00-.202.17l-.264 1.475h-1.69l.25-1.403A.206.206 0 0013.256 5h-.696a.206.206 0 00-.203.17l-.263 1.475h-1.356a.206.206 0 00-.202.17l-.123.685a.206.206 0 00.203.242h1.282l-.392 2.193h-1.355a.206.206 0 00-.203.17l-.122.685a.206.206 0 00.202.242h1.282l-.25 1.404a.206.206 0 00.202.241h.697a.206.206 0 00.202-.17l.263-1.475h1.69l-.25 1.404a.206.206 0 00.203.241h.696a.205.205 0 00.202-.17l.264-1.475h1.355a.205.205 0 00.203-.17l.122-.685a.206.206 0 00-.202-.242h-1.282l.391-2.193h1.356a.206.206 0 00.202-.17zm-3.063 2.363h-1.69l.391-2.193h1.69l-.391 2.193zm-10.445-.27c0 .444.244.72.638.72.43 0 1.028-.49 1.028-1.286 0-.452-.235-.721-.63-.721-.492 0-1.037.49-1.037 1.286z" fill="#fff"/></svg>