<svg width="18" height="18" fill="none" xmlns="http://www.w3.org/2000/svg"><path d="M.5 12.81c.798 1.583 2.44 2.79 4.977 2.79 2.589 0 4.522-1.35 4.522-3.802 0-2.284-1.304-3.303-3.627-4.296l-.681-.292c-1.175-.512-1.68-.843-1.68-1.66 0-.663.505-1.169 1.303-1.169.786 0 1.292.331 1.759 1.168L9.2 4.187C8.306 2.603 7.06 2 5.321 2 2.888 2 1.324 3.557 1.324 5.608c0 2.225 1.304 3.283 3.277 4.12l.681.292c1.252.551 1.992.882 1.992 1.817 0 .785-.727 1.35-1.856 1.35-1.343 0-2.108-.708-2.692-1.662L.5 12.81zM17.5 3.383V2.32a.319.319 0 00-.315-.318C16.321 1.99 15.122 2 14.1 3.008c-1.002-.988-2.152-1.011-3.084-1.005a.319.319 0 00-.316.319v1.053c0 .177.145.32.323.319.69-.009 2.227.092 2.227 1.286v2.97h-.956a.319.319 0 00-.319.319V9.33c0 .176.143.319.319.319h.956v2.975c0 1.194-1.49 1.276-2.23 1.274a.319.319 0 00-.32.319v1.062c0 .174.14.316.315.318.864.011 2.063.002 3.085-1.006 1.002.988 2.152 1.011 3.084 1.005a.319.319 0 00.316-.319v-1.053a.319.319 0 00-.323-.319c-.69.009-2.227-.087-2.227-1.281V9.65h.956a.319.319 0 00.319-.319V8.27a.319.319 0 00-.319-.319h-.956V4.98c0-1.194 1.49-1.28 2.23-1.279.177 0 .32-.142.32-.318z" fill="#fff"/><path fill-rule="evenodd" clip-rule="evenodd" d="M5.477 15.6C2.94 15.6 1.298 14.393.5 12.81l2.226-1.285c.584.954 1.35 1.661 2.692 1.661 1.13 0 1.856-.564 1.856-1.35 0-.934-.74-1.265-1.992-1.816l-.681-.292c-1.973-.837-3.277-1.895-3.277-4.12C1.324 3.558 2.888 2 5.321 2c1.739 0 2.985.603 3.88 2.187L7.073 5.549c-.467-.837-.973-1.168-1.759-1.168-.798 0-1.304.506-1.304 1.168 0 .818.506 1.149 1.68 1.661l.682.292C8.695 8.495 10 9.514 10 11.798 10 14.25 8.066 15.6 5.477 15.6zM17.5 3.383V2.32a.319.319 0 00-.315-.318C16.321 1.99 15.122 2 14.1 3.008c-1.002-.988-2.152-1.011-3.084-1.005a.319.319 0 00-.316.319v1.053c0 .177.145.32.323.319.69-.009 2.227.092 2.227 1.286v2.97h-.956a.319.319 0 00-.319.319V9.33c0 .176.143.319.319.319h.956v2.975c0 1.194-1.49 1.276-2.23 1.274a.319.319 0 00-.32.319v1.062c0 .174.14.316.315.318.864.011 2.063.002 3.085-1.006 1.002.988 2.152 1.011 3.084 1.005a.319.319 0 00.316-.319v-1.053a.319.319 0 00-.323-.319c-.69.009-2.227-.087-2.227-1.281V9.65h.956a.319.319 0 00.319-.319V8.27a.319.319 0 00-.319-.319h-.956V4.98c0-1.194 1.49-1.28 2.23-1.279.177 0 .32-.142.32-.318z" fill="#fff"/></svg>