<svg width="18" height="18" viewBox="0 0 18 18" fill="none" xmlns="http://www.w3.org/2000/svg">
<path d="M7.69336 4.29456L5.35487 1.32812L3.82341 2.34123L6.1619 5.1812L7.69336 4.29456Z" fill="white"/>
<path d="M7.51026 13.2442L5.9788 12.4651L3.82341 16.1627L5.35487 17.3281L7.51026 13.2442Z" fill="white"/>
<path d="M0.5 5.96036L1.5 4.29456L4.84438 6.34391L3.95306 7.87537L0.5 5.96036Z" fill="white"/>
<path d="M4.46355 10.9336L1.5 13.2442L0.5 11.8549L3.95306 9.5L4.46355 10.9336Z" fill="white"/>
<path d="M8.75 11.5C4.66779 11.5 4.66545 6.01898 8.75 6.01898V11.5Z" fill="white"/>
<path d="M10.25 1.32812V17.3281L14.25 11.8549H17.2755V5.96036H14.25L10.25 1.32812Z" fill="white"/>
<path fill-rule="evenodd" clip-rule="evenodd" d="M8.75 11.5C4.66779 11.5 4.66545 6.01898 8.75 6.01898V11.5ZM7.69336 4.29456L5.35487 1.32812L3.82341 2.34123L6.1619 5.1812L7.69336 4.29456ZM7.51026 13.2442L5.9788 12.4651L3.82341 16.1627L5.35487 17.3281L7.51026 13.2442ZM4.46355 10.9336L1.5 13.2442L0.5 11.8549L3.95306 9.5L4.46355 10.9336ZM0.5 5.96036L1.5 4.29456L4.84438 6.34391L3.95306 7.87537L0.5 5.96036ZM10.25 1.32812V17.3281L14.25 11.8549H17.2755V5.96036H14.25L10.25 1.32812Z" fill="white"/>
</svg>
