<svg width="18" height="18" viewBox="0 0 18 18" fill="none" xmlns="http://www.w3.org/2000/svg">
<path d="M4 2.7H5.4V4.1H4V7.6C4 7.9713 3.8525 8.3274 3.58995 8.58995C3.3274 8.8525 2.9713 9 2.6 9C2.9713 9 3.3274 9.1475 3.58995 9.41005C3.8525 9.6726 4 10.0287 4 10.4V13.9H5.4V15.3H4C3.251 15.111 2.6 14.67 2.6 13.9V11.1C2.6 10.7287 2.4525 10.3726 2.18995 10.1101C1.9274 9.8475 1.5713 9.7 1.2 9.7H0.5V8.3H1.2C1.5713 8.3 1.9274 8.1525 2.18995 7.88995C2.4525 7.6274 2.6 7.2713 2.6 6.9V4.1C2.6 3.7287 2.7475 3.3726 3.01005 3.11005C3.2726 2.8475 3.6287 2.7 4 2.7ZM13.8 2.7C14.1713 2.7 14.5274 2.8475 14.7899 3.11005C15.0525 3.3726 15.2 3.7287 15.2 4.1V6.9C15.2 7.2713 15.3475 7.6274 15.6101 7.88995C15.8726 8.1525 16.2287 8.3 16.6 8.3H17.3V9.7H16.6C16.2287 9.7 15.8726 9.8475 15.6101 10.1101C15.3475 10.3726 15.2 10.7287 15.2 11.1V13.9C15.2 14.2713 15.0525 14.6274 14.7899 14.89C14.5274 15.1525 14.1713 15.3 13.8 15.3H12.4V13.9H13.8V10.4C13.8 10.0287 13.9475 9.6726 14.2101 9.41005C14.4726 9.1475 14.8287 9 15.2 9C14.8287 9 14.4726 8.8525 14.2101 8.58995C13.9475 8.3274 13.8 7.9713 13.8 7.6V4.1H12.4V2.7H13.8Z" fill="white"/>
<path d="M8.89999 7.36667C8.74543 7.36908 8.59201 7.39364 8.44441 7.43958C8.51268 7.55965 8.54903 7.69522 8.54999 7.83333C8.54999 7.94058 8.52887 8.04678 8.48783 8.14586C8.44679 8.24494 8.38663 8.33497 8.3108 8.4108C8.23496 8.48664 8.14493 8.54679 8.04585 8.58784C7.94677 8.62888 7.84057 8.65 7.73333 8.65C7.59521 8.64904 7.45964 8.61269 7.33958 8.54442C7.24485 8.87295 7.25589 9.22296 7.37113 9.54487C7.48638 9.86678 7.69999 10.1443 7.9817 10.338C8.26342 10.5318 8.59896 10.632 8.94079 10.6245C9.28263 10.6169 9.61342 10.502 9.88633 10.2961C10.1592 10.0901 10.3604 9.80346 10.4614 9.47679C10.5623 9.15011 10.558 8.79996 10.4488 8.47591C10.3397 8.15187 10.1314 7.87037 9.85346 7.67129C9.57548 7.47221 9.24191 7.36564 8.89999 7.36667ZM13.0492 8.78708C12.2584 7.24402 10.6927 6.2 8.89999 6.2C7.10726 6.2 5.54116 7.24475 4.75074 8.78723C4.71738 8.85322 4.7 8.92613 4.7 9.00007C4.7 9.07402 4.71738 9.14693 4.75074 9.21292C5.5416 10.756 7.10726 11.8 8.89999 11.8C10.6927 11.8 12.2588 10.7553 13.0492 9.21277C13.0826 9.14678 13.1 9.07387 13.1 8.99993C13.1 8.92598 13.0826 8.85308 13.0492 8.78708ZM8.89999 11.1C7.46135 11.1 6.14243 10.2979 5.43018 9C6.14243 7.70208 7.4612 6.9 8.89999 6.9C10.3388 6.9 11.6576 7.70208 12.3698 9C11.6577 10.2979 10.3388 11.1 8.89999 11.1Z" fill="white"/>
<path fill-rule="evenodd" clip-rule="evenodd" d="M5.4 2.7H4C3.6287 2.7 3.2726 2.8475 3.01005 3.11005C2.7475 3.3726 2.6 3.7287 2.6 4.1V6.9C2.6 7.2713 2.4525 7.6274 2.18995 7.88995C1.9274 8.1525 1.5713 8.3 1.2 8.3H0.5V9.7H1.2C1.5713 9.7 1.9274 9.8475 2.18995 10.1101C2.4525 10.3726 2.6 10.7287 2.6 11.1V13.9C2.6 14.67 3.251 15.111 4 15.3H5.4V13.9H4V10.4C4 10.0287 3.8525 9.6726 3.58995 9.41005C3.3274 9.1475 2.9713 9 2.6 9C2.9713 9 3.3274 8.8525 3.58995 8.58995C3.8525 8.3274 4 7.9713 4 7.6V4.1H5.4V2.7ZM14.7899 3.11005C14.5274 2.8475 14.1713 2.7 13.8 2.7H12.4V4.1H13.8V7.6C13.8 7.9713 13.9475 8.3274 14.2101 8.58995C14.4726 8.8525 14.8287 9 15.2 9C14.8287 9 14.4726 9.1475 14.2101 9.41005C13.9475 9.6726 13.8 10.0287 13.8 10.4V13.9H12.4V15.3H13.8C14.1713 15.3 14.5274 15.1525 14.7899 14.89C15.0525 14.6274 15.2 14.2713 15.2 13.9V11.1C15.2 10.7287 15.3475 10.3726 15.6101 10.1101C15.8726 9.8475 16.2287 9.7 16.6 9.7H17.3V8.3H16.6C16.2287 8.3 15.8726 8.1525 15.6101 7.88995C15.3475 7.6274 15.2 7.2713 15.2 6.9V4.1C15.2 3.7287 15.0525 3.3726 14.7899 3.11005ZM8.89999 6.2C10.6927 6.2 12.2584 7.24402 13.0492 8.78708C13.0826 8.85308 13.1 8.92598 13.1 8.99993C13.1 9.07387 13.0826 9.14678 13.0492 9.21277C12.2588 10.7553 10.6927 11.8 8.89999 11.8C7.10726 11.8 5.5416 10.756 4.75074 9.21292C4.71738 9.14693 4.7 9.07402 4.7 9.00007C4.7 8.92613 4.71738 8.85322 4.75074 8.78723C5.54116 7.24475 7.10726 6.2 8.89999 6.2ZM5.43018 9C6.14243 10.2979 7.46135 11.1 8.89999 11.1C10.3388 11.1 11.6577 10.2979 12.3698 9C11.6576 7.70208 10.3388 6.9 8.89999 6.9C7.4612 6.9 6.14243 7.70208 5.43018 9ZM8.89999 7.36667C8.74543 7.36908 8.59201 7.39364 8.44441 7.43958C8.51268 7.55965 8.54903 7.69522 8.54999 7.83333C8.54999 7.94058 8.52887 8.04678 8.48783 8.14586C8.44679 8.24494 8.38663 8.33497 8.3108 8.4108C8.23496 8.48664 8.14493 8.54679 8.04585 8.58784C7.94677 8.62888 7.84057 8.65 7.73333 8.65C7.59521 8.64904 7.45964 8.61269 7.33958 8.54442C7.24485 8.87295 7.25589 9.22296 7.37113 9.54487C7.48638 9.86678 7.69999 10.1443 7.9817 10.338C8.26342 10.5318 8.59896 10.632 8.94079 10.6245C9.28263 10.6169 9.61342 10.502 9.88633 10.2961C10.1592 10.0901 10.3604 9.80346 10.4614 9.47679C10.5623 9.15011 10.558 8.79996 10.4488 8.47591C10.3397 8.15187 10.1314 7.87037 9.85346 7.67129C9.57548 7.47221 9.24191 7.36564 8.89999 7.36667Z" fill="white"/>
</svg>
