<svg width="18" height="18" viewBox="0 0 18 18" fill="none" xmlns="http://www.w3.org/2000/svg"><path fill-rule="evenodd" clip-rule="evenodd" d="M13.2667 8.46667C15.3285 8.46667 17 6.7952 17 4.73333C17 2.67147 15.3285 1 13.2667 1H4.73333C2.67147 1 1 2.67147 1 4.73333C1 6.7952 2.67147 8.46667 4.73333 8.46667H13.2667ZM7.34612 7.4H13.2667C14.7394 7.4 15.9333 6.20609 15.9333 4.73333C15.9333 3.26057 14.7394 2.06667 13.2667 2.06667H7.34612C8.03762 2.74428 8.46667 3.6887 8.46667 4.73333C8.46667 5.77797 8.03762 6.72239 7.34612 7.4ZM2.06667 4.73333C2.06667 3.26057 3.26057 2.06667 4.73333 2.06667C6.20609 2.06667 7.4 3.26057 7.4 4.73333C7.4 6.20609 6.20609 7.4 4.73333 7.4C3.26057 7.4 2.06667 6.20609 2.06667 4.73333Z" fill="white"/><path fill-rule="evenodd" clip-rule="evenodd" d="M4.73333 9.53333C2.67147 9.53333 1 11.2048 1 13.2667C1 15.3285 2.67147 17 4.73333 17H13.2667C15.3285 17 17 15.3285 17 13.2667C17 11.2048 15.3285 9.53333 13.2667 9.53333H4.73333ZM10.6539 10.6H4.73333C3.26057 10.6 2.06667 11.7939 2.06667 13.2667C2.06667 14.7394 3.26057 15.9333 4.73333 15.9333H10.6539C9.96238 15.2557 9.53333 14.3113 9.53333 13.2667C9.53333 12.222 9.96238 11.2776 10.6539 10.6ZM15.9333 13.2667C15.9333 14.7394 14.7394 15.9333 13.2667 15.9333C11.7939 15.9333 10.6 14.7394 10.6 13.2667C10.6 11.7939 11.7939 10.6 13.2667 10.6C14.7394 10.6 15.9333 11.7939 15.9333 13.2667Z" fill="white"/><path d="M4.73333 15.9333C3.26057 15.9333 2.06667 14.7394 2.06667 13.2667C2.06667 11.7939 3.26057 10.6 4.73333 10.6H10.6539C9.96238 11.2776 9.53333 12.222 9.53333 13.2667C9.53333 14.3113 9.96238 15.2557 10.6539 15.9333H4.73333Z" fill="white"/><path fill-rule="evenodd" clip-rule="evenodd" d="M13.2667 2.06667C14.7394 2.06667 15.9333 3.26057 15.9333 4.73333C15.9333 6.20609 14.7394 7.4 13.2667 7.4H7.34612C8.03762 6.72239 8.46667 5.77797 8.46667 4.73333C8.46667 3.6887 8.03762 2.74428 7.34612 2.06667H13.2667ZM4.73333 2.06667C3.26057 2.06667 2.06667 3.26057 2.06667 4.73333C2.06667 6.20609 3.26057 7.4 4.73333 7.4C6.20609 7.4 7.4 6.20609 7.4 4.73333C7.4 3.26057 6.20609 2.06667 4.73333 2.06667ZM15.9333 13.2667C15.9333 14.7394 14.7394 15.9333 13.2667 15.9333C11.7939 15.9333 10.6 14.7394 10.6 13.2667C10.6 11.7939 11.7939 10.6 13.2667 10.6C14.7394 10.6 15.9333 11.7939 15.9333 13.2667ZM13.2667 8.46667H4.73333C2.67147 8.46667 1 6.7952 1 4.73333C1 2.67147 2.67147 1 4.73333 1H13.2667C15.3285 1 17 2.67147 17 4.73333C17 6.7952 15.3285 8.46667 13.2667 8.46667ZM4.73333 9.53333H13.2667C15.3285 9.53333 17 11.2048 17 13.2667C17 15.3285 15.3285 17 13.2667 17H4.73333C2.67147 17 1 15.3285 1 13.2667C1 11.2048 2.67147 9.53333 4.73333 9.53333Z" fill="white"/></svg>
