<svg width="18" height="18" viewBox="0 0 18 18" fill="none" xmlns="http://www.w3.org/2000/svg">
<path d="M3.852 3.681L3.555 3.942L3.528 8.703C3.51 11.313 3.528 13.59 3.555 13.761C3.591 13.923 3.708 14.157 3.825 14.274L4.041 14.49H9H13.959L14.175 14.274C14.292 14.157 14.409 13.923 14.445 13.761C14.472 13.59 14.49 11.313 14.472 8.703L14.445 3.942L14.148 3.681L13.86 3.42H9H4.14L3.852 3.681ZM13.32 9V13.41H9H4.68V9V4.59H9H13.32V9Z" fill="black"/>
<path d="M5.58 6.21C5.346 6.444 5.355 6.669 5.589 6.966L5.769 7.2H9H12.231L12.411 6.966C12.645 6.669 12.654 6.444 12.42 6.21C12.249 6.039 12.123 6.03 9 6.03C5.877 6.03 5.751 6.039 5.58 6.21Z" fill="black"/>
<path d="M5.589 8.604C5.355 8.901 5.346 9.12601 5.58 9.36001C5.742 9.52201 5.877 9.54001 6.777 9.54001C7.659 9.54001 7.821 9.51301 7.947 9.37801C8.154 9.15301 8.136 8.766 7.92 8.55C7.758 8.388 7.623 8.37 6.759 8.37C5.805 8.37 5.769 8.379 5.589 8.604Z" fill="black"/>
<path d="M10.89 9.324C10.422 9.783 10.071 10.053 10.035 9.999C9.927 9.819 9.441 9.621 9.27 9.675C8.991 9.765 8.82 9.981 8.82 10.251C8.82 10.422 8.964 10.629 9.342 11.007C10.116 11.772 10.161 11.763 11.502 10.413C12.15 9.756 12.6 9.225 12.6 9.126C12.6 8.793 12.348 8.55 11.997 8.55C11.718 8.55 11.583 8.64 10.89 9.324Z" fill="black"/>
<path d="M5.58 10.98C5.346 11.214 5.355 11.439 5.589 11.736C5.769 11.961 5.805 11.97 6.759 11.97C7.623 11.97 7.758 11.952 7.92 11.79C8.145 11.565 8.154 11.142 7.938 10.953C7.803 10.827 7.578 10.8 6.768 10.8C5.877 10.8 5.742 10.818 5.58 10.98Z" fill="black"/>
</svg>
