<svg xmlns="http://www.w3.org/2000/svg" width="16.948" height="15.864" overflow="visible"><path d="M.5.5l5.052 5.052"/><path fill="#FFF" d="M.146.146a.5.5 0 000 .707l5.052 5.052a.5.5 0 00.707-.707L.854.146a.502.502 0 00-.708 0z"/><path d="M.5 5.552L5.552.5"/><path fill="#FFF" d="M5.198.146L.146 5.198a.5.5 0 00.707.707L5.905.853a.5.5 0 00-.707-.707z"/><g><path d="M5.906 10.958l5.052-5.052"/><path fill="#FFF" d="M10.605 5.553l-5.052 5.051a.5.5 0 00.707.707l5.052-5.051a.5.5 0 00-.707-.707z"/></g><g><path fill="#FFF" d="M16.094 11.147l-3.512 3.51-1.813-1.813a.5.5 0 00-.707.707l2.166 2.166a.5.5 0 00.707 0l3.865-3.863a.5.5 0 00-.706-.707z"/></g></svg>
