<svg width="18" height="18" fill="none" xmlns="http://www.w3.org/2000/svg"><path fill-rule="evenodd" clip-rule="evenodd" d="M1 13.74h2.107c1.159 0 2.293-.024 2.517-.049 1.474-.18 2.399-.833 2.735-1.923.136-.434.146-1.3.024-1.763a3.028 3.028 0 00-.457-.98l-.117-.155.117-.16c.613-.814.73-2.173.272-3.137-.219-.468-.647-.877-1.173-1.13C6.203 4.05 5.77 4 3.083 4H1v9.74zm2.482-7.743l-.01 2.118.01 3.617 1.884-.013.238-.146c.438-.273.594-.784.365-1.227-.21-.414-.56-.55-1.397-.55H3.97V7.944h.623c.667-.005.87-.049 1.148-.258.448-.346.438-1.12-.02-1.447-.277-.2-.544-.243-1.415-.243h-.823z" fill="#fff"/><path d="M15.969 3.305a.889.889 0 00-.817-1.239h-1.598a.889.889 0 00-.798.498l-2.574 5.243c-.12.244-.182.512-.182.783v6.81c0 .49.398.889.889.889h5.222c.491 0 .889-.398.889-.89V9.956a.889.889 0 00-.889-.889h-1.937a.444.444 0 01-.409-.62l2.204-5.14z" fill="#fff"/><path fill-rule="evenodd" clip-rule="evenodd" d="M17 15.4V9.955a.889.889 0 00-.889-.889h-1.937a.444.444 0 01-.409-.62l2.204-5.14a.889.889 0 00-.817-1.24h-1.598a.889.889 0 00-.798.498l-2.574 5.243c-.12.244-.182.512-.182.783v6.81c0 .49.398.889.889.889h5.222c.491 0 .889-.398.889-.89z" fill="#fff"/><path fill-rule="evenodd" clip-rule="evenodd" d="M15.969 3.305a.889.889 0 00-.817-1.239h-1.598a.889.889 0 00-.798.498l-2.574 5.243c-.12.244-.182.512-.182.783v6.81c0 .49.398.889.889.889h5.222c.491 0 .889-.398.889-.89V9.956a.889.889 0 00-.889-.889h-1.937a.444.444 0 01-.409-.62l2.204-5.14z" fill="#fff"/></svg>
