<svg width="18" height="18" viewBox="0 0 18 18" fill="none" xmlns="http://www.w3.org/2000/svg"><path fill-rule="evenodd" clip-rule="evenodd" d="M15.8 7.4C16.4627 7.4 17 7.93725 17 8.6V14.2C17 14.8628 16.4627 15.4 15.8 15.4H10.2C9.53725 15.4 9 14.8628 9 14.2V13.0395L12.4065 9.633C13.0095 9.03 13.1488 8.13975 12.8315 7.4H15.8ZM7.4675 2.95925L11.8408 7.3325C12.3198 7.8115 12.3198 8.58825 11.8408 9.0675L7.46725 13.4408C6.98825 13.9198 6.2115 13.9198 5.7325 13.4408L1.35925 9.06725C0.88025 8.58825 0.88025 7.8115 1.35925 7.3325L5.73275 2.95925C6.21175 2.48025 6.9885 2.48025 7.4675 2.95925ZM7.59961 5.00039C7.59961 5.55268 7.15189 6.00039 6.59961 6.00039C6.04732 6.00039 5.59961 5.55268 5.59961 5.00039C5.59961 4.44811 6.04732 4.00039 6.59961 4.00039C7.15189 4.00039 7.59961 4.44811 7.59961 5.00039ZM3.40042 9.19961C2.84812 9.19961 2.40039 8.75189 2.40039 8.19961C2.40039 7.64732 2.84812 7.19961 3.40042 7.19961C3.95271 7.19961 4.40044 7.64732 4.40044 8.19961C4.40044 8.75189 3.95271 9.19961 3.40042 9.19961ZM7.59961 11.4008C7.59961 11.9531 7.15189 12.4008 6.59961 12.4008C6.04732 12.4008 5.59961 11.9531 5.59961 11.4008C5.59961 10.8485 6.04732 10.4008 6.59961 10.4008C7.15189 10.4008 7.59961 10.8485 7.59961 11.4008ZM9.7998 9.19961C10.3521 9.19961 10.7998 8.75189 10.7998 8.19961C10.7998 7.64732 10.3521 7.19961 9.7998 7.19961C9.24752 7.19961 8.7998 7.64732 8.7998 8.19961C8.7998 8.75189 9.24752 9.19961 9.7998 9.19961ZM7.59961 8.19961C7.59961 8.75189 7.15189 9.19961 6.59961 9.19961C6.04732 9.19961 5.59961 8.75189 5.59961 8.19961C5.59961 7.64732 6.04732 7.19961 6.59961 7.19961C7.15189 7.19961 7.59961 7.64732 7.59961 8.19961ZM13 12.4008C13.5523 12.4008 14 11.9531 14 11.4008C14 10.8485 13.5523 10.4008 13 10.4008C12.4477 10.4008 12 10.8485 12 11.4008C12 11.9531 12.4477 12.4008 13 12.4008Z" fill="white"/><path fill-rule="evenodd" clip-rule="evenodd" d="M15.8 7.4H12.8315C13.1488 8.13975 13.0095 9.03 12.4065 9.633L9 13.0395V14.2C9 14.8628 9.53725 15.4 10.2 15.4H15.8C16.4627 15.4 17 14.8628 17 14.2V8.6C17 7.93725 16.4627 7.4 15.8 7.4ZM11.8408 7.3325L7.4675 2.95925C6.9885 2.48025 6.21175 2.48025 5.73275 2.95925L1.35925 7.3325C0.88025 7.8115 0.88025 8.58825 1.35925 9.06725L5.7325 13.4408C6.2115 13.9198 6.98825 13.9198 7.46725 13.4408L11.8408 9.0675C12.3198 8.58825 12.3198 7.8115 11.8408 7.3325ZM7.59961 5.00039C7.59961 5.55268 7.15189 6.00039 6.59961 6.00039C6.04732 6.00039 5.59961 5.55268 5.59961 5.00039C5.59961 4.44811 6.04732 4.00039 6.59961 4.00039C7.15189 4.00039 7.59961 4.44811 7.59961 5.00039ZM6.59961 9.19961C7.15189 9.19961 7.59961 8.75189 7.59961 8.19961C7.59961 7.64732 7.15189 7.19961 6.59961 7.19961C6.04732 7.19961 5.59961 7.64732 5.59961 8.19961C5.59961 8.75189 6.04732 9.19961 6.59961 9.19961ZM2.40039 8.19961C2.40039 8.75189 2.84812 9.19961 3.40042 9.19961C3.95271 9.19961 4.40044 8.75189 4.40044 8.19961C4.40044 7.64732 3.95271 7.19961 3.40042 7.19961C2.84812 7.19961 2.40039 7.64732 2.40039 8.19961ZM6.59961 12.4008C7.15189 12.4008 7.59961 11.9531 7.59961 11.4008C7.59961 10.8485 7.15189 10.4008 6.59961 10.4008C6.04732 10.4008 5.59961 10.8485 5.59961 11.4008C5.59961 11.9531 6.04732 12.4008 6.59961 12.4008ZM10.7998 8.19961C10.7998 8.75189 10.3521 9.19961 9.7998 9.19961C9.24752 9.19961 8.7998 8.75189 8.7998 8.19961C8.7998 7.64732 9.24752 7.19961 9.7998 7.19961C10.3521 7.19961 10.7998 7.64732 10.7998 8.19961ZM13 12.4008C13.5523 12.4008 14 11.9531 14 11.4008C14 10.8485 13.5523 10.4008 13 10.4008C12.4477 10.4008 12 10.8485 12 11.4008C12 11.9531 12.4477 12.4008 13 12.4008Z" fill="white"/></svg>
