<svg width="18" height="18" viewBox="0 0 18 18" fill="none" xmlns="http://www.w3.org/2000/svg"><path d="M15.8 7.8H12.8315C13.1488 8.53975 13.0095 9.43 12.4065 10.033L9 13.4395V14.6C9 15.2628 9.53725 15.8 10.2 15.8H15.8C16.4628 15.8 17 15.2628 17 14.6V9C17 8.33725 16.4628 7.8 15.8 7.8ZM13 12.4C12.6687 12.4 12.4 12.1313 12.4 11.8C12.4 11.4685 12.6687 11.2 13 11.2C13.3313 11.2 13.6 11.4685 13.6 11.8C13.6 12.1313 13.3313 12.4 13 12.4ZM11.8408 7.7325L7.4675 3.35925C6.9885 2.88025 6.21175 2.88025 5.73275 3.35925L1.35925 7.7325C0.88025 8.2115 0.88025 8.98825 1.35925 9.46725L5.7325 13.8408C6.2115 14.3198 6.98825 14.3198 7.46725 13.8408L11.8408 9.4675C12.3198 8.98825 12.3198 8.2115 11.8408 7.7325ZM3.4 9.2C3.06875 9.2 2.8 8.93125 2.8 8.6C2.8 8.2685 3.06875 8 3.4 8C3.73125 8 4 8.2685 4 8.6C4 8.93125 3.73125 9.2 3.4 9.2ZM6.6 12.4C6.26875 12.4 6 12.1313 6 11.8C6 11.4685 6.26875 11.2 6.6 11.2C6.93125 11.2 7.2 11.4685 7.2 11.8C7.2 12.1313 6.93125 12.4 6.6 12.4ZM6.6 9.2C6.26875 9.2 6 8.93125 6 8.6C6 8.2685 6.26875 8 6.6 8C6.93125 8 7.2 8.2685 7.2 8.6C7.2 8.93125 6.93125 9.2 6.6 9.2ZM6.6 6C6.26875 6 6 5.73125 6 5.4C6 5.0685 6.26875 4.8 6.6 4.8C6.93125 4.8 7.2 5.0685 7.2 5.4C7.2 5.73125 6.93125 6 6.6 6ZM9.8 9.2C9.46875 9.2 9.2 8.93125 9.2 8.6C9.2 8.2685 9.46875 8 9.8 8C10.1313 8 10.4 8.2685 10.4 8.6C10.4 8.93125 10.1313 9.2 9.8 9.2Z" fill="white"/><path fill-rule="evenodd" clip-rule="evenodd" d="M15.8 7.8H12.8315C13.1488 8.53975 13.0095 9.43 12.4065 10.033L9 13.4395V14.6C9 15.2628 9.53725 15.8 10.2 15.8H15.8C16.4628 15.8 17 15.2628 17 14.6V9C17 8.33725 16.4628 7.8 15.8 7.8ZM11.8408 7.7325L7.4675 3.35925C6.9885 2.88025 6.21175 2.88025 5.73275 3.35925L1.35925 7.7325C0.88025 8.2115 0.88025 8.98825 1.35925 9.46725L5.7325 13.8408C6.2115 14.3198 6.98825 14.3198 7.46725 13.8408L11.8408 9.4675C12.3198 8.98825 12.3198 8.2115 11.8408 7.7325ZM6.6 6C6.26875 6 6 5.73125 6 5.4C6 5.0685 6.26875 4.8 6.6 4.8C6.93125 4.8 7.2 5.0685 7.2 5.4C7.2 5.73125 6.93125 6 6.6 6ZM6 8.6C6 8.93125 6.26875 9.2 6.6 9.2C6.93125 9.2 7.2 8.93125 7.2 8.6C7.2 8.2685 6.93125 8 6.6 8C6.26875 8 6 8.2685 6 8.6ZM3.4 9.2C3.06875 9.2 2.8 8.93125 2.8 8.6C2.8 8.2685 3.06875 8 3.4 8C3.73125 8 4 8.2685 4 8.6C4 8.93125 3.73125 9.2 3.4 9.2ZM9.2 8.6C9.2 8.93125 9.46875 9.2 9.8 9.2C10.1313 9.2 10.4 8.93125 10.4 8.6C10.4 8.2685 10.1313 8 9.8 8C9.46875 8 9.2 8.2685 9.2 8.6ZM6.6 12.4C6.26875 12.4 6 12.1313 6 11.8C6 11.4685 6.26875 11.2 6.6 11.2C6.93125 11.2 7.2 11.4685 7.2 11.8C7.2 12.1313 6.93125 12.4 6.6 12.4ZM12.4 11.8C12.4 12.1313 12.6687 12.4 13 12.4C13.3313 12.4 13.6 12.1313 13.6 11.8C13.6 11.4685 13.3313 11.2 13 11.2C12.6687 11.2 12.4 11.4685 12.4 11.8Z" fill="white"/></svg>
