<svg width="18" height="18" viewBox="0 0 18 18" fill="none" xmlns="http://www.w3.org/2000/svg">
<path d="M11.283 2.14799C12.936 3.80999 13.8285 5.56799 14.0925 7.67999C14.187 8.43899 14.184 9.48299 14.0865 10.245C13.89 11.7615 13.371 13.0875 12.4815 14.3325C12.1785 14.7585 11.7405 15.27 11.3055 15.7095L11.0565 15.96H11.817H12.579L12.9165 15.6195C13.2855 15.246 13.4295 15.0885 13.665 14.805C14.139 14.2335 14.5304 13.632 14.8499 12.9825C15.3284 12.0105 15.5714 11.112 15.6929 9.86249C15.7184 9.59699 15.7199 8.30099 15.6929 8.02499C15.5774 6.79049 15.3299 5.87399 14.8499 4.89749C14.5934 4.37699 14.3144 3.92249 13.962 3.45299C13.635 3.01799 13.3995 2.74949 12.9165 2.26049L12.579 1.91999H11.817H11.055L11.283 2.14799Z" fill="white"/>
<path d="M1.85999 5.6475V6.405H2.69248H3.52497V5.6475V4.89H2.69248H1.85999V5.6475Z" fill="white"/>
<path d="M5.90997 8.83498V9.41998H8.04749H10.185V8.83498V8.24998H8.04749H5.90997V8.83498Z" fill="white"/>
<path d="M1.85999 12.0825V12.84H2.69248H3.52497V12.0825V11.325H2.69248H1.85999V12.0825Z" fill="white"/>
</svg>
