<svg width="18" height="18" viewBox="0 0 18 18" fill="none" xmlns="http://www.w3.org/2000/svg">
<path d="M16.7998 10L14.7998 8L9.7998 13L7.2998 10.5L5.2998 12.5L9.7998 17L16.7998 10Z" fill="white"/>
<path fill-rule="evenodd" clip-rule="evenodd" d="M14.7998 8L16.7998 10L9.7998 17L5.2998 12.5L7.2998 10.5L9.7998 13L14.7998 8Z" fill="white"/>
<path d="M3.89853 7.6625C3.81732 5.46875 5.52274 3.6 7.71541 3.51875C8.60872 3.51875 9.50203 3.84375 10.2329 4.49375L12.1008 2.70625C10.9638 1.56875 9.33961 1 7.79662 1C4.22337 1 1.2998 3.925 1.2998 7.5C1.2998 9.46498 2.18304 11.2336 3.57194 12.4281L5.37361 10.6264C4.50432 9.93494 3.94532 8.87963 3.89853 7.6625Z" fill="white"/>
<path d="M7.71541 6.28125H13.8062C13.8948 6.54737 13.9351 6.78928 13.9666 7.03341L10 11L9.8749 10.8749C10.5885 10.3873 11.1142 9.63505 11.2887 8.71875H7.71541V6.28125Z" fill="white"/>
<path fill-rule="evenodd" clip-rule="evenodd" d="M16.7998 10L14.7998 8L9.7998 13L7.2998 10.5L5.2998 12.5L9.7998 17L16.7998 10ZM7.71541 6.28125H13.8062C13.8948 6.54737 13.9351 6.78928 13.9666 7.03341L10 11L9.8749 10.8749C10.5885 10.3873 11.1142 9.63505 11.2887 8.71875H7.71541V6.28125ZM3.89853 7.6625C3.81732 5.46875 5.52274 3.6 7.71541 3.51875C8.60872 3.51875 9.50203 3.84375 10.2329 4.49375L12.1008 2.70625C10.9638 1.56875 9.33961 1 7.79662 1C4.22337 1 1.2998 3.925 1.2998 7.5C1.2998 9.46498 2.18304 11.2336 3.57194 12.4281L5.37361 10.6264C4.50432 9.93494 3.94532 8.87963 3.89853 7.6625Z" fill="white"/>
</svg>
