<svg width="18" height="18" viewBox="0 0 18 18" fill="none" xmlns="http://www.w3.org/2000/svg">
<path d="M16.7998 10L14.7998 8L9.7998 13L7.2998 10.5L5.2998 12.5L9.7998 17L16.7998 10Z" fill="white"/>
<path fill-rule="evenodd" clip-rule="evenodd" d="M7.71541 6.28125H13.8062C13.9168 6.61331 13.9521 6.90767 13.989 7.21569C14.0063 7.35986 14.0239 7.50708 14.0498 7.6625C14.0498 7.69189 14.0496 7.72121 14.0493 7.75047L9.7998 12L9.07947 11.2797C10.1857 10.8849 11.0543 9.94989 11.2887 8.71875H7.71541V6.28125ZM5.29635 13.4965L4.2998 12.5L5.84948 10.9503C4.71213 10.2937 3.95338 9.08932 3.89853 7.6625C3.81732 5.46875 5.52274 3.6 7.71541 3.51875C8.60872 3.51875 9.50203 3.84375 10.2329 4.49375L12.1008 2.70625C10.9638 1.56875 9.33961 1 7.79662 1C4.22337 1 1.2998 3.925 1.2998 7.5C1.2998 10.1898 2.95482 12.5117 5.29635 13.4965Z" fill="white"/>
<path fill-rule="evenodd" clip-rule="evenodd" d="M14.7998 8L16.7998 10L9.7998 17L5.2998 12.5L7.2998 10.5L9.7998 13L14.7998 8ZM13.8062 6.28125H7.71541V8.71875H11.2887C11.0543 9.94989 10.1857 10.8849 9.07947 11.2797L9.7998 12L14.0493 7.75047C14.0496 7.72121 14.0498 7.69189 14.0498 7.6625C14.0239 7.50708 14.0063 7.35986 13.989 7.21569C13.9521 6.90767 13.9168 6.61331 13.8062 6.28125ZM3.89853 7.6625C3.81732 5.46875 5.52274 3.6 7.71541 3.51875C8.60872 3.51875 9.50203 3.84375 10.2329 4.49375L12.1008 2.70625C10.9638 1.56875 9.33961 1 7.79662 1C4.22337 1 1.2998 3.925 1.2998 7.5C1.2998 10.1898 2.95482 12.5117 5.29635 13.4965L4.2998 12.5L5.84948 10.9503C4.71213 10.2937 3.95338 9.08932 3.89853 7.6625Z" fill="white"/>
</svg>
