<svg width="18" height="18" viewBox="0 0 18 18" fill="none" xmlns="http://www.w3.org/2000/svg">
<path d="M9.92188 13.1644L7.34375 10.5812L5.42188 12.5068L9.9375 17L17 9.92368L15.0781 7.98239L9.92188 13.1644Z" fill="white"/>
<path fill-rule="evenodd" clip-rule="evenodd" d="M4.82812 1H8.54688L11.4375 10.2524L9.92188 11.8023L7.39062 9.31311L6.375 10.362H4.82812L3.9375 13.5871H1L4.82812 1ZM8.01562 8.23288L6.57812 3.12916L5.21875 8.23288H8.01562Z" fill="white"/>
<path fill-rule="evenodd" clip-rule="evenodd" d="M8.54688 1H4.82812L1 13.5871H3.9375L4.82812 10.362H6.375L7.39062 9.31311L9.92188 11.8023L11.4375 10.2524L8.54688 1ZM9.92188 13.1644L7.34375 10.5812L5.42188 12.5068L9.9375 17L17 9.92368L15.0781 7.98239L9.92188 13.1644ZM8.01562 8.23288L6.57812 3.12916L5.21875 8.23288H8.01562Z" fill="white"/>
</svg>
