<svg width="18" height="18" fill="none" xmlns="http://www.w3.org/2000/svg"><path fill-rule="evenodd" clip-rule="evenodd" d="M2.84 3.02c-.144.017-.21.12-.233.36-.01.111-.045.287-.078.39-.062.195-.14.633-.17.951-.01.1-.052.32-.093.488-.041.168-.095.49-.12.717-.025.227-.08.529-.12.672a5.417 5.417 0 00-.127.7 6.116 6.116 0 01-.112.671c-.096.364-.113.461-.114.679-.001.128-.03.293-.076.442-.073.232-.13.55-.2 1.138-.02.16-.06.36-.092.447a3.413 3.413 0 00-.104.55c-.049.41-.11.755-.185 1.047a3.012 3.012 0 00-.063.445 2.41 2.41 0 01-.06.41 5.06 5.06 0 00-.184.966 3.54 3.54 0 01-.122.64c-.05.154-.08.319-.085.46v.033c-.003.093-.005.155.023.196.057.083.234.083.767.084h.863l.092-.077c.05-.043.1-.1.109-.13.031-.099.108-.57.108-.667 0-.118.107-.669.17-.88.025-.083.055-.303.065-.488.013-.234.04-.39.087-.518.067-.18.087-.285.184-.99.026-.192.062-.376.08-.41.045-.083.116-.353.116-.44 0-.038.055-.156.122-.262.068-.106.123-.208.123-.226 0-.053.284-.341.413-.419.76-.456 1.895-.359 2.15.184a.836.836 0 00.081.14c.144.173.148.824.01 1.37-.033.126-.08.424-.106.662a4.208 4.208 0 01-.122.671c-.326 1.034-.13 1.948.487 2.273l.275.145c.074.038.23.05.8.058l.71.01.087-.088c.071-.07.096-.132.124-.315.02-.125.05-.29.068-.365.117-.503-.001-.705-.406-.697-.404.008-.5-.196-.35-.752.027-.1.065-.348.083-.55.022-.24.058-.433.107-.564.05-.134.094-.375.137-.747.097-.822.103-.98.047-1.195a1.565 1.565 0 01-.05-.305c0-.16-.076-.433-.146-.528a.576.576 0 01-.08-.17c-.055-.223-.756-.96-.914-.96-.016 0-.125-.05-.24-.11-.429-.221-1.38-.22-1.834.004a1.273 1.273 0 01-.262.106c-.108 0-.51.32-.83.66l-.174.184-.02-.104c-.022-.122-.003-.234.08-.462.033-.09.073-.3.088-.464a7.56 7.56 0 01.2-1.08c.023-.084.056-.314.072-.511.017-.197.046-.387.065-.423.039-.072.181-.871.182-1.02 0-.05.029-.214.063-.365.105-.456.145-.69.166-.946.01-.134.04-.31.066-.39.058-.183.01-.277-.165-.326-.108-.03-1.213-.037-1.434-.01zm9.117.008c-.204.048-.237.118-.29.616-.03.268-.073.51-.109.6-.036.094-.078.328-.106.605a5.27 5.27 0 01-.124.726 4.998 4.998 0 00-.12.656c-.024.21-.079.533-.122.717a7.713 7.713 0 00-.122.717c-.024.21-.065.45-.09.534-.056.186-.124.593-.171 1.021-.02.175-.062.388-.095.473a2.35 2.35 0 00-.091.46c-.031.3-.09.632-.21 1.204a2.97 2.97 0 00-.062.458c-.001.092-.014.216-.03.275-.091.339-.12.47-.164.732-.027.16-.057.379-.067.488-.01.11-.052.329-.092.488-.04.16-.093.475-.12.702-.05.44-.077.58-.135.703-.113.24.05.31.688.298.654-.013.67-.034.728-.97.032-.527.047-.612.1-.57.118.093.228.223.267.316.083.198.484.64.71.783.063.04.133.095.156.122.023.028.053.05.067.05.014 0 .126.05.248.11.27.133.346.157.61.196.113.016.292.06.397.096.217.075.636.054.848-.043.058-.027.196-.058.305-.07.142-.014.278-.058.48-.154.156-.074.298-.135.315-.135.017 0 .063-.032.102-.07a.636.636 0 01.174-.114c.118-.049.843-.764.912-.9.025-.049.09-.158.145-.242.054-.083.114-.2.134-.26a.855.855 0 01.102-.199c.037-.05.092-.18.121-.29.03-.109.087-.285.127-.392.16-.426.172-1.897.02-2.232a3.242 3.242 0 01-.133-.396 1.412 1.412 0 00-.14-.357.408.408 0 01-.071-.127c0-.118-.668-.92-.765-.92a.37.37 0 01-.11-.072 2.34 2.34 0 00-.882-.402 3.212 3.212 0 01-.412-.095c-.234-.08-.625-.075-.882.01-.11.036-.274.075-.366.086a1.52 1.52 0 00-.387.124c-.12.058-.232.105-.25.105a.633.633 0 00-.162.1 3.744 3.744 0 01-.223.156c-.05.03-.174.143-.275.25-.262.276-.32.284-.32.046 0-.125.024-.247.075-.376a2.78 2.78 0 00.123-.572c.07-.543.128-.877.184-1.053.027-.084.057-.297.066-.473.01-.176.035-.355.057-.398.021-.043.06-.192.087-.33.027-.14.054-.263.061-.275.008-.012.035-.227.061-.478.03-.281.072-.52.11-.621.037-.096.075-.3.092-.488.015-.178.05-.43.079-.56.057-.267.044-.305-.133-.379-.108-.045-.742-.052-.92-.01zm2.596 6.283c.406.067 1.036.476 1.186.77.033.064.071.117.085.117.034 0 .067.077.222.52l.133.38v.503c0 .461-.007.524-.08.748-.044.134-.103.34-.131.458a1.218 1.218 0 01-.125.32c-.04.059-.093.155-.119.213-.05.12-.454.55-.643.689a1.59 1.59 0 00-.137.108c-.039.047-.616.27-.777.3-1.18.217-2.044-.272-2.48-1.404l-.145-.379v-.599c0-.4.012-.612.036-.64.019-.023.085-.192.146-.374.062-.182.152-.387.201-.454a.541.541 0 00.09-.16c0-.076.588-.687.662-.687a.277.277 0 00.088-.063c.29-.273 1.207-.46 1.788-.366z" fill="#fff"/><path fill-rule="evenodd" clip-rule="evenodd" d="M2.607 3.38c.023-.24.09-.343.232-.36.221-.028 1.326-.02 1.434.01.175.048.223.142.165.325-.026.08-.055.256-.066.39-.02.256-.061.49-.166.946a2.662 2.662 0 00-.063.366c0 .148-.143.947-.182 1.019-.019.036-.048.226-.065.423-.016.197-.05.427-.073.51a7.56 7.56 0 00-.199 1.08 2.398 2.398 0 01-.088.465c-.083.228-.102.34-.08.462l.02.104.173-.183c.322-.34.723-.66.831-.661.026 0 .144-.048.262-.106.454-.223 1.405-.225 1.834-.003.115.06.224.109.24.109.158 0 .86.737.914.96.013.051.049.127.08.17.07.095.146.369.146.528 0 .065.023.202.05.305.056.216.05.373-.047 1.195-.043.372-.088.613-.137.747-.049.13-.085.324-.107.565a4.285 4.285 0 01-.083.549c-.15.556-.054.76.35.752.405-.008.523.194.406.697-.018.075-.048.24-.068.365-.028.183-.053.244-.124.315l-.088.088-.709-.01c-.57-.008-.726-.02-.8-.059l-.275-.144c-.617-.325-.813-1.24-.487-2.273.044-.138.095-.42.122-.671.026-.238.073-.537.105-.663.14-.545.135-1.196-.009-1.369a.836.836 0 01-.082-.14c-.254-.543-1.39-.64-2.149-.184-.13.078-.413.366-.413.42 0 .017-.055.119-.123.225-.067.106-.122.224-.122.262 0 .087-.071.357-.115.44a2.392 2.392 0 00-.081.41c-.097.705-.117.81-.184.99a1.764 1.764 0 00-.087.518c-.01.185-.04.405-.065.489-.063.21-.17.761-.17.879 0 .096-.077.568-.108.668a.408.408 0 01-.109.13l-.092.077-.768-.001h-.095c-.533 0-.71 0-.767-.084-.028-.041-.026-.103-.024-.196l.001-.034c.004-.14.035-.305.085-.459a3.54 3.54 0 00.122-.64 5.06 5.06 0 01.184-.966c.023-.076.05-.26.06-.41.01-.15.038-.35.063-.445.075-.292.136-.638.185-1.048.026-.216.072-.463.104-.549.031-.086.072-.287.092-.447.07-.588.127-.906.2-1.138.047-.15.075-.314.076-.442.001-.218.018-.315.114-.679.034-.126.085-.428.112-.671.028-.243.085-.558.126-.7.041-.143.096-.445.12-.672.026-.226.08-.549.121-.717.04-.167.082-.387.092-.488.03-.318.11-.756.171-.95.033-.104.068-.28.078-.391zm9.06.264c.053-.498.086-.568.29-.616.178-.042.812-.035.92.01.177.074.19.112.133.38-.028.13-.064.38-.08.559a2.217 2.217 0 01-.09.488c-.039.101-.081.34-.11.621a5.863 5.863 0 01-.062.478 2.553 2.553 0 00-.06.274c-.027.14-.067.288-.088.33-.022.044-.047.223-.057.4-.009.175-.039.388-.066.472-.056.176-.115.51-.184 1.053a2.78 2.78 0 01-.123.572 1.01 1.01 0 00-.075.376c0 .238.058.23.32-.047.1-.106.224-.218.275-.25.05-.03.15-.1.223-.155a.633.633 0 01.163-.1c.016 0 .129-.047.249-.105a1.52 1.52 0 01.387-.124c.092-.011.257-.05.366-.086.258-.085.648-.09.882-.01.091.03.276.073.412.095.254.041.688.24.882.402a.37.37 0 00.11.072c.098 0 .765.802.765.92 0 .016.032.074.071.127.04.054.102.214.14.357.038.143.098.321.132.396.153.335.14 1.806-.02 2.232-.04.107-.096.283-.126.392-.03.11-.084.24-.12.29a.855.855 0 00-.103.2c-.02.059-.08.176-.134.26a3.47 3.47 0 00-.145.242c-.07.135-.794.85-.912.899a.636.636 0 00-.174.113c-.039.04-.085.071-.102.071-.017 0-.159.06-.314.135-.203.096-.34.14-.481.154-.11.012-.247.043-.305.07-.212.097-.63.118-.848.043a2.592 2.592 0 00-.397-.096c-.264-.039-.34-.063-.61-.196a1.86 1.86 0 00-.248-.11c-.014 0-.044-.022-.067-.05a.846.846 0 00-.156-.122c-.226-.142-.627-.585-.71-.783a.944.944 0 00-.268-.317c-.052-.04-.067.044-.1.57-.056.937-.073.958-.727.971-.638.013-.801-.058-.688-.298.058-.123.085-.264.136-.703.026-.227.08-.542.12-.702.04-.16.08-.379.09-.488.01-.11.041-.329.068-.488.043-.262.073-.393.164-.732.016-.06.029-.183.03-.275 0-.092.028-.298.062-.458.12-.572.178-.905.21-1.205a2.35 2.35 0 01.091-.46c.033-.084.075-.297.095-.472.047-.428.115-.835.17-1.02.026-.084.067-.325.09-.535.025-.21.08-.532.123-.717.043-.184.098-.507.121-.717.024-.21.078-.505.12-.656a5.27 5.27 0 00.125-.726c.028-.277.07-.511.106-.604.036-.091.08-.333.108-.6zm4.072 6.437c-.15-.294-.78-.703-1.186-.77-.58-.095-1.498.093-1.788.366a.277.277 0 01-.088.063c-.074 0-.662.611-.662.688 0 .02-.04.09-.09.159-.049.067-.14.272-.2.454-.062.182-.128.35-.147.374-.024.028-.035.24-.036.64v.599l.145.379c.436 1.132 1.3 1.621 2.48 1.403.161-.03.738-.252.777-.3.008-.01.07-.058.137-.107.189-.138.592-.57.643-.688.026-.06.08-.155.119-.214.04-.059.096-.203.125-.32.028-.118.087-.324.131-.458.073-.224.08-.287.08-.748v-.503l-.133-.38c-.155-.443-.188-.52-.222-.52-.014 0-.052-.053-.085-.117z" fill="#fff"/></svg>