<svg width="18" height="18" fill="none" xmlns="http://www.w3.org/2000/svg"><path d="M14.667 13.333v.473c0 .782-.635 1.416-1.417 1.416H1.917A1.417 1.417 0 01.5 13.806V6.25c0-.782.634-1.417 1.417-1.417h.472v6.14a2.364 2.364 0 002.361 2.36h9.917zm2.833-2.36V3.416C17.5 2.634 16.866 2 16.083 2H4.75c-.782 0-1.417.634-1.417 1.417v7.555c0 .783.635 1.417 1.417 1.417h11.333c.783 0 1.417-.634 1.417-1.417zm-9.444-6.14a1.417 1.417 0 11-2.834 0 1.417 1.417 0 012.834 0zm-2.834 4.25l1.639-1.638a.354.354 0 01.5 0L8.529 8.61l4-4a.354.354 0 01.5 0l2.583 2.583V10.5H5.222V9.083z" fill="#fff"/><path fill-rule="evenodd" clip-rule="evenodd" d="M6.639 6.25a1.417 1.417 0 100-2.833 1.417 1.417 0 000 2.833zm8.028 7.556v-.473H4.75a2.364 2.364 0 01-2.361-2.36v-6.14h-.472C1.134 4.833.5 5.468.5 6.25v7.556c0 .782.634 1.416 1.417 1.416H13.25c.782 0 1.417-.634 1.417-1.416zM17.5 3.416v7.556c0 .783-.634 1.417-1.417 1.417H4.75a1.417 1.417 0 01-1.417-1.417V3.417C3.333 2.634 3.968 2 4.75 2h11.333c.783 0 1.417.634 1.417 1.417zM6.86 7.446L5.223 9.083V10.5h10.39V7.194l-2.584-2.582a.354.354 0 00-.5 0l-4 4-1.166-1.167a.354.354 0 00-.501 0z" fill="#fff"/></svg>