<svg width="18" height="18" fill="none" xmlns="http://www.w3.org/2000/svg"><path fill-rule="evenodd" clip-rule="evenodd" d="M15 1H3c-1.103 0-2 .897-2 2v8.999c0 1.103.897 2 2 2h3v2.625c0 .306.35.484.597.303L10.5 14H15c1.103 0 2-.897 2-2V3C17 1.898 16.103 1 15 1zM1 11.625c0-.045.008-.09.024-.132l3.245-8.25A.375.375 0 014.621 3h1.008a.375.375 0 01.352.243l3.246 8.25a.375.375 0 01-.352.507h-.4a.376.376 0 01-.352-.243l-.94-2.382H3.068l-.939 2.382a.375.375 0 01-.352.243h-.401A.375.375 0 011 11.625zm4.126-7.463L3.512 8.25H6.74L5.126 4.162zM15.25 5.25h.375a.375.375 0 01.375.375v6a.375.375 0 01-.375.375h-.375a.375.375 0 01-.375-.375v-.3A2.973 2.973 0 0113 12a3 3 0 01-3-3v-.75a3 3 0 013-3c.713 0 1.36.26 1.875.675v-.3a.375.375 0 01.375-.375zM14.875 9a1.875 1.875 0 01-3.75 0v-.75a1.875 1.875 0 013.75 0V9z" fill="#fff"/><path fill-rule="evenodd" clip-rule="evenodd" d="M5.843 3.066c.063.044.111.105.138.177l3.246 8.25a.375.375 0 01-.352.507h-.4a.376.376 0 01-.352-.243l-.94-2.382H3.068l-.939 2.382a.375.375 0 01-.352.243h-.401a.375.375 0 01-.352-.507l3.245-8.25A.375.375 0 014.621 3h1.008c.077 0 .151.023.214.066zM3.513 8.25l1.613-4.088L6.739 8.25H3.512zm12.112-3h-.375a.375.375 0 00-.375.375v.3A2.973 2.973 0 0013 5.25a3 3 0 00-3 3V9a3 3 0 003 3c.713 0 1.36-.26 1.875-.675v.3a.375.375 0 00.375.375h.375a.375.375 0 00.375-.375v-6a.375.375 0 00-.375-.375zm-1.3 5.076c.353-.352.55-.829.55-1.326v-.75a1.875 1.875 0 00-3.75 0V9a1.875 1.875 0 003.2 1.326zM15 1H3c-1.103 0-2 .897-2 2v8.999c0 1.103.897 2 2 2h3v2.625c0 .306.35.484.597.303L10.5 14H15c1.103 0 2-.897 2-2V3C17 1.898 16.103 1 15 1z" fill="#fff"/></svg>