<svg width="18" height="18" fill="none" xmlns="http://www.w3.org/2000/svg"><path d="M2.286 4.286C1.576 4.286 1 4.862 1 5.57V15c0 .71.576 1.286 1.286 1.286h11.143c.71 0 1.285-.576 1.285-1.286v-.429H2.524V4.286h-.238z" fill="#fff"/><path fill-rule="evenodd" clip-rule="evenodd" d="M15.714 2H4.571c-.71 0-1.285.576-1.285 1.286V14h12.428c.71 0 1.286-.576 1.286-1.286V3.286C17 2.576 16.424 2 15.714 2zM6.393 5.429a.322.322 0 00.321-.322V4.036a.322.322 0 00-.321-.322H5.32A.322.322 0 005 4.036v1.071c0 .177.145.322.321.322h1.072zm8.571 0a.322.322 0 00.322-.322V4.036a.322.322 0 00-.322-.322H8.321A.322.322 0 008 4.036v1.071c0 .177.145.322.321.322h6.643z" fill="#fff"/><path fill-rule="evenodd" clip-rule="evenodd" d="M6.393 5.429a.322.322 0 00.321-.322V4.036a.322.322 0 00-.321-.322H5.32A.322.322 0 005 4.036v1.071c0 .177.145.322.321.322h1.072zm8.893-.322a.322.322 0 01-.322.322H8.321A.322.322 0 018 5.107V4.036c0-.177.145-.322.321-.322h6.643c.177 0 .322.145.322.322v1.071zm-13-.821C1.576 4.286 1 4.862 1 5.57V15c0 .71.576 1.286 1.286 1.286h11.143c.71 0 1.285-.576 1.285-1.286v-.429H2.524V4.286h-.238zM15.714 2H4.571c-.71 0-1.285.576-1.285 1.286V14h12.428c.71 0 1.286-.576 1.286-1.286V3.286C17 2.576 16.424 2 15.714 2z" fill="#fff"/><path fill-rule="evenodd" clip-rule="evenodd" d="M2.286 4.286C1.576 4.286 1 4.862 1 5.57V15c0 .71.576 1.286 1.286 1.286h11.143c.71 0 1.285-.576 1.285-1.286v-.429H2.524V4.286h-.238zM15.714 2H4.571c-.71 0-1.285.576-1.285 1.286V14h12.428c.71 0 1.286-.576 1.286-1.286V3.286C17 2.576 16.424 2 15.714 2zm-9 3.107a.322.322 0 01-.321.322H5.32A.322.322 0 015 5.107V4.036c0-.177.145-.322.321-.322h1.072c.177 0 .321.145.321.322v1.071zm8.25.322a.322.322 0 00.322-.322V4.036a.322.322 0 00-.322-.322H8.321A.322.322 0 008 4.036v1.071c0 .177.145.322.321.322h6.643z" fill="#fff"/></svg>