<svg width="19" height="19" viewBox="0 0 19 19" fill="none" xmlns="http://www.w3.org/2000/svg">
<path fill-rule="evenodd" clip-rule="evenodd" d="M9.03303 0.230056C8.67363 0.241018 8.22495 0.272741 8.2044 0.288695C8.18049 0.307215 7.96724 0.34127 7.77524 0.357271C7.70496 0.363149 7.62932 0.37915 7.60714 0.392912C7.58496 0.406627 7.48699 0.428506 7.3894 0.441568C7.29181 0.45463 7.18941 0.476602 7.16182 0.490411C7.13422 0.504219 7.05017 0.525865 6.97504 0.538507C6.89991 0.55115 6.82908 0.570416 6.81768 0.581379C6.80629 0.592295 6.73905 0.612681 6.66826 0.626676C6.59747 0.640671 6.52276 0.662737 6.50222 0.675799C6.48167 0.688861 6.41864 0.712793 6.36214 0.729027C6.30564 0.745261 6.21804 0.779503 6.16752 0.805114C6.11699 0.830771 6.05816 0.851997 6.03677 0.852277C6.01539 0.852604 5.9643 0.87355 5.92321 0.898834C5.88212 0.924119 5.83683 0.944878 5.82249 0.944925C5.79457 0.945018 5.18414 1.24545 4.96132 1.36879C4.93563 1.38302 4.881 1.41124 4.83991 1.43158C4.79882 1.45187 4.71897 1.4975 4.66247 1.53295C4.60597 1.56841 4.53299 1.61002 4.50031 1.62546C4.46762 1.6409 4.43554 1.66217 4.429 1.67276C4.42247 1.68331 4.38619 1.70892 4.34836 1.72968C4.31054 1.75044 4.24596 1.79242 4.20487 1.82302C4.10383 1.89822 3.93886 2.01373 3.89982 2.03664C3.88231 2.0469 3.85042 2.07209 3.82899 2.09262C3.80755 2.11314 3.76245 2.15093 3.72873 2.17659C3.69502 2.20224 3.65388 2.23872 3.63731 2.25766C3.62073 2.2766 3.58104 2.31019 3.5491 2.3323C3.48154 2.3791 3.23803 2.59798 3.12493 2.71358C3.08202 2.75748 2.96636 2.87503 2.86798 2.97482C2.76964 3.0746 2.63539 3.21922 2.56965 3.29619C2.50395 3.37317 2.44157 3.44561 2.43101 3.45718C2.42046 3.46875 2.39922 3.49726 2.38381 3.52058C2.3684 3.54386 2.33478 3.58692 2.3091 3.61626C2.26236 3.66968 2.21851 3.72318 2.13572 3.82801C2.11139 3.8588 2.05928 3.93306 2.01987 3.99301C1.98051 4.05295 1.93779 4.10604 1.92494 4.11099C1.9121 4.11589 1.89095 4.14663 1.87788 4.17924C1.85164 4.24492 1.74797 4.40274 1.72435 4.41305C1.71604 4.41669 1.68919 4.46497 1.66467 4.52034C1.64016 4.57572 1.61191 4.62106 1.60187 4.62106C1.59188 4.62106 1.56993 4.66239 1.55312 4.71292C1.53631 4.76344 1.51044 4.81485 1.49559 4.82716C1.48074 4.83948 1.46846 4.85903 1.46828 4.87059C1.46809 4.88216 1.44288 4.92858 1.41224 4.97374C1.38161 5.0189 1.35654 5.07035 1.35654 5.08808C1.35654 5.10581 1.34435 5.13039 1.32946 5.14275C1.31461 5.15511 1.29271 5.19603 1.28085 5.23367C1.26894 5.27132 1.24078 5.33155 1.21818 5.36747C1.19563 5.40339 1.16705 5.46749 1.15468 5.50989C1.14235 5.55225 1.11966 5.59736 1.1043 5.61014C1.08894 5.62288 1.07637 5.6448 1.07637 5.65894C1.07637 5.67303 1.05116 5.73792 1.02034 5.80309C0.989524 5.86826 0.964309 5.93152 0.964309 5.94374C0.964309 5.95591 0.952308 5.98451 0.937646 6.00723C0.923031 6.02995 0.897256 6.10314 0.880493 6.16985C0.863683 6.23656 0.838935 6.29963 0.825534 6.31004C0.812133 6.32044 0.790047 6.39181 0.776459 6.46865C0.762871 6.54548 0.740318 6.61695 0.726403 6.6274C0.712488 6.63789 0.688067 6.72187 0.672144 6.814C0.656222 6.90618 0.636097 6.98595 0.627458 6.99132C0.618773 6.99664 0.597481 7.0848 0.58011 7.18725C0.56274 7.28965 0.542195 7.37763 0.534444 7.38276C0.516373 7.39475 0.484481 7.56143 0.468699 7.72648C0.461928 7.79748 0.444558 7.86736 0.430176 7.88173C0.414907 7.89699 0.40342 7.94821 0.40258 8.00456C0.397537 8.35416 0.373583 8.63583 0.347481 8.65193C0.303682 8.67899 0.306484 9.98291 0.350376 10.0177C0.374377 10.0367 0.383295 10.0914 0.392354 10.2751C0.404961 10.5313 0.440122 10.7976 0.461368 10.7976C0.468792 10.7976 0.480465 10.8584 0.487283 10.9328C0.504139 11.117 0.531595 11.2691 0.55018 11.2817C0.558678 11.2874 0.579177 11.3748 0.595753 11.4758C0.61289 11.5801 0.637497 11.6689 0.652673 11.6811C0.667382 11.6929 0.689655 11.7568 0.702169 11.823C0.714683 11.8893 0.735695 11.9523 0.748863 11.963C0.76203 11.9737 0.782996 12.0371 0.79551 12.1038C0.808024 12.1705 0.831044 12.2393 0.846687 12.2568C0.862329 12.2743 0.88703 12.3453 0.901552 12.4146C0.916121 12.484 0.934845 12.5453 0.943203 12.5508C0.951561 12.5564 0.974021 12.6029 0.993072 12.6542C1.01217 12.7056 1.03458 12.7523 1.04294 12.7581C1.05135 12.7639 1.07381 12.8251 1.09295 12.894C1.1121 12.9629 1.13988 13.0337 1.15477 13.0514C1.16962 13.069 1.19292 13.1187 1.20646 13.1618C1.22005 13.2049 1.24209 13.2443 1.25549 13.2495C1.26889 13.2546 1.28949 13.2949 1.30121 13.339C1.31293 13.3832 1.33847 13.4365 1.35794 13.4575C1.37741 13.4786 1.39875 13.5229 1.40543 13.5561C1.41206 13.5894 1.43321 13.6249 1.4524 13.6352C1.47159 13.6455 1.48728 13.6649 1.48728 13.6783C1.48728 13.6917 1.50409 13.718 1.52464 13.7365C1.54518 13.7551 1.56199 13.7849 1.56199 13.8026C1.56199 13.8204 1.59141 13.8777 1.62736 13.9299C1.66332 13.9821 1.69274 14.0377 1.69274 14.0533C1.69274 14.069 1.71165 14.1004 1.73476 14.1232C1.78327 14.171 1.89819 14.343 1.89819 14.3678C1.89819 14.377 1.94021 14.433 1.99158 14.4923C2.04294 14.5515 2.08497 14.6093 2.08497 14.6207C2.08497 14.6322 2.09589 14.6415 2.10925 14.6415C2.12255 14.6415 2.14399 14.6705 2.15678 14.7058C2.16957 14.7412 2.20698 14.7982 2.2399 14.8326C2.34757 14.9451 2.46669 15.0892 2.49223 15.1379C2.506 15.1641 2.55447 15.2222 2.59995 15.267C2.64543 15.3118 2.68265 15.3568 2.68265 15.367C2.68265 15.3771 2.70786 15.4033 2.73868 15.4253C2.7695 15.4472 2.79471 15.4762 2.79471 15.4897C2.79471 15.5032 2.81213 15.5188 2.83347 15.5244C2.85476 15.5299 2.87657 15.5511 2.88189 15.5714C2.88721 15.5918 2.90823 15.6128 2.92859 15.6181C2.94894 15.6234 2.96996 15.6445 2.97528 15.6649C2.98065 15.6853 3.00432 15.7069 3.0279 15.7128C3.05321 15.7191 3.07558 15.7427 3.08249 15.7703C3.08898 15.796 3.1043 15.8171 3.11658 15.8171C3.12881 15.8171 3.16019 15.8381 3.18624 15.8637C3.35682 16.0312 3.43078 16.097 3.44834 16.097C3.45936 16.097 3.49961 16.1267 3.53776 16.1629C3.64618 16.2658 3.67508 16.2903 3.77921 16.3674C3.83272 16.407 3.88082 16.4506 3.88605 16.4642C3.89123 16.4778 3.90762 16.4889 3.92237 16.4889C3.93713 16.4889 3.98378 16.5178 4.02608 16.5531C4.06839 16.5884 4.11961 16.6226 4.13992 16.629C4.16023 16.6354 4.17686 16.6483 4.17686 16.6577C4.17686 16.6671 4.2109 16.6921 4.25245 16.7133C4.29406 16.7345 4.33258 16.7635 4.33809 16.7779C4.3436 16.7921 4.37264 16.8092 4.40272 16.8158C4.43274 16.8224 4.46561 16.8433 4.4757 16.8621C4.48583 16.881 4.52566 16.9067 4.56428 16.9191C4.60289 16.9316 4.64707 16.9532 4.66247 16.9672C4.74181 17.039 4.80947 17.0828 4.8726 17.1034C4.91112 17.116 4.94264 17.1337 4.94264 17.143C4.94264 17.165 5.04359 17.2166 5.08664 17.2166C5.10523 17.2166 5.13067 17.2331 5.14324 17.2532C5.1558 17.2732 5.2003 17.2988 5.24213 17.3101C5.28392 17.3214 5.33365 17.3461 5.35261 17.365C5.37157 17.3839 5.41406 17.4053 5.44703 17.4126C5.47999 17.4199 5.53668 17.4459 5.57296 17.4705C5.60924 17.4951 5.65533 17.5152 5.67541 17.5152C5.69544 17.5152 5.732 17.531 5.75661 17.5504C5.78122 17.5697 5.85551 17.5957 5.92172 17.6082C5.98788 17.6207 6.04639 17.6422 6.05171 17.656C6.05699 17.6698 6.09327 17.687 6.13235 17.6942C6.17144 17.7013 6.22252 17.7221 6.24596 17.7403C6.26935 17.7585 6.32399 17.7788 6.36737 17.7854C6.4615 17.7997 6.54891 17.8314 6.54891 17.8512C6.54891 17.8591 6.60565 17.8758 6.67499 17.8884C6.74433 17.901 6.80946 17.9211 6.81974 17.933C6.84075 17.9574 7.0342 18.0004 7.12306 18.0004C7.15509 18.0004 7.1924 18.0111 7.20594 18.0243C7.23242 18.0501 7.40042 18.0849 7.59019 18.1042C7.65439 18.1107 7.70692 18.1225 7.70692 18.1305C7.70692 18.2155 9.79503 18.2639 10.5086 18.1954C10.9659 18.1516 11.0018 18.1465 11.0315 18.1216C11.0469 18.1086 11.1058 18.0931 11.1623 18.087C11.3194 18.0702 11.3945 18.0532 11.4086 18.0313C11.4156 18.0203 11.4703 18.0055 11.53 17.9985C11.7022 17.9783 11.7865 17.9586 11.8067 17.9341C11.8169 17.9215 11.8842 17.9006 11.9561 17.8876C12.028 17.8745 12.0952 17.8531 12.1055 17.8399C12.1158 17.8268 12.1785 17.8064 12.2449 17.7947C12.3253 17.7805 12.374 17.7614 12.3907 17.7376C12.4045 17.7179 12.432 17.7018 12.4518 17.7018C12.5121 17.7018 12.6646 17.6569 12.6845 17.6334C12.6948 17.6211 12.7379 17.6021 12.7804 17.5911C12.8229 17.58 12.868 17.5584 12.8807 17.5431C12.8935 17.5278 12.9227 17.5152 12.9457 17.5152C12.9687 17.5152 13.0184 17.4942 13.0563 17.4686C13.0941 17.4429 13.1403 17.4219 13.159 17.4219C13.1776 17.4219 13.2234 17.4013 13.2605 17.3761C13.2977 17.3509 13.3598 17.3217 13.3985 17.3113C13.4373 17.3008 13.4796 17.2752 13.4925 17.2544C13.506 17.2326 13.536 17.2166 13.5634 17.2166C13.5896 17.2166 13.6326 17.1948 13.6598 17.1676C13.6868 17.1406 13.7389 17.1103 13.7756 17.1002C13.8352 17.0837 13.8995 17.0424 13.9826 16.9672C13.998 16.9532 14.0422 16.9316 14.0808 16.9191C14.1194 16.9067 14.1591 16.8813 14.169 16.8628C14.1789 16.8443 14.2245 16.8182 14.2702 16.8047C14.3243 16.7887 14.3604 16.765 14.3731 16.7371C14.3839 16.7135 14.4025 16.6942 14.4145 16.6942C14.4265 16.6942 14.454 16.6771 14.4756 16.6563C14.5508 16.5838 14.6459 16.5125 14.683 16.5008C14.7036 16.4943 14.762 16.4512 14.813 16.405C14.8639 16.3588 14.9101 16.3208 14.9157 16.3206C14.9212 16.3204 14.9796 16.27 15.0453 16.2086C15.1111 16.1472 15.176 16.097 15.1896 16.097C15.2033 16.097 15.2282 16.076 15.2451 16.0504C15.2619 16.0247 15.2839 16.0037 15.2939 16.0037C15.3039 16.0037 15.3526 15.9617 15.4021 15.9104C15.4516 15.8591 15.5049 15.8171 15.5205 15.8171C15.5362 15.8171 15.5516 15.7982 15.5549 15.7751C15.5581 15.7521 15.5793 15.7251 15.6017 15.7153C15.6242 15.7054 15.6467 15.6817 15.6517 15.6625C15.6567 15.6434 15.6775 15.6234 15.6978 15.6181C15.7182 15.6128 15.739 15.5925 15.7441 15.5731C15.7492 15.5536 15.7752 15.5294 15.8018 15.5193C15.8286 15.5091 15.8504 15.489 15.8504 15.4745C15.8504 15.4601 15.8714 15.4345 15.8971 15.4177C15.9227 15.4008 15.9437 15.3745 15.9437 15.3591C15.9437 15.3438 15.9641 15.3219 15.989 15.3106C16.0139 15.2992 16.0391 15.2708 16.045 15.2473C16.0509 15.2238 16.0809 15.1808 16.1118 15.1517C16.1426 15.1227 16.1679 15.0883 16.1679 15.0754C16.1679 15.0626 16.1757 15.0521 16.1852 15.0521C16.2055 15.0521 16.2339 15.0239 16.2986 14.9401C16.3243 14.9068 16.3686 14.8561 16.397 14.8274C16.4254 14.7988 16.4612 14.7452 16.4766 14.7084C16.492 14.6716 16.5123 14.6415 16.5217 14.6415C16.5312 14.6415 16.5438 14.6261 16.5498 14.6073C16.5558 14.5884 16.5972 14.5349 16.6418 14.4884C16.6864 14.4419 16.7287 14.381 16.7357 14.3531C16.7427 14.3253 16.7691 14.2818 16.7943 14.2565C16.8196 14.2313 16.8403 14.203 16.8403 14.1936C16.8403 14.1842 16.8603 14.1573 16.8846 14.1338C16.9091 14.1103 16.9343 14.0684 16.9409 14.0406C16.9473 14.0127 16.9735 13.9675 16.999 13.9401C17.0245 13.9125 17.053 13.8623 17.0624 13.8285C17.0794 13.7669 17.0943 13.7437 17.1701 13.661C17.1922 13.6368 17.2206 13.5852 17.2332 13.5462C17.2459 13.5072 17.2714 13.4606 17.2902 13.4427C17.3088 13.4248 17.33 13.3786 17.3371 13.3401C17.3442 13.3016 17.3698 13.2516 17.394 13.2289C17.4208 13.2039 17.438 13.1665 17.438 13.1332C17.438 13.1033 17.4501 13.0686 17.465 13.0562C17.4799 13.0439 17.5023 13.003 17.5147 12.9653C17.5271 12.9277 17.5519 12.8758 17.5699 12.8502C17.5878 12.8245 17.6082 12.7702 17.6153 12.7295C17.6296 12.6457 17.6735 12.5516 17.6982 12.5516C17.7073 12.5516 17.7249 12.4907 17.7373 12.4163C17.7509 12.3345 17.773 12.2685 17.7932 12.2493C17.8245 12.2196 17.8675 12.0709 17.8675 11.9925C17.8675 11.9733 17.8757 11.9548 17.8856 11.9514C17.8955 11.948 17.9157 11.8874 17.9305 11.8167C17.9453 11.7461 17.9673 11.6822 17.9794 11.6747C17.9915 11.6673 18.0152 11.5781 18.0321 11.4766C18.049 11.3751 18.07 11.287 18.0787 11.2807C18.0936 11.2701 18.1116 11.161 18.1408 10.9049C18.1485 10.8374 18.1618 10.7976 18.1766 10.7976C18.2026 10.7976 18.2079 10.7573 18.2404 10.313C18.2539 10.1291 18.2697 10.0192 18.284 10.0104C18.3229 9.98641 18.3282 8.70404 18.2896 8.66541C18.2681 8.644 18.2598 8.6001 18.2598 8.50839C18.2599 8.27868 18.2183 7.87856 18.1922 7.85859C18.1774 7.84726 18.1599 7.76091 18.1478 7.63915C18.1272 7.43338 18.1164 7.38276 18.0929 7.38276C18.0856 7.38276 18.068 7.30196 18.054 7.20325C18.0399 7.10449 18.0183 7.01357 18.006 7.00125C17.9936 6.98889 17.9739 6.91663 17.962 6.84059C17.9502 6.7646 17.9248 6.66864 17.9055 6.6274C17.8863 6.58616 17.8603 6.4999 17.8478 6.43576C17.8353 6.37161 17.8195 6.31913 17.8127 6.31913C17.7971 6.31913 17.7626 6.21911 17.7474 6.12978C17.741 6.09232 17.7205 6.04194 17.7019 6.01782C17.6831 5.99365 17.6623 5.94509 17.6554 5.90982C17.6486 5.8746 17.6315 5.83262 17.6175 5.81652C17.6035 5.80047 17.5814 5.75373 17.5683 5.71268C17.5553 5.67163 17.529 5.61803 17.51 5.59353C17.4909 5.56904 17.4753 5.53322 17.4753 5.51386C17.4753 5.49454 17.4513 5.43371 17.4219 5.37876C17.3925 5.32376 17.359 5.25462 17.3475 5.22514C17.3359 5.19565 17.3181 5.15894 17.3079 5.14355C17.2978 5.12815 17.2764 5.08617 17.2606 5.05024C17.2316 4.98456 17.1552 4.85175 17.1265 4.81699C17.1181 4.80673 17.0901 4.75709 17.0644 4.70662C17.0387 4.65619 17.0023 4.58481 16.9834 4.54801C16.9382 4.45984 16.8536 4.33356 16.8341 4.32511C16.8255 4.32138 16.8026 4.28131 16.7832 4.23601C16.7637 4.19076 16.7174 4.12242 16.6801 4.08416C16.6429 4.04591 16.5995 3.98942 16.5837 3.95863C16.5679 3.92784 16.533 3.87629 16.5062 3.84405C16.4793 3.81182 16.4426 3.76564 16.4245 3.74142C15.9734 3.138 15.1273 2.29764 14.655 1.98406C14.5985 1.94651 14.5352 1.89892 14.5143 1.87826C14.4933 1.85759 14.4675 1.8407 14.4568 1.8407C14.4461 1.8407 14.4179 1.81994 14.394 1.79461C14.3702 1.76924 14.3225 1.73919 14.288 1.72786C14.2536 1.71647 14.2254 1.70019 14.2254 1.69166C14.2254 1.68307 14.1897 1.65779 14.146 1.63544C14.0335 1.57783 13.9347 1.51779 13.8951 1.48308C13.8765 1.46666 13.8402 1.44688 13.8145 1.43909C13.7888 1.4313 13.7385 1.40508 13.7028 1.38092C13.667 1.35671 13.6265 1.33688 13.6128 1.33688C13.5991 1.33688 13.5603 1.31589 13.5267 1.29023C13.493 1.26457 13.4592 1.24358 13.4515 1.24358C13.4437 1.24358 13.302 1.1764 13.1364 1.0943C12.9707 1.01219 12.8265 0.944971 12.8159 0.944925C12.8053 0.944831 12.7714 0.931163 12.7405 0.914462C12.68 0.88176 12.5341 0.824894 12.2829 0.736211C12.1956 0.705376 12.1158 0.673653 12.1055 0.665769C12.0952 0.657839 12.0297 0.640858 11.9598 0.627983C11.8899 0.615061 11.8227 0.594861 11.8103 0.583012C11.7981 0.571163 11.73 0.551756 11.6591 0.53986C11.5882 0.527964 11.5248 0.509491 11.5182 0.498855C11.5116 0.488172 11.4477 0.470958 11.3763 0.460601C11.1115 0.422115 11.0247 0.404294 11.0134 0.386148C11.0071 0.375931 10.9392 0.362822 10.8626 0.357038C10.6643 0.34211 10.445 0.307169 10.4325 0.288508C10.4129 0.259119 9.42862 0.21802 9.03303 0.230056ZM6.5343 5.39154C6.85952 5.55491 7.30092 5.90525 7.8527 6.43795C8.0737 6.65133 8.24087 6.79693 8.30526 6.83205L8.40733 6.88785L9.20113 6.89261C10.2179 6.89876 10.1874 6.89918 10.2751 6.87674C10.4013 6.84446 10.5235 6.74846 10.9014 6.38468C11.9768 5.34951 12.4432 5.10678 12.7588 5.41813C12.9697 5.62624 13.0541 6.58616 12.9464 7.5507C12.8766 8.17484 12.8906 8.2923 13.0804 8.67917C13.1738 8.86946 13.2032 8.95175 13.3107 9.32267C13.3819 9.56856 13.4933 9.64035 13.8036 9.64054C14.2555 9.64082 14.4552 9.78007 14.4556 10.0951C14.4559 10.3425 14.3152 10.4807 14.0251 10.5178C13.4292 10.5942 13.3886 10.6826 13.8453 10.9095C14.2675 11.1194 14.3584 11.2472 14.2728 11.5107C14.1651 11.842 13.9687 11.8835 13.4129 11.6923C12.5761 11.4045 12.5821 11.4044 12.1091 11.7196C11.3028 12.257 10.5445 12.4688 9.4346 12.4666C8.19945 12.4642 7.40677 12.2356 6.52454 11.6275C6.16397 11.379 6.1332 11.3791 5.38133 11.6291C4.66327 11.868 4.52571 11.8603 4.37773 11.5729C4.24564 11.3165 4.3584 11.1148 4.72785 10.9466C4.8203 10.9045 4.92284 10.8578 4.95576 10.8427C5.26791 10.6997 5.17088 10.572 4.70917 10.5182C4.28038 10.4681 4.10742 10.2918 4.1756 9.97414C4.2285 9.72787 4.34061 9.67324 4.82123 9.65981C5.32474 9.64567 5.35723 9.62202 5.4842 9.17754C5.52617 9.03059 5.59463 8.83746 5.63637 8.74835C5.821 8.35402 5.8252 8.31707 5.75679 7.69065C5.68246 7.01002 5.68951 6.13855 5.77253 5.74062C5.862 5.312 6.13077 5.18884 6.5343 5.39154ZM7.49213 8.98655C6.91364 9.084 6.98041 9.9204 7.56717 9.92637C8.09518 9.93178 8.21902 9.13854 7.7108 9.00642C7.5844 8.97353 7.57469 8.97265 7.49213 8.98655ZM10.9987 9.01543C10.5483 9.21099 10.6395 9.8716 11.123 9.9154C11.6242 9.9608 11.8519 9.30457 11.4239 9.04818C11.3089 8.97932 11.1161 8.96444 10.9987 9.01543Z" fill="white"/>
</svg>
