<svg width="18" height="18" viewBox="0 0 18 18" fill="none" xmlns="http://www.w3.org/2000/svg"><path d="M17.4997 9.17129C17.4616 8.14339 16.5987 7.34074 15.5676 7.37564C15.1108 7.3915 14.6762 7.57868 14.3462 7.89276C12.8932 6.90293 11.1864 6.36043 9.43196 6.32236L10.26 2.34083L12.9915 2.91506C13.0677 3.61619 13.6958 4.12379 14.397 4.04765C15.0981 3.97151 15.6057 3.34335 15.5296 2.64222C15.4534 1.94109 14.8253 1.43349 14.1241 1.50963C13.7212 1.55087 13.3596 1.78564 13.1597 2.13462L10.0316 1.50963C9.81901 1.46204 9.60645 1.59529 9.55886 1.81102C9.55886 1.80785 9.55886 1.81419 9.55886 1.81102L8.61662 6.23987C6.84 6.26842 5.11097 6.82044 3.63892 7.81662C2.8902 7.11232 1.71002 7.14721 1.00572 7.8991C0.301414 8.64782 0.336312 9.828 1.0882 10.5323C1.23414 10.6687 1.40228 10.7861 1.58946 10.8686C1.57677 11.0558 1.57677 11.2429 1.58946 11.4301C1.58946 14.2886 4.92062 16.614 9.02905 16.614C13.1375 16.614 16.4686 14.2917 16.4686 11.4301C16.4813 11.2429 16.4813 11.0558 16.4686 10.8686C17.1095 10.5482 17.5124 9.88828 17.4997 9.17129ZM4.73661 10.4498C4.73661 9.74551 5.31084 9.17129 6.01514 9.17129C6.71945 9.17129 7.29367 9.74551 7.29367 10.4498C7.29367 11.1541 6.71945 11.7283 6.01514 11.7283C5.30767 11.722 4.73661 11.1541 4.73661 10.4498ZM12.1508 13.9586C11.2435 14.6407 10.1331 14.9897 8.99732 14.9421C7.86156 14.9897 6.75117 14.6407 5.84383 13.9586C5.72327 13.8127 5.74548 13.5938 5.89142 13.4732C6.01832 13.3685 6.19915 13.3685 6.32922 13.4732C7.09698 14.0348 8.03287 14.3203 8.98463 14.2759C9.93639 14.3266 10.8755 14.0538 11.6527 13.4986C11.7923 13.3622 12.0207 13.3654 12.1572 13.505C12.2936 13.6446 12.2904 13.873 12.1508 14.0094V13.9586ZM11.9224 11.7728C11.2181 11.7728 10.6439 11.1985 10.6439 10.4942C10.6439 9.78993 11.2181 9.2157 11.9224 9.2157C12.6267 9.2157 13.2009 9.78993 13.2009 10.4942C13.2295 11.1985 12.6267 11.7442 11.9224 11.7728C11.9446 11.7728 11.9002 11.7728 11.9224 11.7728Z" fill="white"/><path fill-rule="evenodd" clip-rule="evenodd" d="M15.5676 7.37564C16.5987 7.34074 17.4616 8.14339 17.4997 9.17129C17.5124 9.88828 17.1095 10.5482 16.4686 10.8686C16.4813 11.0558 16.4813 11.2429 16.4686 11.4301C16.4686 14.2917 13.1375 16.614 9.02905 16.614C4.92062 16.614 1.58946 14.2886 1.58946 11.4301C1.57677 11.2429 1.57677 11.0558 1.58946 10.8686C1.40228 10.7861 1.23414 10.6687 1.0882 10.5323C0.336312 9.828 0.301414 8.64782 1.00572 7.8991C1.71002 7.14721 2.8902 7.11232 3.63892 7.81662C5.11097 6.82044 6.84 6.26842 8.61662 6.23987L9.55886 1.81102C9.60645 1.59529 9.81901 1.46204 10.0316 1.50963L13.1597 2.13462C13.3596 1.78564 13.7212 1.55087 14.1241 1.50963C14.8253 1.43349 15.4534 1.94109 15.5296 2.64222C15.6057 3.34335 15.0981 3.97151 14.397 4.04765C13.6958 4.12379 13.0677 3.61619 12.9915 2.91506L10.26 2.34083L9.43196 6.32236C11.1864 6.36043 12.8932 6.90293 14.3462 7.89276C14.6762 7.57868 15.1108 7.3915 15.5676 7.37564ZM6.01514 9.17129C5.31084 9.17129 4.73661 9.74551 4.73661 10.4498C4.73661 11.1541 5.30767 11.722 6.01514 11.7283C6.71945 11.7283 7.29367 11.1541 7.29367 10.4498C7.29367 9.74551 6.71945 9.17129 6.01514 9.17129ZM11.9224 11.7728C11.2181 11.7728 10.6439 11.1985 10.6439 10.4942C10.6439 9.78993 11.2181 9.2157 11.9224 9.2157C12.6267 9.2157 13.2009 9.78993 13.2009 10.4942C13.2295 11.1985 12.6267 11.7442 11.9224 11.7728ZM8.99732 14.9421C10.1331 14.9897 11.2435 14.6407 12.1508 13.9586V14.0094C12.2904 13.873 12.2936 13.6446 12.1572 13.505C12.0207 13.3654 11.7923 13.3622 11.6527 13.4986C10.8755 14.0538 9.93639 14.3266 8.98463 14.2759C8.03287 14.3203 7.09698 14.0348 6.32922 13.4732C6.19915 13.3685 6.01832 13.3685 5.89142 13.4732C5.74548 13.5938 5.72327 13.8127 5.84383 13.9586C6.75117 14.6407 7.86156 14.9897 8.99732 14.9421Z" fill="white"/></svg>
