<svg width="18" height="18" viewBox="0 0 18 18" fill="none" xmlns="http://www.w3.org/2000/svg">
<path d="M15.969 3.30545C16.2204 2.7189 15.7901 2.06641 15.152 2.06641H13.5539C13.2148 2.06641 12.9053 2.25925 12.7559 2.56359L10.182 7.80694C10.0622 8.05076 10 8.31876 10 8.59032V15.3997C10 15.8907 10.398 16.2886 10.8889 16.2886H16.1111C16.602 16.2886 17 15.8907 17 15.3997V9.9553C17 9.46436 16.602 9.06641 16.1111 9.06641H14.174C13.8549 9.06641 13.6398 8.74019 13.7655 8.44685L15.969 3.30545Z" fill="white"/>
<path fill-rule="evenodd" clip-rule="evenodd" d="M17 15.3997V9.9553C17 9.46436 16.602 9.06641 16.1111 9.06641H14.174C13.8549 9.06641 13.6398 8.74019 13.7655 8.44685L15.969 3.30545C16.2204 2.7189 15.7901 2.06641 15.152 2.06641H13.5539C13.2148 2.06641 12.9053 2.25925 12.7559 2.56359L10.182 7.80694C10.0622 8.05076 10 8.31876 10 8.59032V15.3997C10 15.8907 10.398 16.2886 10.8889 16.2886H16.1111C16.602 16.2886 17 15.8907 17 15.3997Z" fill="white"/>
<path fill-rule="evenodd" clip-rule="evenodd" d="M15.969 3.30545C16.2204 2.7189 15.7901 2.06641 15.152 2.06641H13.5539C13.2148 2.06641 12.9053 2.25925 12.7559 2.56359L10.182 7.80694C10.0622 8.05076 10 8.31876 10 8.59032V15.3997C10 15.8907 10.398 16.2886 10.8889 16.2886H16.1111C16.602 16.2886 17 15.8907 17 15.3997V9.9553C17 9.46436 16.602 9.06641 16.1111 9.06641H14.174C13.8549 9.06641 13.6398 8.74019 13.7655 8.44685L15.969 3.30545Z" fill="white"/>
<path d="M6.21931 8.38203L3.26619 7.51797C2.92439 7.41953 2.6865 7.09961 2.6865 6.74414C2.6865 6.29844 3.04744 5.9375 3.49314 5.9375H5.30603C5.63963 5.9375 5.96775 6.03867 6.24119 6.22461C6.40799 6.33672 6.6322 6.30938 6.77439 6.16992L7.72595 5.24023C7.92009 5.05156 7.89275 4.73711 7.67673 4.57031C7.00681 4.04531 6.17009 3.75273 5.3115 3.75V2.4375C5.3115 2.19687 5.11463 2 4.874 2H3.999C3.75838 2 3.5615 2.19687 3.5615 2.4375V3.75H3.49314C1.75135 3.75 0.351348 5.2457 0.512676 7.02031C0.627519 8.28086 1.59002 9.30625 2.80408 9.66172L5.60681 10.482C5.94861 10.5832 6.1865 10.9004 6.1865 11.2559C6.1865 11.7016 5.82556 12.0625 5.37986 12.0625H3.56697C3.23338 12.0625 2.90525 11.9613 2.63182 11.7754C2.46502 11.6633 2.2408 11.6906 2.09861 11.8301L1.14705 12.7598C0.95291 12.9484 0.980254 13.2629 1.19627 13.4297C1.86619 13.9547 2.70291 14.2473 3.5615 14.25V15.5625C3.5615 15.8031 3.75838 16 3.999 16H4.874C5.11463 16 5.3115 15.8031 5.3115 15.5625V14.2445C6.58572 14.2199 7.78064 13.4625 8.20174 12.2566C8.78963 10.5723 7.80252 8.84414 6.21931 8.38203Z" fill="white"/>
</svg>
