<svg width="18" height="18" viewBox="0 0 18 18" fill="none" xmlns="http://www.w3.org/2000/svg">
<path d="M13.9744 1.32812V17.3281L9.98171 11.8549H6.9872V5.96036H9.98171L13.9744 1.32812Z" fill="white"/>
<path fill-rule="evenodd" clip-rule="evenodd" d="M13.9744 1.32812V17.3281L9.98171 11.8549H6.9872V5.96036H9.98171L13.9744 1.32812Z" fill="white"/>
<path d="M0.499522 9C0.499522 10.3807 1.61676 11.5 2.99495 11.5C4.37314 11.5 5.49038 10.3807 5.49038 9C5.49038 7.61929 4.37314 6.5 2.99495 6.5C1.61676 6.5 0.499522 7.61929 0.499522 9Z" fill="white"/>
<path d="M5.49135 12.5H0.500496V17.5H5.49135V12.5Z" fill="white"/>
<path d="M5.48994 5.5L2.99451 0.5L0.499086 5.5H5.48994Z" fill="white"/>
<path d="M14.7398 6.2366C15.0068 5.75285 15.6144 5.5791 16.096 5.84285C17.2705 6.49035 18 7.71785 18 9.04577C18 10.3737 17.2705 11.6008 16.0965 12.2487C15.6157 12.5133 15.0076 12.3408 14.7402 11.8549C14.4745 11.3712 14.6504 10.7633 15.1332 10.4962C15.6697 10.2008 16.0033 9.64452 16.0033 9.04577C16.0033 8.44702 15.6697 7.89077 15.1328 7.59535C14.65 7.32827 14.4741 6.72035 14.7398 6.2366Z" fill="white"/>
</svg>
