<svg width="18" height="19" viewBox="0 0 18 19" fill="none" xmlns="http://www.w3.org/2000/svg">
<path d="M9.70833 6.58854V2.69271H5.45833V6.58854L7.58333 8.71354L9.70833 6.58854ZM4.39583 7.65104H0.5V11.901H4.39583L6.52083 9.77604L4.39583 7.65104ZM5.45833 12.9635V16.8594H9.70833V12.9635L7.58333 10.8385L5.45833 12.9635Z" fill="white"/>
<path fill-rule="evenodd" clip-rule="evenodd" d="M9.70833 2.69271V6.58854L7.58333 8.71354L5.45833 6.58854V2.69271H9.70833ZM0.5 7.65104H4.39583L6.52083 9.77604L4.39583 11.901H0.5V7.65104ZM5.45833 16.8594V12.9635L7.58333 10.8385L9.70833 12.9635V16.8594H5.45833Z" fill="white"/>
<path d="M11.5082 10C11.5082 11.3807 12.6254 12.5 14.0036 12.5C15.3818 12.5 16.499 11.3807 16.499 10C16.499 8.61929 15.3818 7.5 14.0036 7.5C12.6254 7.5 11.5082 8.61929 11.5082 10Z" fill="white"/>
<path d="M16.5 13.5H11.5091V18.5H16.5V13.5Z" fill="white"/>
<path d="M16.4986 6.5L14.0032 1.5L11.5077 6.5H16.4986Z" fill="white"/>
</svg>
