<svg xmlns="http://www.w3.org/2000/svg" width="32" height="32" viewBox="0 0 24 24"><path d="M12 2C6.5 2 2 6.5 2 12s4.5 10 10 10 10-4.5 10-10S17.5 2 12 2zm4.059 14.406c-.192 0-.286-.093-.473-.187-1.41-.848-3.195-1.317-5.078-1.317-1.035 0-2.164.188-3.106.375-.187 0-.375.094-.468.094a.64.64 0 01-.657-.656c0-.38.188-.66.563-.66 1.223-.282 2.445-.47 3.762-.47 2.164 0 4.14.563 5.832 1.505.187.187.378.281.378.656-.19.473-.472.66-.753.66zm1.03-2.633c-.187 0-.374-.093-.562-.187-1.597-1.035-3.855-1.602-6.3-1.602-1.223 0-2.356.192-3.2.38-.187.093-.28.093-.468.093a.744.744 0 01-.754-.754c0-.469.187-.656.656-.848 1.129-.28 2.258-.562 3.86-.562 2.632 0 5.077.656 7.148 1.879.281.187.468.473.468.754-.093.469-.375.847-.847.847zm1.224-3.011c-.188 0-.282-.094-.563-.188-1.883-1.035-4.61-1.691-7.242-1.691-1.317 0-2.73.187-3.953.469-.188 0-.282.093-.563.093-.562.094-.941-.375-.941-.941 0-.563.281-.848.66-.941C7.215 7.188 8.812 7 10.508 7c2.914 0 5.926.656 8.277 1.883.281.187.563.469.563.937-.094.567-.47.942-1.035.942zm0 0" fill="#fff"/></svg>