<svg xmlns="http://www.w3.org/2000/svg" width="18" height="18" viewBox="0 0 18 18" fill="none"><path d="M16.875 13.25H2.70001V3.275C2.70001 2.98494 2.46507 2.75 2.17501 2.75H1.12501C0.834944 2.75 0.600006 2.98494 0.600006 3.275V14.3C0.600006 14.8798 1.07021 15.35 1.65001 15.35H16.875C17.1651 15.35 17.4 15.1151 17.4 14.825V13.775C17.4 13.4849 17.1651 13.25 16.875 13.25ZM15.825 3.8H11.9512C11.2496 3.8 10.8982 4.6482 11.3943 5.14433L12.4575 6.20745L10.05 8.61523L7.64255 6.20778C7.2324 5.79763 6.56762 5.79763 6.15779 6.20778L3.9039 8.46167C3.69882 8.66675 3.69882 8.99914 3.9039 9.20422L4.64612 9.94644C4.85119 10.1515 5.18358 10.1515 5.38866 9.94644L6.90001 8.43477L9.30746 10.8422C9.71762 11.2524 10.3824 11.2524 10.7922 10.8422L13.9422 7.69222L15.0053 8.75534C15.5015 9.25147 16.3497 8.90005 16.3497 8.19852V4.325C16.35 4.03494 16.1151 3.8 15.825 3.8Z" fill="currentColor"/><path fill-rule="evenodd" clip-rule="evenodd" d="M16.875 13.25H2.70001V3.275C2.70001 2.98494 2.46507 2.75 2.17501 2.75H1.12501C0.834944 2.75 0.600006 2.98494 0.600006 3.275V14.3C0.600006 14.8798 1.07021 15.35 1.65001 15.35H16.875C17.1651 15.35 17.4 15.1151 17.4 14.825V13.775C17.4 13.4849 17.1651 13.25 16.875 13.25ZM15.825 3.8H11.9512C11.2496 3.8 10.8982 4.6482 11.3943 5.14433L12.4575 6.20745L10.05 8.61523L7.64255 6.20778C7.2324 5.79763 6.56762 5.79763 6.15779 6.20778L3.9039 8.46167C3.69882 8.66675 3.69882 8.99914 3.9039 9.20422L4.64612 9.94644C4.85119 10.1515 5.18358 10.1515 5.38866 9.94644L6.90001 8.43477L9.30746 10.8422C9.71762 11.2524 10.3824 11.2524 10.7922 10.8422L13.9422 7.69222L15.0053 8.75534C15.5015 9.25147 16.3497 8.90005 16.3497 8.19852V4.325C16.35 4.03494 16.1151 3.8 15.825 3.8Z" fill="currentColor"/></svg>
