<svg width="18" height="18" fill="none" xmlns="http://www.w3.org/2000/svg"><path d="M6.265 7.096C6.265 5.94 5.325 5 4.169 5c-1.157 0-2.097.94-2.097 2.096 0 1.157.94 2.097 2.097 2.097 1.156 0 2.096-.94 2.096-2.097zM7.103 13.385c.407 0 .734-.281.734-.629v-.629c0-1.041-.986-1.886-2.201-1.886h-.164a3.38 3.38 0 01-2.607 0H2.7C1.486 10.24.5 11.086.5 12.127v.63c0 .347.328.628.734.628h5.87z" fill="#fff"/><path fill-rule="evenodd" clip-rule="evenodd" d="M17.363 8.16l.133-.749a.225.225 0 00-.22-.264h-1.4l.273-1.533a.225.225 0 00-.221-.264h-.76a.224.224 0 00-.222.185l-.288 1.612h-1.846l.274-1.533a.225.225 0 00-.221-.264h-.76a.224.224 0 00-.222.185l-.288 1.612h-1.48a.225.225 0 00-.221.185l-.134.749a.225.225 0 00.221.264h1.4l-.428 2.396h-1.48a.225.225 0 00-.221.185l-.134.748v.002c0 .139 0 .204.033.235.03.028.084.028.188.028h1.4l-.273 1.532a.225.225 0 00.221.264h.76a.225.225 0 00.222-.185l.287-1.611h1.847l-.274 1.532a.225.225 0 00.221.264h.76a.224.224 0 00.222-.185l.287-1.611h1.48a.225.225 0 00.222-.186l.134-.748a.225.225 0 00-.221-.264h-1.4l.427-2.396h1.48a.224.224 0 00.222-.185zm-5.193 2.58h1.847l.427-2.395h-1.846l-.428 2.396z" fill="#fff"/><path fill-rule="evenodd" clip-rule="evenodd" d="M6.265 7.096C6.265 5.94 5.325 5 4.169 5c-1.157 0-2.097.94-2.097 2.096 0 1.157.94 2.097 2.097 2.097 1.156 0 2.096-.94 2.096-2.097zm.838 6.29c.407 0 .734-.282.734-.63v-.629c0-1.041-.986-1.886-2.201-1.886h-.164a3.38 3.38 0 01-2.607 0H2.7C1.486 10.24.5 11.086.5 12.127v.63c0 .347.328.628.734.628h5.87zM17.496 7.41l-.133.749a.224.224 0 01-.221.185h-1.48l-.429 2.396h1.4c.14 0 .246.126.222.264l-.134.748a.225.225 0 01-.221.186h-1.48l-.288 1.611a.224.224 0 01-.221.185h-.761a.225.225 0 01-.221-.264l.274-1.532h-1.847l-.287 1.611a.225.225 0 01-.222.185h-.76a.225.225 0 01-.221-.264l.274-1.532h-1.4c-.105 0-.16 0-.189-.028-.033-.03-.033-.096-.033-.235v-.002l.134-.748a.225.225 0 01.221-.185h1.48l.428-2.396h-1.4a.225.225 0 01-.221-.264l.134-.749a.225.225 0 01.22-.185h1.481l.288-1.612a.224.224 0 01.221-.185h.76c.14 0 .246.126.222.264l-.274 1.533h1.846l.288-1.612a.224.224 0 01.221-.185h.76c.14 0 .246.126.222.264l-.274 1.533h1.4c.14 0 .246.126.221.264zm-5.326 3.33h1.847l.427-2.396h-1.846l-.428 2.396z" fill="#fff"/></svg>