<svg width="18" height="18" viewBox="0 0 18 18" fill="none" xmlns="http://www.w3.org/2000/svg"><path d="M13.6776 7.15619H13.6302C12.9998 5.90119 11.7152 5.03074 10.2167 5.03074C10.1626 5.03074 10.1105 5.03795 10.0586 5.04514C10.0243 5.04989 9.99012 5.05462 9.95548 5.05726C9.31273 3.83919 8.04994 3 6.5789 3C5.56253 3 4.58778 3.40392 3.86901 4.12294C3.15024 4.84196 2.74631 5.81719 2.74606 6.83415C2.74606 7.052 2.7754 7.26228 2.81043 7.46971C2.00247 7.81773 1.33924 8.43401 0.932676 9.21452C0.526109 9.99503 0.401099 10.892 0.578743 11.754C0.756387 12.6161 1.22581 13.3904 1.90778 13.9463C2.58976 14.5022 3.44253 14.8057 4.32217 14.8056H13.6776C14.1795 14.8056 14.6766 14.7066 15.1404 14.5144C15.6041 14.3222 16.0255 14.0405 16.3804 13.6853C16.7354 13.3302 17.0169 12.9085 17.209 12.4445C17.4011 11.9805 17.5 11.4831 17.5 10.9809C17.5 10.4786 17.4011 9.98126 17.209 9.51723C17.0169 9.0532 16.7354 8.63157 16.3804 8.27642C16.0255 7.92126 15.6041 7.63954 15.1404 7.44733C14.6766 7.25512 14.1795 7.15619 13.6776 7.15619Z" fill="white"/><path fill-rule="evenodd" clip-rule="evenodd" d="M13.6776 7.15619H13.6302C12.9998 5.90119 11.7152 5.03074 10.2167 5.03074C10.1626 5.03074 10.1105 5.03795 10.0586 5.04514C10.0243 5.04989 9.99012 5.05462 9.95548 5.05726C9.31273 3.83919 8.04994 3 6.5789 3C5.56253 3 4.58778 3.40392 3.86901 4.12294C3.15024 4.84196 2.74631 5.81719 2.74606 6.83415C2.74606 7.052 2.7754 7.26228 2.81043 7.46971C2.00247 7.81773 1.33924 8.43401 0.932676 9.21452C0.526109 9.99503 0.401099 10.892 0.578743 11.754C0.756387 12.6161 1.22581 13.3904 1.90778 13.9463C2.58976 14.5022 3.44253 14.8057 4.32217 14.8056H13.6776C14.1795 14.8056 14.6766 14.7066 15.1404 14.5144C15.6041 14.3222 16.0255 14.0405 16.3804 13.6853C16.7354 13.3302 17.0169 12.9085 17.209 12.4445C17.4011 11.9805 17.5 11.4831 17.5 10.9809C17.5 10.4786 17.4011 9.98126 17.209 9.51723C17.0169 9.0532 16.7354 8.63157 16.3804 8.27642C16.0255 7.92126 15.6041 7.63954 15.1404 7.44733C14.6766 7.25512 14.1795 7.15619 13.6776 7.15619Z" fill="white"/></svg>
