<svg width="24" height="24" viewBox="0 0 24 24" fill="none" xmlns="http://www.w3.org/2000/svg">
<path d="M12 1C9.08262 1 6.28473 2.15893 4.22183 4.22183C2.15893 6.28473 1 9.08262 1 12C1 14.9174 2.15893 17.7153 4.22183 19.7782C6.28473 21.8411 9.08262 23 12 23C14.9174 23 17.7153 21.8411 19.7782 19.7782C21.8411 17.7153 23 14.9174 23 12C23 9.08262 21.8411 6.28473 19.7782 4.22183C17.7153 2.15893 14.9174 1 12 1V1ZM12 2.83333C13.2038 2.83333 14.3958 3.07044 15.5079 3.5311C16.6201 3.99177 17.6306 4.66698 18.4818 5.51819C19.333 6.36939 20.0082 7.37992 20.4689 8.49207C20.9296 9.60422 21.1667 10.7962 21.1667 12C21.1667 14.4312 20.2009 16.7627 18.4818 18.4818C16.7627 20.2009 14.4312 21.1667 12 21.1667C10.7962 21.1667 9.60422 20.9296 8.49207 20.4689C7.37992 20.0082 6.36939 19.333 5.51819 18.4818C3.7991 16.7627 2.83333 14.4312 2.83333 12C2.83333 9.56885 3.7991 7.23727 5.51819 5.51819C7.23727 3.7991 9.56885 2.83333 12 2.83333ZM12.0431 4.67767C11.6058 4.67125 11.1594 4.85367 10.7643 5.22492C10.0008 5.94358 9.987 6.93817 10.7286 7.72742C11.4463 8.49283 12.4391 8.50658 13.2283 7.76408C13.9919 7.04542 14.0075 6.05083 13.265 5.26158C12.9075 4.87842 12.4794 4.68408 12.0431 4.67767ZM7.4185 8.39383C7.13067 8.39475 6.99133 8.49558 6.78783 8.69817C6.11867 9.36825 6.67142 9.954 8.53775 10.5517C10.1208 11.0586 10.1557 11.0907 10.1557 12.0055C10.1557 12.5197 9.73033 14.2183 9.21058 15.7794C8.45158 18.0583 8.32875 18.6944 8.58542 19.0043C8.98783 19.4883 9.47642 19.4965 9.86783 19.0253C10.0337 18.8246 10.4444 17.8474 10.779 16.8528C11.2951 15.3238 11.4812 15.047 11.9908 15.047C12.5023 15.047 12.6958 15.3403 13.2797 16.9968C14.0497 19.1757 14.6244 19.7651 15.3083 19.0813C15.7061 18.6825 15.6676 18.4378 14.7876 15.7959C14.2651 14.2248 13.837 12.5197 13.837 12.0055C13.837 11.0907 13.8737 11.0586 15.4567 10.5517C17.3231 9.954 17.874 9.36917 17.2048 8.69817C16.7987 8.293 16.6484 8.29392 15.0525 8.69542C12.8782 9.24175 11.1163 9.24175 8.942 8.69542C8.1445 8.49375 7.70633 8.39292 7.4185 8.39383Z" fill="black"/>
</svg>
