<svg xmlns="http://www.w3.org/2000/svg" width="24" height="24">
  <path d="M12 0A12 12 0 0 0 0 12a12 12 0 0 0 12 12 12 12 0 0 0 12-12A12 12 0 0 0 12 0zm0 2a10 10 0 0 1 10 10 10 10 0 0 1-10 10A10 10 0 0 1 2 12 10 10 0 0 1 12 2zm.047 2.012c-.477-.007-.964.192-1.395.597-.833.784-.848 1.869-.039 2.73.783.835 1.866.85 2.727.04.833-.784.85-1.869.04-2.73-.39-.418-.857-.63-1.333-.637zM7.002 8.066c-.314.001-.466.111-.688.332-.73.731-.127 1.37 1.909 2.022 1.727.553 1.765.588 1.765 1.586 0 .561-.464 2.414-1.031 4.117-.828 2.486-.962 3.18-.682 3.518.439.528.972.537 1.399.023.181-.219.629-1.285.994-2.37.563-1.668.766-1.97 1.322-1.97.558 0 .769.32 1.406 2.127.84 2.377 1.467 3.02 2.213 2.274.434-.435.392-.702-.568-3.584-.57-1.714-1.037-3.574-1.037-4.135 0-.998.04-1.033 1.767-1.586 2.036-.652 2.637-1.29 1.907-2.022-.443-.442-.607-.441-2.348-.003-2.372.596-4.294.596-6.666 0-.87-.22-1.348-.33-1.662-.329z"/>
</svg>
