<svg width="24" height="24" viewBox="0 0 24 24" fill="none" xmlns="http://www.w3.org/2000/svg">
<path d="M23 12.4444C23 13.7945 21.9056 14.8889 20.5556 14.8889C19.2055 14.8889 18.1111 13.7945 18.1111 12.4444C18.1111 11.0944 19.2055 10 20.5556 10C21.9056 10 23 11.0944 23 12.4444Z" fill="black"/>
<path d="M14.4444 12.4444C14.4444 13.7945 13.35 14.8889 12 14.8889C10.65 14.8889 9.55556 13.7945 9.55556 12.4444C9.55556 11.0944 10.65 10 12 10C13.35 10 14.4444 11.0944 14.4444 12.4444Z" fill="black"/>
<path d="M5.88889 12.4444C5.88889 13.7945 4.79447 14.8889 3.44444 14.8889C2.09441 14.8889 1 13.7945 1 12.4444C1 11.0944 2.09441 10 3.44444 10C4.79447 10 5.88889 11.0944 5.88889 12.4444Z" fill="black"/>
</svg>
