<svg width="24" height="24" viewBox="0 0 24 24" fill="none" xmlns="http://www.w3.org/2000/svg">
<path d="M12 1C5.92556 1 1 5.92556 1 12C1 18.0744 5.92556 23 12 23C13.0144 23 13.8333 22.1811 13.8333 21.1667C13.8333 20.69 13.65 20.2622 13.3567 19.9322C13.0756 19.6144 12.8922 19.1867 12.8922 18.7222C12.8922 17.7078 13.7111 16.8889 14.7256 16.8889H16.8889C20.2622 16.8889 23 14.1511 23 10.7778C23 5.37556 18.0744 1 12 1ZM5.27778 12C4.26333 12 3.44444 11.1811 3.44444 10.1667C3.44444 9.15222 4.26333 8.33333 5.27778 8.33333C6.29222 8.33333 7.11111 9.15222 7.11111 10.1667C7.11111 11.1811 6.29222 12 5.27778 12ZM8.94445 7.11111C7.93 7.11111 7.11111 6.29222 7.11111 5.27778C7.11111 4.26333 7.93 3.44444 8.94445 3.44444C9.95889 3.44444 10.7778 4.26333 10.7778 5.27778C10.7778 6.29222 9.95889 7.11111 8.94445 7.11111ZM15.0556 7.11111C14.0411 7.11111 13.2222 6.29222 13.2222 5.27778C13.2222 4.26333 14.0411 3.44444 15.0556 3.44444C16.07 3.44444 16.8889 4.26333 16.8889 5.27778C16.8889 6.29222 16.07 7.11111 15.0556 7.11111ZM18.7222 12C17.7078 12 16.8889 11.1811 16.8889 10.1667C16.8889 9.15222 17.7078 8.33333 18.7222 8.33333C19.7367 8.33333 20.5556 9.15222 20.5556 10.1667C20.5556 11.1811 19.7367 12 18.7222 12Z" fill="black"/>
</svg>
