<svg version="1.0" xmlns="http://www.w3.org/2000/svg" width="200" height="200" viewBox="0 0 150 150">
  <path d="M59.1 14.5C37 20.7 20.3 37.8 14.5 60c-2.4 9.2-1.7 26.1 1.4 35 6.4 18.2 20.4 32.4 38.4 38.8 9.4 3.4 27.5 4.3 32.9 1.8 4.2-2 6.8-6.3 6.8-11.3 0-4.4-1.3-6.6-8.1-13.9-7.3-7.9-7.7-12.8-1.4-19.1l3.3-3.3h17.8c21-.1 24.9-.7 28.8-5.1 2.8-3.2 2.8-3.3 2.3-12.8-.8-14.7-5.8-26.5-16.2-38-5.1-5.6-17-13.4-24.6-16.1-8.4-3-28.6-3.8-36.8-1.5zm21.5 12.1c8.6 4.1 8.6 17.7 0 21.8-4.3 2-6.9 2-11.2 0-8.5-4.1-8.6-17.6-.2-21.7 4.2-2.1 7.1-2.1 11.4-.1zM52.7 54.4c2.7 2.9 3.3 4.4 3.3 8.1 0 3.7-.6 5.2-3.3 8.1-6.5 7.1-17.2 5-20.6-4-1.3-3.3-1.3-4.4 0-7.9 3.2-9.3 14-11.5 20.6-4.3zm60.4-2.1c4.8 3.2 6.8 9.1 4.8 14.3-1.7 4.5-6.9 8.4-11.1 8.4-10.5 0-16.7-12.2-10.1-20 4.6-5.5 10.8-6.5 16.4-2.7z"/>
</svg>
