<svg version="1.0" xmlns="http://www.w3.org/2000/svg" width="200" height="200" viewBox="0 0 150 150">
  <path d="M16.5 16.3c-2.6 2.6-3.4 4.4-4 8.8-.3 2.9-.5 27.5-.3 54.4.3 44.9.5 49.3 2.1 51.8 3.9 6 4.6 6.2 33.9 6.5l26.8.3V119H25V31h75v19h13V38.2c-.1-14.6-1-18.9-5-22.5l-3-2.7H19.8l-3.3 3.3z"/>
  <path d="M91.5 66.3c-4.4 4.4-4.8 7.9-4.3 38.2.3 26.3.6 27.3 6.5 31.2 2.3 1.5 5.1 1.8 18.8 1.8 13.7 0 16.5-.3 18.8-1.8 5.9-3.9 6.2-4.9 6.5-31.2.5-30.3.1-33.8-4.3-38.2l-3.3-3.3H94.8l-3.3 3.3zM125 97v22h-25V75h25v22z"/>
</svg>
