<svg width="24" height="24" viewBox="0 0 24 24" fill="none" xmlns="http://www.w3.org/2000/svg">
<path d="M10.59 14.41C11 14.8 11 15.44 10.59 15.83C10.2 16.22 9.56002 16.22 9.17002 15.83C8.23339 14.892 7.70732 13.6206 7.70732 12.295C7.70732 10.9694 8.23339 9.69803 9.17002 8.76L12.71 5.22C13.648 4.28338 14.9194 3.75731 16.245 3.75731C17.5706 3.75731 18.842 4.28338 19.78 5.22C20.7166 6.15803 21.2427 7.42942 21.2427 8.755C21.2427 10.0806 20.7166 11.352 19.78 12.29L18.29 13.78C18.3 12.96 18.17 12.14 17.89 11.36L18.36 10.88C18.6404 10.6027 18.8629 10.2725 19.0148 9.90863C19.1667 9.54473 19.2449 9.15433 19.2449 8.76C19.2449 8.36568 19.1667 7.97527 19.0148 7.61137C18.8629 7.24747 18.6404 6.91731 18.36 6.64C18.0827 6.35966 17.7525 6.13711 17.3886 5.98522C17.0247 5.83333 16.6343 5.75512 16.24 5.75512C15.8457 5.75512 15.4553 5.83333 15.0914 5.98522C14.7275 6.13711 14.3973 6.35966 14.12 6.64L10.59 10.17C10.3097 10.4473 10.0871 10.7775 9.93524 11.1414C9.78335 11.5053 9.70514 11.8957 9.70514 12.29C9.70514 12.6843 9.78335 13.0747 9.93524 13.4386C10.0871 13.8025 10.3097 14.1327 10.59 14.41ZM13.41 10.17C13.8 9.78 14.44 9.78 14.83 10.17C15.7666 11.108 16.2927 12.3794 16.2927 13.705C16.2927 15.0306 15.7666 16.302 14.83 17.24L11.29 20.78C10.352 21.7166 9.08059 22.2427 7.75502 22.2427C6.42944 22.2427 5.15804 21.7166 4.22002 20.78C3.28339 19.842 2.75732 18.5706 2.75732 17.245C2.75732 15.9194 3.28339 14.648 4.22002 13.71L5.71002 12.22C5.70002 13.04 5.83002 13.86 6.11002 14.65L5.64002 15.12C5.35968 15.3973 5.13712 15.7275 4.98524 16.0914C4.83335 16.4553 4.75514 16.8457 4.75514 17.24C4.75514 17.6343 4.83335 18.0247 4.98524 18.3886C5.13712 18.7525 5.35968 19.0827 5.64002 19.36C5.91733 19.6403 6.24749 19.8629 6.61139 20.0148C6.97528 20.1667 7.36569 20.2449 7.76002 20.2449C8.15434 20.2449 8.54475 20.1667 8.90865 20.0148C9.27254 19.8629 9.6027 19.6403 9.88002 19.36L13.41 15.83C13.6904 15.5527 13.9129 15.2225 14.0648 14.8586C14.2167 14.4947 14.2949 14.1043 14.2949 13.71C14.2949 13.3157 14.2167 12.9253 14.0648 12.5614C13.9129 12.1975 13.6904 11.8673 13.41 11.59C13.3129 11.499 13.2355 11.389 13.1826 11.2669C13.1296 11.1448 13.1023 11.0131 13.1023 10.88C13.1023 10.7469 13.1296 10.6152 13.1826 10.4931C13.2355 10.371 13.3129 10.261 13.41 10.17Z" fill="black"/>
</svg>
