<svg width="20" height="20" viewBox="0 0 20 20" fill="none" xmlns="http://www.w3.org/2000/svg">
<path d="M12.93 3.25001C12.8835 3.20315 12.8282 3.16595 12.7673 3.14057C12.7064 3.11518 12.641 3.10211 12.575 3.10211C12.509 3.10211 12.4436 3.11518 12.3827 3.14057C12.3218 3.16595 12.2665 3.20315 12.22 3.25001L11.575 3.89801C11.482 3.99152 11.4298 4.11796 11.4296 4.2498C11.4294 4.38165 11.4813 4.50824 11.574 4.60201L16.569 9.64801C16.6618 9.74165 16.7139 9.86816 16.7139 10C16.7139 10.1319 16.6618 10.2584 16.569 10.352L11.574 15.398C11.4812 15.4916 11.4291 15.6182 11.4291 15.75C11.4291 15.8819 11.4812 16.0084 11.574 16.102L12.22 16.751C12.2665 16.7978 12.3219 16.8349 12.3829 16.8602C12.4438 16.8855 12.5092 16.8985 12.5752 16.8984C12.6412 16.8983 12.7065 16.8852 12.7674 16.8597C12.8283 16.8342 12.8836 16.7969 12.93 16.75L19.26 10.352C19.3528 10.2584 19.4049 10.1319 19.4049 10C19.4049 9.86816 19.3528 9.74165 19.26 9.64801L12.93 3.25001ZM8.42599 4.60201C8.51881 4.50837 8.57089 4.38186 8.57089 4.25001C8.57089 4.11816 8.51881 3.99165 8.42599 3.89801L7.77999 3.25001C7.73345 3.20321 7.67809 3.16609 7.61713 3.14079C7.55616 3.1155 7.49079 3.10252 7.42478 3.10261C7.35878 3.1027 7.29344 3.11587 7.23255 3.14134C7.17166 3.16681 7.11641 3.20408 7.06999 3.25101L0.739993 9.64801C0.647171 9.74165 0.595093 9.86816 0.595093 10C0.595093 10.1319 0.647171 10.2584 0.739993 10.352L7.06999 16.75C7.11647 16.7969 7.17177 16.8341 7.2327 16.8595C7.29363 16.8848 7.35899 16.8979 7.42499 16.8979C7.491 16.8979 7.55635 16.8848 7.61728 16.8595C7.67821 16.8341 7.73351 16.7969 7.77999 16.75L8.42499 16.102C8.51795 16.0085 8.57021 15.8821 8.57039 15.7502C8.57058 15.6184 8.51868 15.4918 8.42599 15.398L3.43199 10.352C3.33917 10.2584 3.28709 10.1319 3.28709 10C3.28709 9.86816 3.33917 9.74165 3.43199 9.64801L8.42599 4.60201Z" fill="black"/>
</svg>
