<svg width="24" height="24" viewBox="0 0 24 24" fill="none" xmlns="http://www.w3.org/2000/svg">
<path d="M21.0458 8.89733C23.0351 13.1062 21.1987 18.1569 16.8378 20.1462C12.6298 22.0596 7.58 20.2231 5.66756 16.0142C5.2869 15.1673 5.05391 14.2615 4.97867 13.336H3.29556C3.07288 13.3341 2.85984 13.2449 2.70238 13.0874C2.54492 12.9299 2.45564 12.7169 2.45378 12.4942C2.45564 12.2715 2.54492 12.0585 2.70238 11.9011C2.85984 11.7436 3.07288 11.6543 3.29556 11.6524H5.744C5.9666 11.6505 6.17952 11.5611 6.33689 11.4037C6.49426 11.2462 6.58348 11.0333 6.58533 10.8107C6.58348 10.5881 6.49426 10.3751 6.33689 10.2176C6.17952 10.0602 5.9666 9.97086 5.744 9.96889H1.84178C1.6191 9.96703 1.40607 9.87775 1.2486 9.72029C1.09114 9.56282 1.00186 9.34979 1 9.12711C1.00186 8.90443 1.09114 8.6914 1.2486 8.53394C1.40607 8.37647 1.6191 8.28719 1.84178 8.28533H7.27422C7.49682 8.28336 7.70974 8.19403 7.86711 8.03657C8.02448 7.87912 8.1137 7.66616 8.11556 7.44356C8.1137 7.22095 8.02448 7.00799 7.86711 6.85054C7.70974 6.69309 7.49682 6.60375 7.27422 6.60178H5.05511C4.36667 6.60178 3.75467 6.06622 3.75467 5.30089C3.75467 4.612 4.29022 4 5.05511 4H13.7009C16.7613 4.15289 19.6689 5.91244 21.0458 8.89733ZM11.3764 8.05333C8.95733 9.16445 7.89645 12.0267 9.00756 14.4467C10.1187 16.8662 12.98 17.9271 15.3991 16.816C17.8187 15.7049 18.8791 12.8427 17.7684 10.4231C16.6573 8.00311 13.796 6.94222 11.3764 8.05333ZM15.2311 9.66267L16.7613 12.2644C16.8378 12.4178 16.8378 12.4942 16.7613 12.6471L15.2311 15.2489C15.1547 15.4022 15.0013 15.4022 14.9249 15.4022H11.9409C11.788 15.4022 11.7116 15.3253 11.6351 15.2489L10.1049 12.6471C10.0284 12.4942 10.0284 12.4173 10.1049 12.2649L11.6351 9.66267C11.7116 9.50978 11.8649 9.50978 11.9409 9.50978H14.9249C15.0782 9.43333 15.1547 9.50978 15.2311 9.66267Z" fill="black"/>
</svg>
