<svg width="54" height="39" fill="none" xmlns="http://www.w3.org/2000/svg">
  <path d="M4.93 11.766a1.91 1.91 0 0 1-1.894 1.894H2.003a1.91 1.91 0 0 1-1.894-1.894 1.91 1.91 0 0 1 1.894-1.894h1.033a1.91 1.91 0 0 1 1.893 1.894Zm46.651-.517c4.476 9.47.344 20.834-9.468 25.31-9.468 4.305-20.83.173-25.133-9.297a18.321 18.321 0 0 1-1.55-6.026h-3.787a1.91 1.91 0 0 1-1.894-1.894 1.91 1.91 0 0 1 1.894-1.894h5.509a1.91 1.91 0 0 0 1.893-1.894 1.91 1.91 0 0 0-1.893-1.894h-8.78a1.91 1.91 0 0 1-1.894-1.894 1.91 1.91 0 0 1 1.894-1.894h12.223a1.91 1.91 0 0 0 1.893-1.894 1.91 1.91 0 0 0-1.893-1.894h-4.993c-1.549 0-2.926-1.205-2.926-2.927 0-1.55 1.205-2.927 2.926-2.927h19.453c6.886.344 13.428 4.304 16.526 11.02ZM29.825 9.35c-5.443 2.5-7.83 8.94-5.33 14.385 2.5 5.444 8.938 7.831 14.381 5.331 5.444-2.5 7.83-8.94 5.331-14.384-2.5-5.445-8.938-7.832-14.382-5.332Zm8.673 3.621 3.443 5.854c.172.345.172.517 0 .861l-3.443 5.854c-.172.345-.517.345-.689.345h-6.714c-.344 0-.516-.173-.688-.345l-3.443-5.854c-.172-.344-.172-.517 0-.86l3.443-5.855c.172-.344.517-.344.688-.344h6.714c.345-.172.517 0 .689.344Z" fill="#99AAB5"/>
</svg>
