<svg xmlns="http://www.w3.org/2000/svg" width="24" height="24" fill="none">
  <path fill="#000" d="M2.143 9.127a.849.849 0 0 1-.842.842H.84A.849.849 0 0 1 0 9.127a.849.849 0 0 1 .842-.842H1.3a.849.849 0 0 1 .842.842Zm20.733-.23c1.99 4.21.153 9.26-4.208 11.25-4.208 1.913-9.257.076-11.17-4.133a8.142 8.142 0 0 1-.689-2.678H5.126a.849.849 0 0 1-.842-.842.849.849 0 0 1 .842-.842h2.449a.849.849 0 0 0 .841-.841.85.85 0 0 0-.841-.842H3.672a.849.849 0 0 1-.841-.842.849.849 0 0 1 .841-.842h5.433a.849.849 0 0 0 .841-.841.849.849 0 0 0-.841-.842h-2.22a1.29 1.29 0 0 1-1.3-1.301c0-.689.536-1.301 1.3-1.301h8.647c3.06.153 5.968 1.912 7.344 4.897Zm-9.669-.844a4.822 4.822 0 0 0 4.023 8.763 4.821 4.821 0 0 0-4.023-8.763Zm3.855 1.61 1.53 2.601c.076.154.076.23 0 .383l-1.53 2.602c-.077.153-.23.153-.306.153h-2.984c-.153 0-.23-.077-.306-.153l-1.53-2.602c-.077-.153-.077-.23 0-.382l1.53-2.602c.076-.153.23-.153.306-.153h2.984c.153-.077.23 0 .306.153Z"/>
</svg>
