<svg xmlns="http://www.w3.org/2000/svg" viewBox="0 0 24 24">
  <path fill="B9BBBE" d="M18.668 11.996c.931 1.225 1.705 2.437 2.274 3.574 1.644 3.29 1.07 4.899.3 5.67-.347.345-.982.758-2.047.758-1.83 0-4.447-1.243-7.195-3.33-2.748 2.087-5.365 3.33-7.194 3.33-1.065 0-1.701-.413-2.047-.758-.771-.772-1.345-2.38.3-5.67.569-1.137 1.344-2.348 2.273-3.574C2.516 8.283 1.002 4.517 2.76 2.76 3.106 2.413 3.741 2 4.806 2 6.636 2 9.253 3.243 12 5.33 14.75 3.242 17.366 2 19.195 2c1.065 0 1.7.412 2.047.759 1.757 1.757.243 5.523-2.574 9.237ZM19.82 4.18c-.14-.14-.417-.17-.625-.17-1.147 0-3.202.91-5.574 2.638a35.985 35.985 0 0 1 3.745 3.747c2.386-3.263 2.988-5.68 2.454-6.215Zm-5.688 9.952a35.024 35.024 0 0 0 1.96-2.13 34.755 34.755 0 0 0-1.96-2.136A34.058 34.058 0 0 0 12 7.922c-.7.591-1.412 1.225-2.132 1.944a34.752 34.752 0 0 0-1.96 2.136 35.386 35.386 0 0 0 1.96 2.13c.72.72 1.432 1.354 2.132 1.943.701-.59 1.413-1.224 2.133-1.943ZM4.806 4.01c-.207 0-.485.029-.625.17-.534.533.069 2.95 2.455 6.213 1.2-1.39 2.421-2.6 3.744-3.747C8.006 4.92 5.953 4.011 4.806 4.011ZM4.18 19.818c.14.14.418.17.626.17 1.147 0 3.201-.91 5.574-2.637a35.888 35.888 0 0 1-3.739-3.743c-.72.985-1.33 1.952-1.784 2.86-1.062 2.123-.907 3.12-.677 3.35Zm15.014.17c.208 0 .486-.03.625-.17.23-.23.385-1.226-.676-3.35-.455-.909-1.064-1.876-1.785-2.86a35.89 35.89 0 0 1-3.738 3.743c2.373 1.727 4.427 2.636 5.574 2.636Zm-5.183-7.99a2.01 2.01 0 1 1-4.021 0 2.01 2.01 0 0 1 4.02 0Z"/>
</svg>
