<svg width="24" height="24" viewBox="0 0 24 24" fill="none" xmlns="http://www.w3.org/2000/svg">
<path d="M5.665 5H18.335C19.0931 5.00004 19.823 5.28705 20.3781 5.80335C20.9331 6.31964 21.2722 7.02692 21.327 7.783L21.993 16.977C22.0118 17.2355 21.9772 17.4952 21.8912 17.7397C21.8052 17.9842 21.6697 18.2084 21.4932 18.3982C21.3167 18.5881 21.1029 18.7395 20.8653 18.843C20.6276 18.9466 20.3712 19 20.112 19C19.5323 19 18.9691 18.8066 18.5116 18.4505C18.0541 18.0944 17.7284 17.596 17.586 17.034L17.07 15H6.93L6.414 17.034C6.27162 17.596 5.94591 18.0944 5.48841 18.4505C5.03091 18.8066 4.46774 19 3.888 19C3.62878 19 3.37235 18.9466 3.13471 18.843C2.89707 18.7395 2.68333 18.5881 2.50682 18.3982C2.33031 18.2084 2.19483 17.9842 2.10883 17.7397C2.02283 17.4952 1.98817 17.2355 2.007 16.977L2.673 7.783C2.72783 7.02692 3.06686 6.31964 3.62193 5.80335C4.17699 5.28705 4.90694 5.00004 5.665 5ZM14.5 10C14.8978 10 15.2794 9.84196 15.5607 9.56066C15.842 9.27936 16 8.89782 16 8.5C16 8.10218 15.842 7.72064 15.5607 7.43934C15.2794 7.15804 14.8978 7 14.5 7C14.1022 7 13.7206 7.15804 13.4393 7.43934C13.158 7.72064 13 8.10218 13 8.5C13 8.89782 13.158 9.27936 13.4393 9.56066C13.7206 9.84196 14.1022 10 14.5 10ZM18.5 13C18.8978 13 19.2794 12.842 19.5607 12.5607C19.842 12.2794 20 11.8978 20 11.5C20 11.1022 19.842 10.7206 19.5607 10.4393C19.2794 10.158 18.8978 10 18.5 10C18.1022 10 17.7206 10.158 17.4393 10.4393C17.158 10.7206 17 11.1022 17 11.5C17 11.8978 17.158 12.2794 17.4393 12.5607C17.7206 12.842 18.1022 13 18.5 13ZM6 9H4V11H6V13H8V11H10V9H8V7H6V9Z" fill="black"/>
</svg>
