<svg version="1.0" xmlns="http://www.w3.org/2000/svg" width="200" height="200" viewBox="0 0 150 150">
  <path d="M73.3 5.5c-3.5 2.4-3.3 5 .8 13.5 9.3 19.4 9.3 30.7-.3 38.3-5.4 4.4-11.2 4.7-17.8 1.1-2.9-1.6-6.8-4.9-8.8-7.4-4.7-5.8-6.1-7-8.8-7-2.9 0-6.6 4.5-11 13.3-12.2 24.2-9.1 50 8.1 67.2 20.8 20.8 54.5 21.3 75.1 1 7.1-7.1 11.3-14.2 14.6-24.5 3.3-10.6 3.3-30.8 0-42.5-6.8-24-21.2-42-41.3-51.5-7.4-3.5-7.7-3.5-10.6-1.5zm27 72.2c2.8 6.3 3.1 22 .4 30.5-4.7 15.3-18.9 23.1-33.9 18.6-5.3-1.6-12.2-7.8-14.2-13-4.8-11.8.2-19 9.7-14.1 4.6 2.4 13.3 2.2 18.2-.4 7.9-4.2 14.7-13.6 16.1-22.2.4-2.3.8-4.1 1.1-4.1.2 0 1.4 2.1 2.6 4.7z"/>
</svg>
