<svg xmlns="http://www.w3.org/2000/svg" width="24" height="24" fill="none">
  <path fill="#000" d="M11.728.88c-.56.384-.528.8.128 2.16 1.488 3.104 1.488 4.912-.048 6.128-.864.704-1.792.752-2.848.176A5.598 5.598 0 0 1 7.552 8.16c-.752-.928-.976-1.12-1.408-1.12-.464 0-1.056.72-1.76 2.128-1.952 3.872-1.456 8 1.296 10.752 3.328 3.328 8.72 3.408 12.016.16 1.136-1.136 1.808-2.272 2.336-3.92.528-1.696.528-4.928 0-6.8-1.088-3.84-3.392-6.72-6.608-8.24C12.24.56 12.192.56 11.728.88Zm4.32 11.552c.448 1.008.496 3.52.064 4.88-.752 2.448-3.024 3.696-5.424 2.976-.848-.256-1.952-1.248-2.272-2.08-.768-1.888.032-3.04 1.552-2.256.736.384 2.128.352 2.912-.064 1.264-.672 2.352-2.176 2.576-3.552.064-.368.128-.656.176-.656.032 0 .224.336.416.752Z"/>
</svg>
