<svg xmlns="http://www.w3.org/2000/svg" width="24" height="24" fill="none">
  <path fill="#000" d="m23.327 6.708-9.292 6.184c-.16.105-.289.252-.374.424l-1.417 2.88a.267.267 0 0 1-.242.16.262.262 0 0 1-.242-.16l-1.417-2.88a1.088 1.088 0 0 0-.374-.424L.677 6.708a.272.272 0 0 0-.477.156.28.28 0 0 0 .059.201l3.882 7.657a.286.286 0 0 1-.092.354.277.277 0 0 1-.12.048H1.594a.269.269 0 0 0-.262.19.279.279 0 0 0 .1.309l10.408 7.56a.284.284 0 0 0 .322 0l10.408-7.56a.275.275 0 0 0 .099-.31.27.27 0 0 0-.26-.19h-2.335a.277.277 0 0 1-.227-.134.286.286 0 0 1-.015-.267l3.912-7.657a.278.278 0 0 0 .033-.306.276.276 0 0 0-.266-.149.27.27 0 0 0-.185.098Z"/>
  <path fill="#000" d="m12.207 1.037.954 1.972a.245.245 0 0 0 .17.127l2.15.312a.226.226 0 0 1 .183.158.234.234 0 0 1-.058.237L14.05 5.376a.247.247 0 0 0-.066.2l.366 2.166a.227.227 0 0 1-.086.224.218.218 0 0 1-.236.014l-1.923-1.019a.204.204 0 0 0-.206 0l-1.923 1.02a.218.218 0 0 1-.311-.114.226.226 0 0 1-.012-.125l.367-2.165a.25.25 0 0 0-.066-.201L8.398 3.843a.231.231 0 0 1 .125-.395l2.15-.305a.24.24 0 0 0 .17-.126l.954-1.972A.23.23 0 0 1 12 .909a.225.225 0 0 1 .207.128Z"/>
</svg>
