<svg width="73" height="72" fill="none" xmlns="http://www.w3.org/2000/svg">
  <g clip-path="url(#a)" fill="#FBB848">
    <path d="M70.952 20.124 42.69 38.675a3.282 3.282 0 0 0-1.139 1.273l-4.309 8.639a.805.805 0 0 1-1.473 0l-4.308-8.64a3.282 3.282 0 0 0-1.139-1.272L2.06 20.124a.832.832 0 0 0-1.273 1.071l11.81 22.972a.848.848 0 0 1-.648 1.205H4.85a.825.825 0 0 0-.491 1.496l31.656 22.681a.871.871 0 0 0 .982 0l31.656-22.681a.826.826 0 0 0-.492-1.496h-7.099a.849.849 0 0 1-.736-1.205l11.898-22.972a.831.831 0 1 0-1.272-1.071Z"/>
    <path d="m37.13 3.112 2.903 5.916a.736.736 0 0 0 .513.38l6.541.937a.693.693 0 0 1 .38 1.184l-4.733 4.598a.738.738 0 0 0-.2.603l1.115 6.497a.67.67 0 0 1-.982.714l-5.849-3.058a.625.625 0 0 0-.625 0l-5.849 3.058a.67.67 0 0 1-.982-.714l1.116-6.497a.737.737 0 0 0-.2-.603l-4.733-4.598a.691.691 0 0 1 .379-1.184l6.541-.915a.737.737 0 0 0 .513-.38l2.903-5.915a.692.692 0 0 1 1.25-.023Z"/>
  </g>
  <defs>
    <clipPath id="a">
      <path fill="#fff" transform="translate(.787 .5)" d="M0 0h71.437v71.437H0z"/>
    </clipPath>
  </defs>
</svg>
