<svg width="24" height="24" viewBox="0 0 24 24" fill="none" xmlns="http://www.w3.org/2000/svg">
<path d="M23.3267 6.70801L14.0351 12.8917C13.8755 12.9971 13.7463 13.1435 13.6606 13.316L12.2439 16.1957C12.2232 16.2433 12.1893 16.2838 12.1463 16.3122C12.1033 16.3406 12.0531 16.3557 12.0018 16.3557C11.9505 16.3557 11.9003 16.3406 11.8573 16.3122C11.8143 16.2838 11.7804 16.2433 11.7597 16.1957L10.3433 13.3157C10.2576 13.1433 10.1284 12.997 9.96886 12.8917L0.677245 6.70801C0.630022 6.65357 0.563648 6.62004 0.49234 6.61461C0.421032 6.60917 0.350461 6.63226 0.295741 6.67894C0.241022 6.72562 0.206506 6.79216 0.199587 6.86432C0.192668 6.93649 0.213896 7.00853 0.258724 7.06501L4.14146 14.7223C4.16033 14.7624 4.16961 14.8065 4.16856 14.8509C4.1675 14.8953 4.15613 14.9388 4.13538 14.9779C4.11463 15.0171 4.08508 15.0507 4.04912 15.0761C4.01317 15.1014 3.97181 15.1179 3.92842 15.124H1.59451C1.53674 15.1232 1.48024 15.1412 1.43323 15.1752C1.38622 15.2092 1.35116 15.2576 1.33314 15.3132C1.31513 15.3689 1.31511 15.4289 1.33308 15.4846C1.35106 15.5402 1.38609 15.5886 1.43308 15.6227L11.8405 23.183C11.8881 23.2159 11.9444 23.2335 12.002 23.2335C12.0596 23.2335 12.1158 23.2159 12.1634 23.183L22.5708 15.6227C22.6176 15.5885 22.6525 15.5401 22.6703 15.4844C22.6881 15.4288 22.688 15.3689 22.67 15.3133C22.652 15.2578 22.617 15.2095 22.5701 15.1754C22.5231 15.1414 22.4668 15.1234 22.4091 15.124H20.0752C20.0293 15.1221 19.9846 15.1088 19.945 15.0852C19.9054 15.0616 19.8722 15.0285 19.8483 14.9888C19.8243 14.949 19.8105 14.9039 19.8078 14.8575C19.8052 14.811 19.8139 14.7646 19.8332 14.7223L23.7449 7.06501C23.768 7.03717 23.7855 7.00499 23.7963 6.9703C23.8072 6.93561 23.8112 6.89909 23.8081 6.86283C23.805 6.82656 23.795 6.79127 23.7784 6.75896C23.7619 6.72665 23.7393 6.69796 23.7118 6.67451C23.6844 6.65107 23.6526 6.63335 23.6184 6.62234C23.5842 6.61134 23.5482 6.60728 23.5124 6.61039C23.4766 6.6135 23.4418 6.62372 23.41 6.64047C23.3781 6.65722 23.3498 6.68017 23.3267 6.70801Z" fill="black"/>
<path d="M12.2071 1.03733L13.1615 3.00933C13.1785 3.04193 13.2024 3.07024 13.2316 3.09217C13.2608 3.1141 13.2945 3.12908 13.3302 3.136L15.4807 3.44833C15.5228 3.45465 15.5623 3.47279 15.5947 3.5007C15.6272 3.52861 15.6513 3.56517 15.6643 3.60625C15.6773 3.64733 15.6787 3.69128 15.6683 3.73312C15.6579 3.77496 15.6362 3.81303 15.6056 3.843L14.0495 5.37566C14.0245 5.40209 14.0056 5.43385 13.9942 5.46862C13.9829 5.5034 13.9793 5.54031 13.9838 5.57666L14.3504 7.74233C14.3584 7.78404 14.3544 7.8272 14.3391 7.86674C14.3237 7.90627 14.2976 7.94054 14.2637 7.96553C14.2298 7.99052 14.1896 8.00519 14.1477 8.00781C14.1059 8.01043 14.0642 8.0009 14.0275 7.98033L12.1046 6.961C12.0733 6.94271 12.0379 6.93309 12.0018 6.93309C11.9658 6.93309 11.9303 6.94271 11.8991 6.961L9.97612 7.98033C9.93945 8.0009 9.89775 8.01043 9.85592 8.00781C9.81409 8.00519 9.77387 7.99052 9.73997 7.96553C9.70608 7.94054 9.67991 7.90627 9.66456 7.86674C9.6492 7.8272 9.64528 7.78404 9.65327 7.74233L10.0202 5.57666C10.0247 5.54031 10.0211 5.50339 10.0098 5.46861C9.99838 5.43383 9.97947 5.40208 9.95442 5.37566L8.39837 3.843C8.36752 3.81316 8.34557 3.77512 8.33504 3.73323C8.32451 3.69134 8.32582 3.64729 8.33882 3.60612C8.35182 3.56495 8.37598 3.52831 8.40855 3.50041C8.44111 3.47251 8.48077 3.45446 8.52297 3.44833L10.6734 3.14333C10.7091 3.13639 10.7428 3.1214 10.772 3.09947C10.8012 3.07755 10.8251 3.04925 10.8421 3.01666L11.7965 1.045C11.8142 1.00524 11.8427 0.971407 11.8787 0.947417C11.9146 0.923426 11.9566 0.910266 11.9996 0.909463C12.0426 0.90866 12.085 0.920248 12.1218 0.942882C12.1586 0.965515 12.1883 0.998266 12.2075 1.03733H12.2071Z" fill="black"/>
</svg>
