<svg width="150" height="150" fill="none" xmlns="http://www.w3.org/2000/svg">
  <path d="M6.3 52C.1 55.7 0 56.4 0 93.5c0 37.3.2 38.9 6.4 42.3 2.8 1.6 8.7 1.7 68.6 1.7 59.9 0 65.8-.1 68.6-1.7 6.2-3.4 6.4-5 6.4-42.3 0-37.1-.1-37.8-6.3-41.5-3.1-1.9-5.5-2-68.7-2s-65.6.1-68.7 2Zm36.3 13.5c1.4 2.1 1.4 3 .4 5.5-2.2 5.3-8.8 5.3-11 0-1.8-4.3.7-8 5.5-8 2.6 0 3.9.6 5.1 2.5Zm18.2-1.3c.7.7 1.2 2.5 1.2 4.2 0 5.9-5.9 8.7-10 4.6-2.4-2.4-2.6-5.7-.3-8.2 1.8-2 7.3-2.4 9.1-.6Zm18.7.4c2.5 2.5 1.6 7.5-1.7 9.4-2.5 1.3-3.1 1.3-5.5 0-5.6-3.1-3.6-11 2.7-11 1.6 0 3.6.7 4.5 1.6Zm18.7.1c2.4 2.1 2.3 5.8-.2 8.3-2.4 2.4-5.7 2.6-8.2.3-2-1.8-2.4-7.3-.6-9.1 1.7-1.7 6.8-1.5 9 .5Zm19.4.8c1.4 2.1 1.4 3 .4 5.5-2.2 5.3-8.8 5.3-11 0-1.8-4.3.7-8 5.5-8 2.6 0 3.9.6 5.1 2.5Zm-75 25c1.4 2.1 1.4 3 .4 5.5-2.2 5.3-8.8 5.3-11 0-1-2.5-1-3.4.4-5.5 2.3-3.5 7.9-3.5 10.2 0Zm18.2-1.3c.7.7 1.2 2.5 1.2 4.2 0 5.9-5.9 8.7-10 4.6-2.4-2.4-2.6-5.7-.3-8.2 1.8-2 7.3-2.4 9.1-.6Zm18.7.4c2.5 2.5 1.6 7.5-1.7 9.4-2.5 1.3-3.1 1.3-5.5 0-5.6-3.1-3.6-11 2.7-11 1.6 0 3.6.7 4.5 1.6Zm18.7.1c2.4 2.1 2.3 5.8-.2 8.3-2.4 2.4-5.7 2.6-8.2.3-2-1.8-2.4-7.3-.6-9.1 1.7-1.7 6.8-1.5 9 .5Zm19.4.8c1.4 2.1 1.4 3 .4 5.5-2.2 5.3-8.8 5.3-11 0-1-2.5-1-3.4.4-5.5 2.3-3.5 7.9-3.5 10.2 0ZM100 119v6H50v-12h50v6Z" fill="#000"/>
</svg>
