<svg xmlns="http://www.w3.org/2000/svg" width="24" height="24" fill="none">
  <path fill="#000" d="M20 5H4c-1.1 0-1.99.9-1.99 2L2 17c0 1.1.9 2 2 2h16c1.1 0 2-.9 2-2V7c0-1.1-.9-2-2-2Zm-8 3c.5 0 1 .5 1 1s-.5 1-1 1-1-.5-1-1 .5-1 1-1Zm0 3c.5 0 1 .5 1 1s-.5 1-1 1-1-.5-1-1 .5-1 1-1ZM9 8c.5 0 1 .5 1 1s-.5 1-1 1-1-.5-1-1 .5-1 1-1Zm0 3c.5 0 1 .5 1 1s-.5 1-1 1-1-.5-1-1 .5-1 1-1Zm-3 2c-.5 0-1-.5-1-1s.5-1 1-1 1 .5 1 1-.5 1-1 1Zm0-3c-.5 0-1-.5-1-1s.5-1 1-1 1 .5 1 1-.5 1-1 1Zm9 7H9c-.55 0-1-.45-1-1s.45-1 1-1h6c.55 0 1 .45 1 1s-.45 1-1 1Zm0-4c-.5 0-1-.5-1-1s.5-1 1-1 1 .5 1 1-.5 1-1 1Zm0-3c-.5 0-1-.5-1-1s.5-1 1-1 1 .5 1 1-.5 1-1 1Zm3 3c-.5 0-1-.5-1-1s.5-1 1-1 1 .5 1 1-.5 1-1 1Zm0-3c-.5 0-1-.5-1-1s.5-1 1-1 1 .5 1 1-.5 1-1 1Z"/>
</svg>
