<svg width="24" height="24" viewBox="0 0 24 24" fill="none" xmlns="http://www.w3.org/2000/svg">
<path d="M20.8 4H3.2C1.99 4 1.011 5.02857 1.011 6.28571L1 17.7143C1 18.9714 1.99 20 3.2 20H20.8C22.01 20 23 18.9714 23 17.7143V6.28571C23 5.02857 22.01 4 20.8 4ZM12 7.42857C12.55 7.42857 13.1 8 13.1 8.57143C13.1 9.14286 12.55 9.71429 12 9.71429C11.45 9.71429 10.9 9.14286 10.9 8.57143C10.9 8 11.45 7.42857 12 7.42857ZM12 10.8571C12.55 10.8571 13.1 11.4286 13.1 12C13.1 12.5714 12.55 13.1429 12 13.1429C11.45 13.1429 10.9 12.5714 10.9 12C10.9 11.4286 11.45 10.8571 12 10.8571ZM8.7 7.42857C9.25 7.42857 9.8 8 9.8 8.57143C9.8 9.14286 9.25 9.71429 8.7 9.71429C8.15 9.71429 7.6 9.14286 7.6 8.57143C7.6 8 8.15 7.42857 8.7 7.42857ZM8.7 10.8571C9.25 10.8571 9.8 11.4286 9.8 12C9.8 12.5714 9.25 13.1429 8.7 13.1429C8.15 13.1429 7.6 12.5714 7.6 12C7.6 11.4286 8.15 10.8571 8.7 10.8571ZM5.4 13.1429C4.85 13.1429 4.3 12.5714 4.3 12C4.3 11.4286 4.85 10.8571 5.4 10.8571C5.95 10.8571 6.5 11.4286 6.5 12C6.5 12.5714 5.95 13.1429 5.4 13.1429ZM5.4 9.71429C4.85 9.71429 4.3 9.14286 4.3 8.57143C4.3 8 4.85 7.42857 5.4 7.42857C5.95 7.42857 6.5 8 6.5 8.57143C6.5 9.14286 5.95 9.71429 5.4 9.71429ZM15.3 17.7143H8.7C8.095 17.7143 7.6 17.2 7.6 16.5714C7.6 15.9429 8.095 15.4286 8.7 15.4286H15.3C15.905 15.4286 16.4 15.9429 16.4 16.5714C16.4 17.2 15.905 17.7143 15.3 17.7143ZM15.3 13.1429C14.75 13.1429 14.2 12.5714 14.2 12C14.2 11.4286 14.75 10.8571 15.3 10.8571C15.85 10.8571 16.4 11.4286 16.4 12C16.4 12.5714 15.85 13.1429 15.3 13.1429ZM15.3 9.71429C14.75 9.71429 14.2 9.14286 14.2 8.57143C14.2 8 14.75 7.42857 15.3 7.42857C15.85 7.42857 16.4 8 16.4 8.57143C16.4 9.14286 15.85 9.71429 15.3 9.71429ZM18.6 13.1429C18.05 13.1429 17.5 12.5714 17.5 12C17.5 11.4286 18.05 10.8571 18.6 10.8571C19.15 10.8571 19.7 11.4286 19.7 12C19.7 12.5714 19.15 13.1429 18.6 13.1429ZM18.6 9.71429C18.05 9.71429 17.5 9.14286 17.5 8.57143C17.5 8 18.05 7.42857 18.6 7.42857C19.15 7.42857 19.7 8 19.7 8.57143C19.7 9.14286 19.15 9.71429 18.6 9.71429Z" fill="black"/>
</svg>
