<svg xmlns="http://www.w3.org/2000/svg" width="24" height="24" fill="none">
  <path fill="#000" d="m12.95 15.354-2.772-2.738.033-.032a19.112 19.112 0 0 0 4.047-7.124h3.197V3.273H9.818V1.09H7.636v2.182H0v2.17h12.185a17.229 17.229 0 0 1-3.458 5.848 17.204 17.204 0 0 1-2.52-3.655H4.025a19.158 19.158 0 0 0 3.251 4.975L1.73 18.093l1.544 1.543 5.454-5.454 3.393 3.392.829-2.22Zm6.14-5.536h-2.18L12 22.91h2.182l1.227-3.273h5.182l1.227 3.273H24L19.09 9.818Zm-2.863 7.636L18 12.725l1.773 4.73-3.546-.001Z"/>
</svg>
