<svg width="24" height="24" viewBox="0 0 24 24" fill="none" xmlns="http://www.w3.org/2000/svg">
<path d="M16.4771 20C18.0153 17.936 18.9382 15.531 19.1324 13H21.7527C21.3829 16.056 19.3364 18.65 16.4771 20ZM2.24618 13H4.86655C5.06073 15.531 5.98364 17.936 7.52182 20C4.66255 18.65 2.616 16.056 2.24618 13ZM7.52182 4C5.98255 6.064 5.06073 8.469 4.86655 11H2.24618C2.616 7.944 4.66255 5.35 7.52182 4ZM13.0909 11V3.369C15.3295 5.416 16.6931 8.111 16.9505 11H13.0909ZM13.0909 20.631V13H16.9505C16.6931 15.889 15.3295 18.584 13.0909 20.631ZM10.9091 13V20.631C8.66945 18.584 7.30582 15.889 7.04836 13H10.9091ZM10.9091 11H7.04836C7.30582 8.111 8.66945 5.416 10.9091 3.369V11ZM19.1324 11C18.9382 8.469 18.0164 6.064 16.4771 4C19.3364 5.35 21.3829 7.944 21.7527 11H19.1324ZM0 12C0 18.075 5.37164 23 12 23C18.6273 23 24 18.075 24 12C24 5.925 18.6273 1 12 1C5.37164 1 0 5.925 0 12Z" fill="black"/>
</svg>
