<svg version="1.0" xmlns="http://www.w3.org/2000/svg" width="200" height="200" viewBox="0 0 150 150">
  <path d="M60 1.6C50.2 3.7 42.5 6.8 34.6 12-5.9 38.6-11.8 93.9 22.1 127.9c33.5 33.5 88.4 28.1 115.2-11.4 13.9-20.3 16.5-48.6 6.6-71.1-7.6-17.3-24.4-33.6-41.5-40.3C89.8.2 72.9-1.2 60 1.6zm27.3 33.2c11.3 6.1 15.8 21.2 9.9 32.8-9.2 17.8-35 17.7-44.5-.1-2.9-5.4-3-16.4-.3-21.8 6.6-13.2 21.9-18 34.9-10.9zm9.5 62.7c4.5 1.5 10.4 4.1 13 5.8l4.7 2.9-5.8 5.4c-18.9 17.6-48 17.7-67.2.3-4.1-3.8-5.3-5.5-4.5-6.4 1.8-2.2 13.6-7.5 21.2-9.5 10.8-3 27.3-2.3 38.6 1.5z"/>
</svg>
