<svg width="24" height="24" viewBox="0 0 24 24" fill="none" xmlns="http://www.w3.org/2000/svg">
<path d="M18.6667 8.66667V14.2222C18.6667 15.1063 19.0179 15.9541 19.643 16.5792C20.2681 17.2044 21.1159 17.5556 22 17.5556V18.6667H2V17.5556C2.88406 17.5556 3.7319 17.2044 4.35702 16.5792C4.98214 15.9541 5.33333 15.1063 5.33333 14.2222V8.66667C5.33333 6.89856 6.03571 5.20286 7.28596 3.95262C8.5362 2.70238 10.2319 2 12 2C13.7681 2 15.4638 2.70238 16.714 3.95262C17.9643 5.20286 18.6667 6.89856 18.6667 8.66667V8.66667ZM12 22C10.36 22 8.94222 21.1 8.17222 19.7778H15.8278C15.0578 21.1 13.6389 22 12 22Z" fill="black"/>
</svg>
