<svg width="24" height="24" viewBox="0 0 24 24" fill="none" xmlns="http://www.w3.org/2000/svg">
<path d="M19 1C19.2652 1 19.5196 1.10536 19.7071 1.29289C19.8946 1.48043 20 1.73478 20 2V3L23 2V6L20 5V6C20 6.26522 19.8946 6.51957 19.7071 6.70711C19.5196 6.89464 19.2652 7 19 7H15C14.7348 7 14.4804 6.89464 14.2929 6.70711C14.1054 6.51957 14 6.26522 14 6V2C14 1.73478 14.1054 1.48043 14.2929 1.29289C14.4804 1.10536 14.7348 1 15 1H19Z" fill="black"/>
<path d="M20 13.5V9H22V15.5C22 16.604 21.103 17.5 20 17.5H13V19.5H17V21.5H7V19.5H11V17.5H4C2.897 17.5 2 16.604 2 15.5V4.5C2 3.397 2.897 2.5 4 2.5H12V4.5H4V13.5H20Z" fill="black"/>
</svg>
