<svg width="24" height="24" viewBox="0 0 24 24" fill="none" xmlns="http://www.w3.org/2000/svg">
<path d="M21.924 8.61801C21.8484 8.43513 21.7202 8.2788 21.5558 8.16879C21.3913 8.05878 21.1978 8.00004 21 8.00001H15.618L12.894 2.55301C12.555 1.87601 11.444 1.87601 11.105 2.55301L8.38197 8.00001H2.99997C2.80222 8.00005 2.60892 8.05872 2.44451 8.16861C2.2801 8.27849 2.15196 8.43465 2.07629 8.61735C2.00062 8.80005 1.98082 9.00109 2.01939 9.19504C2.05795 9.38899 2.15316 9.56716 2.29297 9.70701L6.87697 14.291L5.03897 20.726C4.98324 20.9226 4.98906 21.1315 5.05565 21.3247C5.12224 21.5178 5.2464 21.686 5.41142 21.8064C5.57645 21.9269 5.77442 21.994 5.97868 21.9985C6.18295 22.0031 6.38372 21.945 6.55397 21.832L12 18.203L17.445 21.833C17.615 21.9476 17.8162 22.007 18.0212 22.0031C18.2263 21.9993 18.4251 21.9324 18.5908 21.8115C18.7564 21.6907 18.8808 21.5218 18.947 21.3277C19.0133 21.1337 19.0181 20.9239 18.961 20.727L17.123 14.292L21.707 9.70801C21.993 9.42301 22.078 8.99101 21.924 8.61801Z" fill="black"/>
</svg>
