<svg version="1.0" xmlns="http://www.w3.org/2000/svg" width="200" height="200" viewBox="0 0 150 150">
  <path d="M19.2 26.7C12.5 30 12.5 30 12.5 75c0 36.3.2 40.8 1.7 43.6 3.5 6.5 3 6.4 60.8 6.4 46.2 0 52.6-.2 55.6-1.6 6.6-3.2 6.9-4.4 7.2-38.3l.3-30.4-14.8-14.9L108.5 25h-43c-37.7 0-43.4.2-46.3 1.7zM116 47.5 131.5 63H100V47.5c0-8.5.1-15.5.3-15.5.1 0 7.2 7 15.7 15.5zM92.5 84.1l13.3 21.4-36.5.3c-20.2.1-36.8 0-37-.2-.4-.4 11.9-20.8 13.8-23 .4-.5 2.8 2.4 5.3 6.3s4.8 7.1 5 7.1c.2 0 3.7-5.3 7.7-11.8 12.3-19.7 14.1-22.4 14.5-21.9.3.3 6.5 10.1 13.9 21.8z"/>
</svg>
