<svg version="1.0" xmlns="http://www.w3.org/2000/svg" width="200" height="200" viewBox="0 0 150 150">
  <path d="M66.4 19.4c-2.1 2.1-3.4 4.4-3.4 6 0 2.5-.2 2.6-6.5 2.6H50v19h50V28h-6.5c-6.3 0-6.5-.1-6.5-2.6 0-1.6-1.3-3.9-3.4-6-3-3-4-3.4-8.6-3.4s-5.6.4-8.6 3.4z"/>
  <path d="M27 35.3c-1.9.7-4.4 2.7-5.7 4.6L19 43.3v47.1c0 35.7.3 47.7 1.3 49.6.7 1.3 2.8 3.5 4.6 4.7l3.4 2.3h93.4l3.4-2.3c1.8-1.2 3.9-3.4 4.6-4.7 1-1.9 1.3-13.9 1.3-49.6V43.3l-2.3-3.4c-2.5-3.7-8.2-6.2-13.2-5.7l-3 .3-.3 9.2-.3 9.3H38.1l-.3-9.3-.3-9.2-3.5-.2c-1.9-.1-5.1.3-7 1zM106 72v6H44V66h62v6zm0 25v6H44V91h62v6zm0 25v6H44v-12h62v6z"/>
</svg>
