<svg width="24" height="24" viewBox="0 0 24 24" fill="none" xmlns="http://www.w3.org/2000/svg">
<path d="M13.125 0.75L23.25 9.75V12L17.6265 17.6265H15.375L5.25 8.625V6.375L10.875 0.75H13.125ZM18.42 1.545C18.5251 1.43982 18.65 1.35652 18.7875 1.29991C18.925 1.2433 19.0724 1.21452 19.2211 1.21521C19.3698 1.21591 19.5168 1.24608 19.6538 1.30397C19.7908 1.36187 19.9149 1.44634 20.019 1.5525L21.594 3.129C21.7045 3.23199 21.7932 3.35619 21.8547 3.49419C21.9162 3.63219 21.9492 3.78116 21.9519 3.93222C21.9546 4.08327 21.9268 4.23331 21.8702 4.3734C21.8136 4.51348 21.7294 4.64073 21.6226 4.74756C21.5157 4.85439 21.3885 4.9386 21.2484 4.99518C21.1083 5.05177 20.9583 5.07955 20.8072 5.07689C20.6562 5.07422 20.5072 5.04116 20.3692 4.97967C20.2312 4.91818 20.107 4.82953 20.004 4.719L18.429 3.144C18.3231 3.03978 18.2388 2.91567 18.181 2.77878C18.1232 2.6419 18.0931 2.49495 18.0922 2.34637C18.0914 2.19779 18.1199 2.05051 18.1762 1.91298C18.2324 1.77546 18.3153 1.6504 18.42 1.545V1.545ZM7.9095 13.125L10.296 15.5115L3.1365 22.671L0.75 20.2845L7.9095 13.125Z" fill="black"/>
</svg>
