<svg width="24" height="24" viewBox="0 0 24 24" fill="none" xmlns="http://www.w3.org/2000/svg">
<path d="M12 2C6.477 2 2 6.477 2 12C2 17.522 6.477 22 12 22C17.523 22 22 17.522 22 12C22 6.477 17.523 2 12 2ZM8 6C8.26271 6.00007 8.52283 6.05187 8.76552 6.15247C9.00821 6.25307 9.2287 6.40048 9.41442 6.58629C9.60014 6.7721 9.74744 6.99267 9.84791 7.2354C9.94839 7.47814 10.0001 7.73829 10 8.001C9.99993 8.26371 9.94812 8.52383 9.84753 8.76652C9.74693 9.00921 9.59952 9.2297 9.41371 9.41542C9.2279 9.60114 9.00733 9.74844 8.7646 9.84891C8.52186 9.94939 8.26171 10.0011 7.999 10.001C7.46843 10.0009 6.95965 9.78997 6.58458 9.41471C6.20951 9.03945 5.99887 8.53057 5.999 8C5.99913 7.46943 6.21003 6.96065 6.58529 6.58558C6.96055 6.21051 7.46943 5.99987 8 6V6ZM18 14C18 16.617 15.14 19 12 19C8.86 19 6 16.617 6 14V13H18V14ZM16 10C15.4696 10 14.9609 9.78929 14.5858 9.41421C14.2107 9.03914 14 8.53043 14 8C14 7.46957 14.2107 6.96086 14.5858 6.58579C14.9609 6.21071 15.4696 6 16 6C16.5304 6 17.0391 6.21071 17.4142 6.58579C17.7893 6.96086 18 7.46957 18 8C18 8.53043 17.7893 9.03914 17.4142 9.41421C17.0391 9.78929 16.5304 10 16 10V10Z" fill="black"/>
</svg>
