<svg version="1.0" xmlns="http://www.w3.org/2000/svg" width="200" height="200" viewBox="0 0 150 150">
  <path d="M64.5 20.4c-4.1 1.5-8.5 5.7-8.5 8 0 2.1 5.3 6.4 9.6 7.6 5.5 1.6 18 .9 22.5-1.3 5.1-2.5 6.7-5.8 4.5-9.1-.9-1.4-3.1-3.3-4.9-4.3-4.4-2.3-17.9-2.8-23.2-.9zM28.7 32.4c-8.2 2.2-12.1 8-8.1 12.1 3.8 3.8 7.8 4.9 16.9 4.9 9.1 0 13.1-1.1 16.9-4.9 4.2-4.3-.5-10.5-9.4-12.4-6.4-1.4-10.2-1.3-16.3.3zM103.7 32.4c-8.2 2.2-12.1 8-8.1 12.1 3.8 3.8 7.8 4.9 16.9 4.9 9.1 0 13.1-1.1 16.9-4.9 4.2-4.3-.5-10.5-9.4-12.4-6.4-1.4-10.2-1.3-16.3.3zM64.5 45.4c-4.1 1.5-8.5 5.7-8.5 8 0 2.1 5.3 6.4 9.6 7.6 5.5 1.6 18 .9 22.5-1.3 5.1-2.5 6.7-5.8 4.5-9.1-.9-1.4-3.1-3.3-4.9-4.3-4.4-2.3-17.9-2.8-23.2-.9zM14.9 57.9l-2.4 1.9v27.5c0 21.3.3 27.7 1.3 29 1.2 1.4 51 18.7 54 18.7 1 0 1.2-6.6 1-31.3l-.3-31.2-22.6-7.6c-28.2-9.6-27.9-9.5-31-7zM106 64.3l-24.5 8.2-.3 31.2c-.2 24.7 0 31.3 1 31.3 3 0 52.8-17.3 54-18.7 1-1.3 1.3-7.7 1.3-29V59.8l-2.4-1.9c-1.3-1-2.8-1.9-3.5-1.8-.6 0-12.1 3.7-25.6 8.2z"/>
</svg>
