<svg width="24" height="24" viewBox="0 0 24 24" fill="none" xmlns="http://www.w3.org/2000/svg">
<path d="M10.59 13.41C11 13.8 11 14.44 10.59 14.83C10.2 15.22 9.56002 15.22 9.17002 14.83C8.23339 13.892 7.70732 12.6206 7.70732 11.295C7.70732 9.96944 8.23339 8.69804 9.17002 7.76002L12.71 4.22002C13.648 3.28339 14.9194 2.75732 16.245 2.75732C17.5706 2.75732 18.842 3.28339 19.78 4.22002C20.7166 5.15804 21.2427 6.42944 21.2427 7.75502C21.2427 9.08059 20.7166 10.352 19.78 11.29L18.29 12.78C18.3 11.96 18.17 11.14 17.89 10.36L18.36 9.88002C18.6404 9.6027 18.8629 9.27254 19.0148 8.90865C19.1667 8.54475 19.2449 8.15434 19.2449 7.76002C19.2449 7.36569 19.1667 6.97528 19.0148 6.61139C18.8629 6.24749 18.6404 5.91733 18.36 5.64002C18.0827 5.35968 17.7525 5.13712 17.3886 4.98524C17.0247 4.83335 16.6343 4.75514 16.24 4.75514C15.8457 4.75514 15.4553 4.83335 15.0914 4.98524C14.7275 5.13712 14.3973 5.35968 14.12 5.64002L10.59 9.17002C10.3097 9.44733 10.0871 9.77749 9.93524 10.1414C9.78335 10.5053 9.70514 10.8957 9.70514 11.29C9.70514 11.6843 9.78335 12.0747 9.93524 12.4386C10.0871 12.8025 10.3097 13.1327 10.59 13.41V13.41ZM13.41 9.17002C13.8 8.78002 14.44 8.78002 14.83 9.17002C15.7666 10.108 16.2927 11.3794 16.2927 12.705C16.2927 14.0306 15.7666 15.302 14.83 16.24L11.29 19.78C10.352 20.7166 9.08059 21.2427 7.75502 21.2427C6.42944 21.2427 5.15804 20.7166 4.22002 19.78C3.28339 18.842 2.75732 17.5706 2.75732 16.245C2.75732 14.9194 3.28339 13.648 4.22002 12.71L5.71002 11.22C5.70002 12.04 5.83002 12.86 6.11002 13.65L5.64002 14.12C5.35968 14.3973 5.13712 14.7275 4.98524 15.0914C4.83335 15.4553 4.75514 15.8457 4.75514 16.24C4.75514 16.6343 4.83335 17.0247 4.98524 17.3886C5.13712 17.7525 5.35968 18.0827 5.64002 18.36C5.91733 18.6404 6.24749 18.8629 6.61139 19.0148C6.97528 19.1667 7.36569 19.2449 7.76002 19.2449C8.15434 19.2449 8.54475 19.1667 8.90865 19.0148C9.27254 18.8629 9.6027 18.6404 9.88002 18.36L13.41 14.83C13.6904 14.5527 13.9129 14.2225 14.0648 13.8586C14.2167 13.4947 14.2949 13.1043 14.2949 12.71C14.2949 12.3157 14.2167 11.9253 14.0648 11.5614C13.9129 11.1975 13.6904 10.8673 13.41 10.59C13.3129 10.499 13.2355 10.389 13.1826 10.2669C13.1296 10.1448 13.1023 10.0131 13.1023 9.88002C13.1023 9.74692 13.1296 9.61523 13.1826 9.49311C13.2355 9.37099 13.3129 9.26102 13.41 9.17002V9.17002Z" fill="black"/>
</svg>
