<svg version="1.0" xmlns="http://www.w3.org/2000/svg" width="200" height="200" viewBox="0 0 150 150">
  <path d="M60.5 12.6c-16.6 2.6-34.3 15-41.2 28.9-5.5 11-6.7 16.1-6.7 27.5.1 16.6 4.7 27.5 16.8 39.5 8 8 16.1 12.5 27.2 15.1 12.9 3 30 .2 40.8-6.6l4.9-3.2 11.1 11.1c6.1 6.1 11.6 11.1 12.2 11.1 1.2 0 10.4-9.2 10.4-10.5 0-.5-5-6-11.1-12.1l-11-11.1 3-4.9c6.9-11.3 9.5-27 6.7-40.2-4.2-20.1-19.6-36.7-39.5-42.8-4.9-1.5-18.7-2.5-23.6-1.8zm15 33.3c5.1 2.3 9.1 7 10.5 12.2 2.9 10.8-5.8 21.8-17.2 21.9-13.2.1-21.9-14-15.9-25.8 2.4-4.7 5-7 9.8-8.8 5.1-1.8 8.1-1.7 12.8.5zm9.7 45.5c3.1 1.6 7.2 4.5 9.2 6.5l3.5 3.6-4.9 3.4c-2.7 1.9-7.3 4.2-10.2 5.2-6.6 2.3-19.5 2.5-26.4.4-5.4-1.6-15.6-7.3-16.1-9.1-.6-1.8 8-8.3 14.4-11 5.1-2.2 7-2.4 15.3-2.1 8 .3 10.4.8 15.2 3.1z"/>
</svg>
