<svg width="24" height="24" viewBox="0 0 24 24" fill="none" xmlns="http://www.w3.org/2000/svg">
<path d="M17 16L21 20L19 22L15 18L17 16Z" fill="black"/>
<path fill-rule="evenodd" clip-rule="evenodd" d="M11 19C15.9706 19 20 14.9706 20 10C20 5.02944 15.9706 1 11 1C6.02944 1 2 5.02944 2 10C2 14.9706 6.02944 19 11 19ZM11 11C12.6569 11 14 9.65685 14 8C14 6.34315 12.6569 5 11 5C9.34315 5 8 6.34315 8 8C8 9.65685 9.34315 11 11 11ZM11 17C13.7614 17 16 16.1046 16 15C16 13.8954 13.7614 12.5 11 12.5C8.23858 12.5 6 13.8954 6 15C6 16.1046 8.23858 17 11 17Z" fill="black"/>
</svg>
