<svg xmlns="http://www.w3.org/2000/svg" viewBox="0 0 24 24">
  <path fill="B9BBBE" d="M14 8.006c0 2.205-1.794 4-4 4-2.205 0-4-1.795-4-4s1.794-4 4-4 4 1.795 4 4Zm-12 11c0-3.533 3.29-6 8-6 4.711 0 8 2.467 8 6v1H2v-1Z"/>
  <path fill="B9BBBE" d="M14 8.006c0 2.205-1.794 4-4 4-2.205 0-4-1.795-4-4s1.794-4 4-4 4 1.795 4 4Zm-12 11c0-3.533 3.29-6 8-6 4.711 0 8 2.467 8 6v1H2v-1ZM20 20.006h2v-1c0-2.563-1.73-4.565-4.479-5.47 1.541 1.377 2.48 3.27 2.48 5.47v1ZM14.883 11.908A4.007 4.007 0 0 0 18 8.006a4.006 4.006 0 0 0-3.503-3.97A5.977 5.977 0 0 1 16 8.007a5.974 5.974 0 0 1-1.362 3.804c.082.032.164.064.245.098Z"/>
</svg>
