<svg width="24" height="24" viewBox="0 0 24 24" fill="none" xmlns="http://www.w3.org/2000/svg">
<path d="M1.29333 1.29333C1 1.58667 1 1.77733 1 12C1 22.2227 1 22.4133 1.29333 22.7067C1.55733 22.9707 1.77733 23 4.08 23H6.57333V1H4.08C1.77733 1 1.55733 1.02933 1.29333 1.29333ZM8.33333 6.06V11.12H23V6.35333C23 1.77733 22.9853 1.572 22.7067 1.29333C22.428 1.01467 22.2227 1 15.3733 1H8.33333V6.06ZM8.33333 17.94V23H15.3733C22.2227 23 22.428 22.9853 22.7067 22.7067C22.9853 22.428 23 22.2227 23 17.6467V12.88H8.33333V17.94Z" fill="black"/>
</svg>
