<svg width="24" height="24" viewBox="0 0 24 24" fill="none" xmlns="http://www.w3.org/2000/svg">
<path d="M16.7326 9.6704L14.1908 11.5297C13.8271 11.7363 13.6453 11.7363 13.2817 11.5297C13.0998 11.3231 12.738 11.1165 12.5562 10.91C11.8289 10.7034 11.2852 10.91 10.7398 11.3231L9.83249 11.9429L5.29241 15.455C4.20148 16.0748 2.93054 15.8682 2.3869 14.6286C1.65961 13.5956 2.02325 12.1495 2.93236 11.3231L8.37974 7.19129C9.83249 6.15833 11.6489 5.74515 13.2835 6.15833C14.7362 6.57152 15.8253 7.39789 16.7344 8.63744C17.0981 9.05062 16.9163 9.46381 16.7344 9.6704H16.7326ZM22 12.5627C22 13.3891 21.6364 14.2154 21.0909 14.6286L15.4617 18.7604C14.3726 19.5868 13.2835 20 12.0125 20C11.4671 20 11.1034 20 10.558 19.7934C9.10521 19.3802 8.0161 18.5539 7.10881 17.3143C6.92698 16.9011 7.1088 16.4879 7.29063 16.2813L9.83249 14.422C10.0143 14.2154 10.378 14.2154 10.5598 14.422C10.9234 14.6286 11.2852 14.8352 11.4671 15.0418C12.1944 15.0418 12.7398 15.0418 13.2835 14.6286L14.5544 13.8022L18.1872 10.91L18.7327 10.4968C19.64 9.87699 21.0927 10.0836 21.6364 11.1165C22 11.7363 22 12.1495 22 12.5627Z" fill="black"/>
</svg>
