<svg xmlns="http://www.w3.org/2000/svg" viewBox="0 0 16 16">
  <path d="m10.59 6.4-1.398.9c-.2.1-.3.1-.5 0-.1-.1-.299-.2-.399-.3-.4-.1-.699 0-.999.2l-.499.3-2.497 1.7c-.6.3-1.299.2-1.598-.4-.4-.5-.2-1.2.3-1.6l2.996-2c.799-.5 1.798-.7 2.697-.5.799.2 1.398.6 1.898 1.2.2.2.1.4 0 .5ZM13.487 7.8c0 .4-.2.8-.5 1l-3.096 2c-.599.4-1.198.6-1.897.6-.3 0-.5 0-.8-.1-.799-.2-1.398-.6-1.897-1.2-.1-.2 0-.4.1-.5l1.398-.9c.1-.1.3-.1.4 0 .2.1.399.2.499.3.4 0 .7 0 .999-.2l.699-.4L11.39 7l.3-.2c.499-.3 1.298-.2 1.597.3.2.3.2.5.2.7Z" fill="B9BBBE"/>
</svg>
