<svg width="24" height="24" viewBox="0 0 24 24" fill="none" xmlns="http://www.w3.org/2000/svg">
<path d="M21.486 6.12604L12.486 1.12604C12.3374 1.04338 12.1701 1 12 1C11.8299 1 11.6626 1.04338 11.514 1.12604L2.514 6.12604C2.35828 6.21252 2.2285 6.33906 2.13813 6.49255C2.04776 6.64605 2.00007 6.82092 2 6.99904C2 7.69304 2.114 23.999 12 23.999C21.886 23.999 22 7.69304 22 6.99904C21.9999 6.82092 21.9522 6.64605 21.8619 6.49255C21.7715 6.33906 21.6417 6.21252 21.486 6.12604V6.12604ZM12 6.99904C12.663 6.99904 13.2989 7.26243 13.7678 7.73127C14.2366 8.20012 14.5 8.836 14.5 9.49904C14.5 10.1621 14.2366 10.798 13.7678 11.2668C13.2989 11.7356 12.663 11.999 12 11.999C11.337 11.999 10.7011 11.7356 10.2322 11.2668C9.76339 10.798 9.5 10.1621 9.5 9.49904C9.5 8.836 9.76339 8.20012 10.2322 7.73127C10.7011 7.26243 11.337 6.99904 12 6.99904V6.99904ZM8.25 17C8.25 14.699 9.699 13.25 12 13.25C14.301 13.25 15.75 14.699 15.75 17H8.25V17Z" fill="black"/>
</svg>
