<svg xmlns="http://www.w3.org/2000/svg" viewBox="0 0 40 40">
  <path d="M20 4a8 8 0 0 0-8 8v8a8 8 0 0 0 8 8h8a8 8 0 0 0 8-8v-8a8 8 0 0 0-8-8h-8Zm-.404 17.608a.333.333 0 0 0 .328.392h.657c.161 0 .3-.116.328-.275l.424-2.392h4l-.403 2.275a.333.333 0 0 0 .328.392h.656c.162 0 .3-.116.328-.275l.425-2.392h2.386c.162 0 .3-.116.329-.275l.116-.667A.333.333 0 0 0 29.17 18H26.9l.707-4h2.386c.162 0 .3-.116.329-.276l.116-.667a.333.333 0 0 0-.328-.39h-2.27l.404-2.275a.333.333 0 0 0-.328-.392h-.657c-.161 0-.3.116-.328.275l-.424 2.392h-4l.403-2.275a.333.333 0 0 0-.328-.392h-.656c-.162 0-.3.116-.328.275l-.425 2.392h-2.386c-.162 0-.3.116-.329.276l-.116.666a.333.333 0 0 0 .328.391h2.27l-.707 4h-2.386c-.162 0-.3.116-.329.276l-.116.666a.333.333 0 0 0 .328.391H20l-.404 2.275ZM21.566 18l.708-4h4l-.707 4h-4Z" fill="B9BBBE"/>
  <path d="M9.333 14.02A11.988 11.988 0 0 0 4 24c0 6.627 5.373 12 12 12 4.16 0 7.826-2.117 9.979-5.333h-1.652a10.647 10.647 0 0 1-8.327 4C10.109 34.667 5.333 29.89 5.333 24c0-3.369 1.562-6.372 4-8.327V14.02Z" fill="B9BBBE"/>
</svg>
