<svg width="24" height="24" viewBox="0 0 24 24" fill="none" xmlns="http://www.w3.org/2000/svg">
<path d="M5.59983 8.41199C4.61469 9.06949 3.80717 9.96009 3.24897 11.0047C2.69076 12.0493 2.39915 13.2156 2.40003 14.4C2.40003 18.3762 5.62383 21.6 9.60002 21.6C12.096 21.6 14.2956 20.3298 15.5874 18.4002H14.5962C13.9972 19.1498 13.2369 19.7548 12.372 20.1703C11.507 20.5858 10.5596 20.8011 9.60002 20.8002C6.06543 20.8002 3.19983 17.934 3.19983 14.4C3.19983 12.3786 4.13703 10.5768 5.59983 9.40379V8.41199Z" fill="black"/>
<path fill-rule="evenodd" clip-rule="evenodd" d="M8.40588 4.40588C9.30603 3.50571 10.527 3 11.8 3H16.6C17.873 3 19.094 3.50571 19.9941 4.40588C20.8943 5.30606 21.4 6.52695 21.4 7.79999V12.6C21.4 13.873 20.8943 15.0939 19.9941 15.9941C19.094 16.8943 17.873 17.4 16.6 17.4H11.8C10.527 17.4 9.30603 16.8943 8.40588 15.9941C7.50574 15.0939 7 13.873 7 12.6V7.79999C7 6.52695 7.50574 5.30606 8.40588 4.40588ZM12.9108 12.1998H12.9851H12.9868H14.1554H14.9543H14.9557H15.171L15.1355 12.4L15.0358 12.9629L14.9938 13.1998L14.9412 13.4973L14.9409 13.4984L14.9292 13.5648C14.924 13.5936 14.9252 13.6232 14.9327 13.6514C14.9402 13.6797 14.9539 13.706 14.9725 13.7284C14.9913 13.7509 15.0148 13.7689 15.0413 13.7812C15.0679 13.7936 15.0967 13.8 15.126 13.8H15.5195C15.592 13.8 15.6565 13.7613 15.6917 13.7021L15.6927 13.7001C15.7041 13.6804 15.7123 13.6585 15.7163 13.635L15.7521 13.4341L15.7993 13.1681L15.9358 12.4L15.9469 12.3372L15.9713 12.1998H16.1112H16.1855H16.1865H16.9437H17.1935H17.403C17.4276 12.1998 17.4513 12.1953 17.4731 12.1871C17.538 12.1628 17.5874 12.106 17.6003 12.0348L17.6699 11.6346C17.675 11.6059 17.6738 11.5764 17.6663 11.5482C17.6621 11.5326 17.656 11.5177 17.6483 11.5038C17.6421 11.4923 17.6348 11.4815 17.6263 11.4714C17.6075 11.449 17.5841 11.4311 17.5576 11.4187C17.5312 11.4064 17.5023 11.4 17.4731 11.4H17.403H17.1267H16.8738H16.3282H16.3269H16.1112L16.1466 11.1998L16.288 10.4L16.5 9.2002L16.5111 9.13708L16.5354 9H16.6752H16.7491H16.7511H17.5077H17.7577H17.9669C17.9915 9 18.0151 8.99557 18.037 8.9874C18.1019 8.96307 18.1514 8.9061 18.1643 8.83441L18.234 8.4342C18.2369 8.41711 18.2377 8.39975 18.2361 8.38254C18.2351 8.37088 18.233 8.35928 18.23 8.34793C18.2224 8.31982 18.2087 8.2937 18.1901 8.27139C18.1713 8.24911 18.1478 8.2312 18.1215 8.2189C18.0951 8.2066 18.0663 8.20023 18.0371 8.2002H17.9669H17.6908H17.4376H16.8925H16.891H16.6752L16.7107 8L16.8107 7.43701L16.8528 7.2002L16.9058 6.90167L16.9176 6.83521C16.9202 6.82056 16.9211 6.80573 16.9205 6.79095C16.9199 6.77667 16.9177 6.76248 16.9141 6.74857C16.9065 6.72031 16.8929 6.69403 16.8741 6.6716C16.8553 6.64917 16.8319 6.63113 16.8054 6.61874C16.7789 6.60638 16.75 6.59998 16.7208 6.60001H16.3265C16.2928 6.60001 16.2609 6.60846 16.2327 6.6235C16.2006 6.64062 16.1735 6.66635 16.1547 6.69788L16.1537 6.69955C16.1422 6.71936 16.1339 6.74139 16.1298 6.76501L16.0941 6.96609L16.0471 7.23138L15.9109 8L15.8998 8.0625L15.8754 8.2002H15.7356H15.6613H15.6595H14.491H13.692H13.6907H13.4753L13.5109 8L13.5781 7.62042L13.6106 7.4371L13.6525 7.2002L13.7052 6.90274L13.7054 6.90155L13.7172 6.83521C13.7223 6.80643 13.7212 6.77686 13.7136 6.74857C13.7087 6.73022 13.7013 6.71271 13.6915 6.69656C13.6863 6.68784 13.6803 6.67947 13.6737 6.6716C13.655 6.64917 13.6315 6.63113 13.605 6.61874C13.5785 6.60638 13.5496 6.59998 13.5204 6.60001H13.1267C13.0543 6.60001 12.9899 6.6387 12.9547 6.69794L12.9536 6.69995C12.9423 6.71964 12.9341 6.74155 12.9299 6.76501L12.8943 6.96594L12.847 7.2319L12.8025 7.4826L12.7106 8L12.6993 8.06274L12.6749 8.2002H12.5352H12.4615H12.4598H11.7025H11.4529H11.2434C11.2188 8.2002 11.1951 8.20465 11.1732 8.21289C11.1084 8.23724 11.059 8.29419 11.046 8.36581L10.9763 8.76541C10.9713 8.79416 10.9725 8.82367 10.9801 8.85187C10.9877 8.88004 11.0013 8.90625 11.02 8.92862C11.0388 8.95099 11.0623 8.96896 11.0887 8.98129C11.1151 8.99362 11.1439 9 11.1732 9H11.2434H11.5197H11.7727H12.3181H12.3201H12.5352L12.4998 9.2002L12.3584 10L12.1464 11.1998L12.1353 11.2627L12.111 11.4H11.9712H11.8971H11.8953H11.1385H10.8888H10.6793C10.6548 11.4 10.6311 11.4044 10.6091 11.4127C10.5443 11.437 10.495 11.494 10.4819 11.5656L10.4124 11.9652C10.4072 11.994 10.4086 12.0235 10.4161 12.0517C10.4237 12.0799 10.4373 12.106 10.4561 12.1284C10.4749 12.1508 10.4983 12.1688 10.5247 12.1811C10.5511 12.1934 10.58 12.1998 10.6091 12.1998H10.6793H10.9556H11.2086H11.7537H11.7554H11.9712L11.9357 12.4L11.8357 12.963L11.7936 13.1998L11.7406 13.4984L11.7288 13.5648C11.7236 13.5936 11.7247 13.6232 11.7323 13.6514C11.7397 13.6797 11.7534 13.706 11.7722 13.7284C11.7823 13.7405 11.7938 13.7514 11.8064 13.7608C11.8171 13.7687 11.8287 13.7756 11.8409 13.7812C11.8674 13.7936 11.8964 13.8 11.9255 13.8H12.3198C12.3917 13.8 12.4564 13.7614 12.4917 13.7021L12.4927 13.7005C12.5042 13.6807 12.5125 13.6586 12.5166 13.635L12.5522 13.4339L12.5992 13.1686L12.7355 12.4L12.7466 12.3375L12.771 12.1998H12.9108ZM15.0957 11.4H13.9263H13.1288H13.1265H12.9108L12.9462 11.1998L13.0878 10.4L13.3002 9.2002L13.3113 9.13718L13.3356 9H13.4753H13.5486H13.5507H14.7201H15.5175H15.5199H15.7356L15.7002 9.2002L15.5588 10L15.3468 11.1998L15.3356 11.2629L15.3114 11.4H15.171H15.0978H15.0957Z" fill="black"/>
</svg>
