<svg width="24" height="24" viewBox="0 0 24 24" fill="none" xmlns="http://www.w3.org/2000/svg">
<path d="M12 7.4208V2.0611H4C3.46957 2.0611 2.96086 2.2718 2.58579 2.64685C2.21071 3.0219 2 3.53058 2 4.06099L2 20.0001C2 20.5305 2.21071 21.0392 2.58579 21.4142C2.96086 21.7893 3.46957 22 4 22H20C20.5304 22 21.0391 21.7893 21.4142 21.4142C21.7893 21.0392 22 20.5305 22 20.0001V12.0005H16.58C15.3677 11.9927 14.2074 11.5077 13.3501 10.6505C12.4929 9.79331 12.0079 8.633 12 7.4208V7.4208ZM5.36 16.4203C5.1409 16.4183 4.92728 16.3516 4.74607 16.2284C4.56485 16.1053 4.42413 15.9312 4.34165 15.7282C4.25917 15.5253 4.23861 15.3024 4.28256 15.0878C4.32651 14.8731 4.43301 14.6763 4.58864 14.5221C4.74427 14.3678 4.94206 14.2631 5.1571 14.2211C5.37214 14.1791 5.59481 14.2016 5.79706 14.2859C5.9993 14.3702 6.17207 14.5125 6.2936 14.6948C6.41514 14.8771 6.47999 15.0913 6.48 15.3104C6.48282 15.4612 6.45484 15.6111 6.39779 15.7508C6.34074 15.8905 6.2558 16.017 6.14817 16.1228C6.04054 16.2285 5.91247 16.3112 5.7718 16.3658C5.63112 16.4204 5.4808 16.4458 5.33 16.4403L5.36 16.4203ZM12 17.5502C11.1168 17.5502 10.2698 17.1994 9.64533 16.575C9.02084 15.9505 8.67 15.1036 8.67 14.2204H10C10 14.7508 10.2107 15.2595 10.5858 15.6346C10.9609 16.0096 11.4696 16.2203 12 16.2203C12.5304 16.2203 13.0391 16.0096 13.4142 15.6346C13.7893 15.2595 14 14.7508 14 14.2204H15.33C15.33 15.1036 14.9792 15.9505 14.3547 16.575C13.7302 17.1994 12.8832 17.5502 12 17.5502V17.5502ZM14 7.4008V2.66106C13.9978 2.53031 14.035 2.40192 14.1069 2.29268C14.1788 2.18344 14.282 2.09842 14.403 2.04873C14.5239 1.99905 14.6571 1.98701 14.785 2.01419C14.9129 2.04138 15.0297 2.10651 15.12 2.20109L21.81 8.88072C21.9002 8.97355 21.9612 9.09086 21.9852 9.21806C22.0093 9.34525 21.9954 9.47671 21.9453 9.59608C21.8952 9.71544 21.8111 9.81744 21.7035 9.88938C21.5959 9.96132 21.4695 10 21.34 10.0007H16.6C16.2582 10.002 15.9195 9.93564 15.6035 9.80545C15.2874 9.67526 15.0003 9.48381 14.7586 9.24213C14.5169 9.00044 14.3254 8.71331 14.1952 8.39729C14.065 8.08126 13.9987 7.74259 14 7.4008V7.4008Z" fill="black"/>
</svg>
