<svg width="24" height="24" viewBox="0 0 24 24" fill="none" xmlns="http://www.w3.org/2000/svg">
<path d="M2.5 4V5.5C2.5 9.65 4.71 13.28 8 15.3V20H23V18C23 15.34 17.67 14 15 14H14.75C10 14 6 10 6 5.5V4H2.5ZM15 4C13.9391 4 12.9217 4.42143 12.1716 5.17157C11.4214 5.92172 11 6.93913 11 8C11 9.06087 11.4214 10.0783 12.1716 10.8284C12.9217 11.5786 13.9391 12 15 12C16.0609 12 17.0783 11.5786 17.8284 10.8284C18.5786 10.0783 19 9.06087 19 8C19 6.93913 18.5786 5.92172 17.8284 5.17157C17.0783 4.42143 16.0609 4 15 4Z" fill="black"/>
</svg>
