<svg version="1.0" xmlns="http://www.w3.org/2000/svg" width="200" height="200" viewBox="0 0 150 150">
  <path d="M60.3 25.3C53.5 28.7 48 31.7 48 32.1 48 32.8 76.4 46 78 46c1.2 0 25-12.9 25-13.6 0-1-26.2-13.4-28.2-13.3-1.3 0-7.8 2.8-14.5 6.2zM44 50.9c0 7.1.3 13.7.6 14.6C45.2 67 71.7 81 74 81c.7 0 1-5 .8-14.7l-.3-14.6-14.9-6.9c-8.1-3.7-15-6.8-15.2-6.8-.2 0-.4 5.8-.4 12.9zM93 45.4l-11.5 6.4-.3 13.6-.3 13.6 11.9-5.9c6.6-3.3 12.2-6.7 12.6-7.6.9-2.4.8-26.5-.1-26.5-.5 0-6 2.9-12.3 6.4zM22.1 81.9 8.7 88.7l12.9 7 12.8 7 4.1-1.7c2.2-1 9.2-4.2 15.5-7.2l11.5-5.5-13.2-6.6C45 78 38.2 75 37.3 75.1c-1 0-7.8 3.1-15.2 6.8zM97.5 81.7l-13 6.6 9.5 4.5c5.2 2.5 12.2 5.7 15.6 7.2l6.1 2.8 12.8-7.1 12.8-7.1-13.4-6.7c-7.4-3.7-14.3-6.8-15.4-6.8-1.1 0-7.8 3-15 6.6zM55 100c-6.9 3.2-13.7 6.5-15.2 7.4l-2.8 1.5V123c0 11.8.2 14 1.5 14 2.8 0 27.3-12.9 28.9-15.2 1.3-1.8 1.6-5 1.6-15 0-7.1-.3-12.8-.7-12.7-.5 0-6.4 2.7-13.3 5.9zM81 106.8c0 10 .3 13.2 1.6 15 1.6 2.3 26.1 15.2 28.9 15.2 1.3 0 1.5-2.2 1.5-13.9 0-9.9-.4-14.2-1.2-14.9-1.2-.9-29.5-14.2-30.4-14.2-.2 0-.4 5.7-.4 12.8zM6 107.3c0 9.5.3 12.8 1.6 14.5.8 1.2 6.5 4.7 12.5 7.8l11 5.4-.3-13.6-.3-13.7-11.5-6.4C12.7 97.9 7.2 95 6.8 95c-.5 0-.8 5.5-.8 12.3zM131 101.4l-11.5 6.4-.3 13.6-.3 13.6 11.5-5.7c7.7-3.8 11.8-6.5 12.5-8 1.2-2.7 1.5-26.3.4-26.3-.5 0-6 2.9-12.3 6.4z"/>
</svg>
