<svg width="24" height="24" viewBox="0 0 24 24" fill="none" xmlns="http://www.w3.org/2000/svg">
<path d="M9.64802 4.048C8.56002 4.592 7.68002 5.072 7.68002 5.136C7.68002 5.248 12.224 7.36 12.48 7.36C12.672 7.36 16.48 5.296 16.48 5.184C16.48 5.024 12.288 3.04 11.968 3.056C11.76 3.056 10.72 3.504 9.64802 4.048V4.048ZM7.04002 8.144C7.04002 9.28 7.08802 10.336 7.13602 10.48C7.23202 10.72 11.472 12.96 11.84 12.96C11.952 12.96 12 12.16 11.968 10.608L11.92 8.272L9.53602 7.168C8.24002 6.576 7.13602 6.08 7.10402 6.08C7.07202 6.08 7.04002 7.008 7.04002 8.144V8.144ZM14.88 7.264L13.04 8.288L12.992 10.464L12.944 12.64L14.848 11.696C15.904 11.168 16.8 10.624 16.864 10.48C17.008 10.096 16.992 6.24 16.848 6.24C16.768 6.24 15.888 6.704 14.88 7.264V7.264ZM3.53602 13.104L1.39202 14.192L3.45602 15.312L5.50402 16.432L6.16002 16.16C6.51202 16 7.63202 15.488 8.64002 15.008L10.48 14.128L8.36802 13.072C7.20002 12.48 6.11202 12 5.96802 12.016C5.80802 12.016 4.72002 12.512 3.53602 13.104V13.104ZM15.6 13.072L13.52 14.128L15.04 14.848C15.872 15.248 16.992 15.76 17.536 16L18.512 16.448L20.56 15.312L22.608 14.176L20.464 13.104C19.28 12.512 18.176 12.016 18 12.016C17.824 12.016 16.752 12.496 15.6 13.072ZM8.80002 16C7.69602 16.512 6.60802 17.04 6.36802 17.184L5.92002 17.424V19.68C5.92002 21.568 5.95202 21.92 6.16002 21.92C6.60802 21.92 10.528 19.856 10.784 19.488C10.992 19.2 11.04 18.688 11.04 17.088C11.04 15.952 10.992 15.04 10.928 15.056C10.848 15.056 9.90402 15.488 8.80002 16ZM12.96 17.088C12.96 18.688 13.008 19.2 13.216 19.488C13.472 19.856 17.392 21.92 17.84 21.92C18.048 21.92 18.08 21.568 18.08 19.696C18.08 18.112 18.016 17.424 17.888 17.312C17.696 17.168 13.168 15.04 13.024 15.04C12.992 15.04 12.96 15.952 12.96 17.088V17.088ZM0.960022 17.168C0.960022 18.688 1.00802 19.216 1.21602 19.488C1.34402 19.68 2.25602 20.24 3.21602 20.736L4.97602 21.6L4.92802 19.424L4.88002 17.232L3.04002 16.208C2.03202 15.664 1.15202 15.2 1.08802 15.2C1.00802 15.2 0.960022 16.08 0.960022 17.168ZM20.96 16.224L19.12 17.248L19.072 19.424L19.024 21.6L20.864 20.688C22.096 20.08 22.752 19.648 22.864 19.408C23.056 18.976 23.104 15.2 22.928 15.2C22.848 15.2 21.968 15.664 20.96 16.224V16.224Z" fill="black"/>
</svg>
